<?xml version="1.0" encoding="UTF-8"?>
<svg xmlns="http://www.w3.org/2000/svg" xmlns:xlink="http://www.w3.org/1999/xlink" width="1920" height="1080" viewBox="0 0 1920 1080">
<defs>
<g>
<g id="glyph-0-0">
<path d="M 0.3125 -3.4375 L 0.90625 -3.4375 L 2.078125 -0.609375 L 2.078125 -3.4375 L 2.515625 -3.4375 L 2.515625 0 L 1.9375 0 L 0.765625 -2.828125 L 0.765625 0 L 0.3125 0 Z "/>
</g>
<g id="glyph-0-1">
<path d="M 1.421875 -2.28125 C 1.203125 -2.28125 1.035156 -2.195312 0.921875 -2.03125 C 0.816406 -1.863281 0.765625 -1.613281 0.765625 -1.28125 C 0.765625 -0.957031 0.816406 -0.710938 0.921875 -0.546875 C 1.035156 -0.378906 1.203125 -0.296875 1.421875 -0.296875 C 1.640625 -0.296875 1.800781 -0.378906 1.90625 -0.546875 C 2.019531 -0.710938 2.078125 -0.957031 2.078125 -1.28125 C 2.078125 -1.613281 2.019531 -1.863281 1.90625 -2.03125 C 1.800781 -2.195312 1.640625 -2.28125 1.421875 -2.28125 Z M 1.421875 -2.640625 C 1.773438 -2.640625 2.046875 -2.523438 2.234375 -2.296875 C 2.429688 -2.066406 2.53125 -1.726562 2.53125 -1.28125 C 2.53125 -0.84375 2.429688 -0.507812 2.234375 -0.28125 C 2.046875 -0.0507812 1.773438 0.0625 1.421875 0.0625 C 1.054688 0.0625 0.78125 -0.0507812 0.59375 -0.28125 C 0.40625 -0.507812 0.3125 -0.84375 0.3125 -1.28125 C 0.3125 -1.726562 0.40625 -2.066406 0.59375 -2.296875 C 0.78125 -2.523438 1.054688 -2.640625 1.421875 -2.640625 Z "/>
</g>
<g id="glyph-0-2">
<path d="M 2.65625 -2.046875 C 2.570312 -2.117188 2.484375 -2.171875 2.390625 -2.203125 C 2.296875 -2.234375 2.191406 -2.25 2.078125 -2.25 C 1.804688 -2.25 1.601562 -2.164062 1.46875 -2 C 1.332031 -1.832031 1.265625 -1.59375 1.265625 -1.28125 L 1.265625 0 L 0.828125 0 L 0.828125 -2.578125 L 1.265625 -2.578125 L 1.265625 -2.078125 C 1.328125 -2.253906 1.429688 -2.390625 1.578125 -2.484375 C 1.734375 -2.585938 1.910156 -2.640625 2.109375 -2.640625 C 2.210938 -2.640625 2.304688 -2.625 2.390625 -2.59375 C 2.484375 -2.570312 2.570312 -2.535156 2.65625 -2.484375 Z "/>
</g>
<g id="glyph-0-3">
<path d="M 1.5625 -2.3125 C 1.613281 -2.425781 1.675781 -2.507812 1.75 -2.5625 C 1.832031 -2.613281 1.929688 -2.640625 2.046875 -2.640625 C 2.253906 -2.640625 2.398438 -2.554688 2.484375 -2.390625 C 2.566406 -2.234375 2.609375 -1.9375 2.609375 -1.5 L 2.609375 0 L 2.234375 0 L 2.234375 -1.484375 C 2.234375 -1.835938 2.210938 -2.054688 2.171875 -2.140625 C 2.128906 -2.234375 2.050781 -2.28125 1.9375 -2.28125 C 1.820312 -2.28125 1.738281 -2.234375 1.6875 -2.140625 C 1.644531 -2.046875 1.625 -1.828125 1.625 -1.484375 L 1.625 0 L 1.234375 0 L 1.234375 -1.484375 C 1.234375 -1.847656 1.210938 -2.070312 1.171875 -2.15625 C 1.128906 -2.238281 1.050781 -2.28125 0.9375 -2.28125 C 0.820312 -2.28125 0.742188 -2.234375 0.703125 -2.140625 C 0.660156 -2.046875 0.640625 -1.828125 0.640625 -1.484375 L 0.640625 0 L 0.25 0 L 0.25 -2.578125 L 0.640625 -2.578125 L 0.640625 -2.359375 C 0.691406 -2.453125 0.753906 -2.519531 0.828125 -2.5625 C 0.898438 -2.613281 0.984375 -2.640625 1.078125 -2.640625 C 1.203125 -2.640625 1.300781 -2.613281 1.375 -2.5625 C 1.457031 -2.507812 1.519531 -2.425781 1.5625 -2.3125 Z "/>
</g>
<g id="glyph-0-4">
<path d="M 1.625 -1.296875 L 1.484375 -1.296875 C 1.234375 -1.296875 1.046875 -1.25 0.921875 -1.15625 C 0.796875 -1.070312 0.734375 -0.945312 0.734375 -0.78125 C 0.734375 -0.625 0.78125 -0.5 0.875 -0.40625 C 0.96875 -0.320312 1.097656 -0.28125 1.265625 -0.28125 C 1.492188 -0.28125 1.675781 -0.363281 1.8125 -0.53125 C 1.945312 -0.695312 2.015625 -0.921875 2.015625 -1.203125 L 2.015625 -1.296875 Z M 2.4375 -1.46875 L 2.4375 0 L 2.015625 0 L 2.015625 -0.375 C 1.921875 -0.226562 1.804688 -0.117188 1.671875 -0.046875 C 1.535156 0.0234375 1.367188 0.0625 1.171875 0.0625 C 0.910156 0.0625 0.703125 -0.0078125 0.546875 -0.15625 C 0.390625 -0.300781 0.3125 -0.5 0.3125 -0.75 C 0.3125 -1.039062 0.40625 -1.257812 0.59375 -1.40625 C 0.789062 -1.550781 1.070312 -1.625 1.4375 -1.625 L 2.015625 -1.625 L 2.015625 -1.703125 C 2.015625 -1.898438 1.960938 -2.046875 1.859375 -2.140625 C 1.753906 -2.234375 1.585938 -2.28125 1.359375 -2.28125 C 1.210938 -2.28125 1.066406 -2.257812 0.921875 -2.21875 C 0.773438 -2.175781 0.632812 -2.117188 0.5 -2.046875 L 0.5 -2.46875 C 0.65625 -2.519531 0.800781 -2.5625 0.9375 -2.59375 C 1.082031 -2.625 1.222656 -2.640625 1.359375 -2.640625 C 1.578125 -2.640625 1.757812 -2.609375 1.90625 -2.546875 C 2.0625 -2.484375 2.1875 -2.390625 2.28125 -2.265625 C 2.332031 -2.191406 2.367188 -2.097656 2.390625 -1.984375 C 2.421875 -1.867188 2.4375 -1.695312 2.4375 -1.46875 Z "/>
</g>
<g id="glyph-0-5">
<path d="M 1.46875 -0.9375 C 1.46875 -0.75 1.503906 -0.601562 1.578125 -0.5 C 1.648438 -0.40625 1.753906 -0.359375 1.890625 -0.359375 L 2.375 -0.359375 L 2.375 0 L 1.84375 0 C 1.59375 0 1.394531 -0.078125 1.25 -0.234375 C 1.113281 -0.398438 1.046875 -0.632812 1.046875 -0.9375 L 1.046875 -3.28125 L 0.375 -3.28125 L 0.375 -3.609375 L 1.46875 -3.609375 Z "/>
</g>
<g id="glyph-0-6">
<path d="M 2.5625 -1.390625 L 2.5625 -1.1875 L 0.71875 -1.1875 L 0.71875 -1.171875 C 0.71875 -0.890625 0.789062 -0.671875 0.9375 -0.515625 C 1.09375 -0.367188 1.300781 -0.296875 1.5625 -0.296875 C 1.695312 -0.296875 1.835938 -0.316406 1.984375 -0.359375 C 2.140625 -0.398438 2.300781 -0.460938 2.46875 -0.546875 L 2.46875 -0.125 C 2.300781 -0.0625 2.140625 -0.015625 1.984375 0.015625 C 1.835938 0.046875 1.695312 0.0625 1.5625 0.0625 C 1.15625 0.0625 0.835938 -0.0546875 0.609375 -0.296875 C 0.390625 -0.535156 0.28125 -0.863281 0.28125 -1.28125 C 0.28125 -1.695312 0.390625 -2.023438 0.609375 -2.265625 C 0.835938 -2.515625 1.132812 -2.640625 1.5 -2.640625 C 1.832031 -2.640625 2.09375 -2.523438 2.28125 -2.296875 C 2.46875 -2.078125 2.5625 -1.773438 2.5625 -1.390625 Z M 2.140625 -1.515625 C 2.128906 -1.765625 2.066406 -1.953125 1.953125 -2.078125 C 1.847656 -2.210938 1.691406 -2.28125 1.484375 -2.28125 C 1.273438 -2.28125 1.101562 -2.210938 0.96875 -2.078125 C 0.84375 -1.941406 0.765625 -1.753906 0.734375 -1.515625 Z "/>
</g>
<g id="glyph-0-7">
</g>
<g id="glyph-0-8">
<path d="M 2.421875 -1.59375 L 2.421875 0 L 2 0 L 2 -1.59375 C 2 -1.832031 1.957031 -2.003906 1.875 -2.109375 C 1.789062 -2.222656 1.660156 -2.28125 1.484375 -2.28125 C 1.285156 -2.28125 1.132812 -2.207031 1.03125 -2.0625 C 0.925781 -1.925781 0.875 -1.722656 0.875 -1.453125 L 0.875 0 L 0.453125 0 L 0.453125 -2.578125 L 0.875 -2.578125 L 0.875 -2.1875 C 0.945312 -2.34375 1.046875 -2.457031 1.171875 -2.53125 C 1.304688 -2.601562 1.460938 -2.640625 1.640625 -2.640625 C 1.898438 -2.640625 2.09375 -2.550781 2.21875 -2.375 C 2.351562 -2.207031 2.421875 -1.945312 2.421875 -1.59375 Z "/>
</g>
<g id="glyph-0-9">
<path d="M 1.25 -3.78125 L 1.59375 -3.78125 L 2.15625 -2.90625 L 1.84375 -2.90625 L 1.421875 -3.46875 L 1 -2.90625 L 0.6875 -2.90625 Z "/>
</g>
</g>
</defs>
<g fill="rgb(53.333333%, 53.333333%, 53.333333%)" fill-opacity="1">
<use xlink:href="#glyph-0-0" x="30" y="24.383789"/>
<use xlink:href="#glyph-0-1" x="33" y="24.383789"/>
<use xlink:href="#glyph-0-2" x="36" y="24.383789"/>
<use xlink:href="#glyph-0-3" x="39" y="24.383789"/>
<use xlink:href="#glyph-0-4" x="42" y="24.383789"/>
<use xlink:href="#glyph-0-5" x="45" y="24.383789"/>
<use xlink:href="#glyph-0-6" x="48" y="24.383789"/>
<use xlink:href="#glyph-0-7" x="51" y="24.383789"/>
<use xlink:href="#glyph-0-8" x="54" y="24.383789"/>
<use xlink:href="#glyph-0-9" x="54" y="24.383789"/>
</g>
</svg>
