<?xml version="1.0" encoding="UTF-8"?>
<svg xmlns="http://www.w3.org/2000/svg" xmlns:xlink="http://www.w3.org/1999/xlink" width="1920" height="1080" viewBox="0 0 1920 1080">
<defs>
<g>
<g id="glyph-0-0">
<path d="M 2.265625 -2.109375 C 2.421875 -2.066406 2.550781 -1.988281 2.65625 -1.875 C 2.769531 -1.769531 2.910156 -1.550781 3.078125 -1.21875 L 3.671875 0 L 3.03125 0 L 2.5 -1.125 C 2.34375 -1.445312 2.203125 -1.648438 2.078125 -1.734375 C 1.960938 -1.828125 1.804688 -1.875 1.609375 -1.875 L 1.03125 -1.875 L 1.03125 0 L 0.421875 0 L 0.421875 -4.453125 L 1.671875 -4.453125 C 2.160156 -4.453125 2.535156 -4.34375 2.796875 -4.125 C 3.054688 -3.90625 3.1875 -3.585938 3.1875 -3.171875 C 3.1875 -2.867188 3.101562 -2.625 2.9375 -2.4375 C 2.78125 -2.257812 2.554688 -2.148438 2.265625 -2.109375 Z M 1.03125 -3.953125 L 1.03125 -2.375 L 1.6875 -2.375 C 1.976562 -2.375 2.191406 -2.4375 2.328125 -2.5625 C 2.472656 -2.695312 2.546875 -2.898438 2.546875 -3.171875 C 2.546875 -3.421875 2.46875 -3.613281 2.3125 -3.75 C 2.164062 -3.882812 1.953125 -3.953125 1.671875 -3.953125 Z "/>
</g>
<g id="glyph-0-1">
<path d="M 1.84375 -2.953125 C 1.5625 -2.953125 1.347656 -2.84375 1.203125 -2.625 C 1.054688 -2.414062 0.984375 -2.097656 0.984375 -1.671875 C 0.984375 -1.242188 1.054688 -0.921875 1.203125 -0.703125 C 1.347656 -0.484375 1.5625 -0.375 1.84375 -0.375 C 2.125 -0.375 2.332031 -0.484375 2.46875 -0.703125 C 2.613281 -0.921875 2.6875 -1.242188 2.6875 -1.671875 C 2.6875 -2.097656 2.613281 -2.414062 2.46875 -2.625 C 2.332031 -2.84375 2.125 -2.953125 1.84375 -2.953125 Z M 1.84375 -3.421875 C 2.300781 -3.421875 2.648438 -3.269531 2.890625 -2.96875 C 3.140625 -2.664062 3.265625 -2.234375 3.265625 -1.671875 C 3.265625 -1.097656 3.140625 -0.660156 2.890625 -0.359375 C 2.648438 -0.0546875 2.300781 0.09375 1.84375 0.09375 C 1.375 0.09375 1.015625 -0.0546875 0.765625 -0.359375 C 0.523438 -0.660156 0.40625 -1.097656 0.40625 -1.671875 C 0.40625 -2.234375 0.523438 -2.664062 0.765625 -2.96875 C 1.015625 -3.269531 1.375 -3.421875 1.84375 -3.421875 Z "/>
</g>
<g id="glyph-0-2">
<path d="M 1.828125 -4.296875 L 1.828125 -3.34375 L 3.078125 -3.34375 L 3.078125 -2.921875 L 1.828125 -2.921875 L 1.828125 -1.09375 C 1.828125 -0.851562 1.875 -0.679688 1.96875 -0.578125 C 2.0625 -0.484375 2.226562 -0.4375 2.46875 -0.4375 L 3.078125 -0.4375 L 3.078125 0 L 2.40625 0 C 2 0 1.707031 -0.0820312 1.53125 -0.25 C 1.363281 -0.414062 1.28125 -0.695312 1.28125 -1.09375 L 1.28125 -2.921875 L 0.390625 -2.921875 L 0.390625 -3.34375 L 1.28125 -3.34375 L 1.28125 -4.296875 Z "/>
</g>
<g id="glyph-0-3">
</g>
<g id="glyph-0-4">
<path d="M 2.953125 -4.359375 L 2.953125 -3.796875 C 2.828125 -3.867188 2.691406 -3.925781 2.546875 -3.96875 C 2.410156 -4.007812 2.265625 -4.03125 2.109375 -4.03125 C 1.734375 -4.03125 1.445312 -3.882812 1.25 -3.59375 C 1.050781 -3.3125 0.953125 -2.890625 0.953125 -2.328125 C 1.046875 -2.523438 1.175781 -2.675781 1.34375 -2.78125 C 1.519531 -2.882812 1.71875 -2.9375 1.9375 -2.9375 C 2.363281 -2.9375 2.691406 -2.804688 2.921875 -2.546875 C 3.160156 -2.285156 3.28125 -1.910156 3.28125 -1.421875 C 3.28125 -0.941406 3.15625 -0.566406 2.90625 -0.296875 C 2.664062 -0.0351562 2.328125 0.09375 1.890625 0.09375 C 1.378906 0.09375 1 -0.09375 0.75 -0.46875 C 0.507812 -0.84375 0.390625 -1.425781 0.390625 -2.21875 C 0.390625 -2.96875 0.535156 -3.539062 0.828125 -3.9375 C 1.117188 -4.332031 1.539062 -4.53125 2.09375 -4.53125 C 2.238281 -4.53125 2.382812 -4.515625 2.53125 -4.484375 C 2.675781 -4.453125 2.816406 -4.410156 2.953125 -4.359375 Z M 1.875 -2.46875 C 1.625 -2.46875 1.425781 -2.375 1.28125 -2.1875 C 1.132812 -2.007812 1.0625 -1.753906 1.0625 -1.421875 C 1.0625 -1.097656 1.132812 -0.84375 1.28125 -0.65625 C 1.425781 -0.476562 1.625 -0.390625 1.875 -0.390625 C 2.144531 -0.390625 2.347656 -0.472656 2.484375 -0.640625 C 2.617188 -0.816406 2.6875 -1.078125 2.6875 -1.421875 C 2.6875 -1.773438 2.617188 -2.035156 2.484375 -2.203125 C 2.347656 -2.378906 2.144531 -2.46875 1.875 -2.46875 Z "/>
</g>
<g id="glyph-0-5">
<path d="M 0.625 -4.453125 L 2.875 -4.453125 L 2.875 -3.953125 L 1.171875 -3.953125 L 1.171875 -2.859375 C 1.253906 -2.890625 1.335938 -2.910156 1.421875 -2.921875 C 1.503906 -2.929688 1.59375 -2.9375 1.6875 -2.9375 C 2.144531 -2.9375 2.507812 -2.800781 2.78125 -2.53125 C 3.050781 -2.257812 3.1875 -1.890625 3.1875 -1.421875 C 3.1875 -0.953125 3.046875 -0.582031 2.765625 -0.3125 C 2.484375 -0.0390625 2.097656 0.09375 1.609375 0.09375 C 1.367188 0.09375 1.148438 0.0703125 0.953125 0.03125 C 0.753906 0 0.578125 -0.046875 0.421875 -0.109375 L 0.421875 -0.71875 C 0.609375 -0.613281 0.789062 -0.535156 0.96875 -0.484375 C 1.15625 -0.441406 1.347656 -0.421875 1.546875 -0.421875 C 1.878906 -0.421875 2.132812 -0.507812 2.3125 -0.6875 C 2.488281 -0.863281 2.578125 -1.109375 2.578125 -1.421875 C 2.578125 -1.742188 2.484375 -1.992188 2.296875 -2.171875 C 2.117188 -2.347656 1.863281 -2.4375 1.53125 -2.4375 C 1.363281 -2.4375 1.203125 -2.414062 1.046875 -2.375 C 0.898438 -2.34375 0.757812 -2.289062 0.625 -2.21875 Z "/>
</g>
<g id="glyph-0-6">
<path d="M 1.4375 -2.234375 C 1.4375 -2.347656 1.472656 -2.441406 1.546875 -2.515625 C 1.628906 -2.597656 1.722656 -2.640625 1.828125 -2.640625 C 1.941406 -2.640625 2.035156 -2.597656 2.109375 -2.515625 C 2.191406 -2.441406 2.234375 -2.347656 2.234375 -2.234375 C 2.234375 -2.117188 2.191406 -2.023438 2.109375 -1.953125 C 2.035156 -1.878906 1.941406 -1.84375 1.828125 -1.84375 C 1.722656 -1.84375 1.628906 -1.878906 1.546875 -1.953125 C 1.472656 -2.023438 1.4375 -2.117188 1.4375 -2.234375 Z M 1.84375 -4.0625 C 1.5625 -4.0625 1.347656 -3.910156 1.203125 -3.609375 C 1.066406 -3.304688 1 -2.84375 1 -2.21875 C 1 -1.601562 1.066406 -1.144531 1.203125 -0.84375 C 1.347656 -0.539062 1.5625 -0.390625 1.84375 -0.390625 C 2.125 -0.390625 2.332031 -0.539062 2.46875 -0.84375 C 2.601562 -1.144531 2.671875 -1.601562 2.671875 -2.21875 C 2.671875 -2.84375 2.601562 -3.304688 2.46875 -3.609375 C 2.332031 -3.910156 2.125 -4.0625 1.84375 -4.0625 Z M 1.84375 -4.53125 C 2.3125 -4.53125 2.664062 -4.332031 2.90625 -3.9375 C 3.15625 -3.550781 3.28125 -2.976562 3.28125 -2.21875 C 3.28125 -1.457031 3.15625 -0.878906 2.90625 -0.484375 C 2.664062 -0.0976562 2.3125 0.09375 1.84375 0.09375 C 1.363281 0.09375 1 -0.0976562 0.75 -0.484375 C 0.507812 -0.878906 0.390625 -1.457031 0.390625 -2.21875 C 0.390625 -2.976562 0.507812 -3.550781 0.75 -3.9375 C 1 -4.332031 1.363281 -4.53125 1.84375 -4.53125 Z "/>
</g>
<g id="glyph-0-7">
<path d="M 3.140625 -2.0625 L 3.140625 0 L 2.578125 0 L 2.578125 -2.0625 C 2.578125 -2.363281 2.523438 -2.582031 2.421875 -2.71875 C 2.316406 -2.863281 2.15625 -2.9375 1.9375 -2.9375 C 1.675781 -2.9375 1.472656 -2.84375 1.328125 -2.65625 C 1.191406 -2.476562 1.125 -2.222656 1.125 -1.890625 L 1.125 0 L 0.578125 0 L 0.578125 -3.34375 L 1.125 -3.34375 L 1.125 -2.84375 C 1.226562 -3.03125 1.363281 -3.171875 1.53125 -3.265625 C 1.695312 -3.367188 1.894531 -3.421875 2.125 -3.421875 C 2.457031 -3.421875 2.707031 -3.304688 2.875 -3.078125 C 3.050781 -2.859375 3.140625 -2.519531 3.140625 -2.0625 Z "/>
</g>
<g id="glyph-0-8">
<path d="M 2.015625 -3 C 2.085938 -3.144531 2.175781 -3.25 2.28125 -3.3125 C 2.382812 -3.382812 2.507812 -3.421875 2.65625 -3.421875 C 2.925781 -3.421875 3.113281 -3.316406 3.21875 -3.109375 C 3.332031 -2.898438 3.390625 -2.507812 3.390625 -1.9375 L 3.390625 0 L 2.890625 0 L 2.890625 -1.90625 C 2.890625 -2.382812 2.859375 -2.679688 2.796875 -2.796875 C 2.742188 -2.910156 2.648438 -2.96875 2.515625 -2.96875 C 2.359375 -2.96875 2.25 -2.90625 2.1875 -2.78125 C 2.132812 -2.65625 2.109375 -2.363281 2.109375 -1.90625 L 2.109375 0 L 1.609375 0 L 1.609375 -1.90625 C 1.609375 -2.382812 1.578125 -2.679688 1.515625 -2.796875 C 1.460938 -2.910156 1.363281 -2.96875 1.21875 -2.96875 C 1.070312 -2.96875 0.96875 -2.90625 0.90625 -2.78125 C 0.851562 -2.65625 0.828125 -2.363281 0.828125 -1.90625 L 0.828125 0 L 0.328125 0 L 0.328125 -3.34375 L 0.828125 -3.34375 L 0.828125 -3.0625 C 0.890625 -3.175781 0.96875 -3.265625 1.0625 -3.328125 C 1.164062 -3.390625 1.28125 -3.421875 1.40625 -3.421875 C 1.550781 -3.421875 1.675781 -3.382812 1.78125 -3.3125 C 1.882812 -3.25 1.960938 -3.144531 2.015625 -3 Z "/>
</g>
</g>
</defs>
<g fill="rgb(100%, 0%, 0%)" fill-opacity="1">
<use xlink:href="#glyph-0-0" x="30" y="25.671875"/>
<use xlink:href="#glyph-0-1" x="34" y="25.671875"/>
<use xlink:href="#glyph-0-2" x="38" y="25.671875"/>
<use xlink:href="#glyph-0-3" x="42" y="25.671875"/>
<use xlink:href="#glyph-0-3" x="46" y="25.671875"/>
<use xlink:href="#glyph-0-4" x="50" y="25.671875"/>
<use xlink:href="#glyph-0-5" x="54" y="25.671875"/>
<use xlink:href="#glyph-0-6" x="58" y="25.671875"/>
<use xlink:href="#glyph-0-3" x="62" y="25.671875"/>
<use xlink:href="#glyph-0-7" x="66" y="25.671875"/>
<use xlink:href="#glyph-0-8" x="70" y="25.671875"/>
</g>
</svg>
