<?xml version="1.0" encoding="UTF-8"?>
<svg xmlns="http://www.w3.org/2000/svg" xmlns:xlink="http://www.w3.org/1999/xlink" width="1920" height="1080" viewBox="0 0 1920 1080">
<defs>
<g>
<g id="glyph-0-0">
<path d="M 1.59375 -2.84375 L 0.578125 -1.125 L 1.59375 -1.125 Z M 1.515625 -3.234375 L 2.03125 -3.234375 L 2.03125 -1.125 L 2.453125 -1.125 L 2.453125 -0.765625 L 2.03125 -0.765625 L 2.03125 0 L 1.59375 0 L 1.59375 -0.765625 L 0.21875 -0.765625 L 0.21875 -1.1875 Z "/>
</g>
<g id="glyph-0-1">
<path d="M 0.578125 -0.375 L 1.265625 -0.375 L 1.265625 -2.84375 L 0.53125 -2.671875 L 0.53125 -3.078125 L 1.265625 -3.234375 L 1.703125 -3.234375 L 1.703125 -0.375 L 2.375 -0.375 L 2.375 0 L 0.578125 0 Z "/>
</g>
<g id="glyph-0-2">
<path d="M 1.328125 -3.296875 C 1.421875 -3.296875 1.507812 -3.273438 1.59375 -3.234375 C 1.6875 -3.203125 1.765625 -3.15625 1.828125 -3.09375 C 1.890625 -3.019531 1.9375 -2.941406 1.96875 -2.859375 C 2.007812 -2.785156 2.03125 -2.695312 2.03125 -2.59375 C 2.03125 -2.40625 1.960938 -2.242188 1.828125 -2.109375 C 1.691406 -1.984375 1.523438 -1.921875 1.328125 -1.921875 C 1.128906 -1.921875 0.960938 -1.984375 0.828125 -2.109375 C 0.703125 -2.242188 0.640625 -2.40625 0.640625 -2.59375 C 0.640625 -2.789062 0.707031 -2.957031 0.84375 -3.09375 C 0.976562 -3.226562 1.140625 -3.296875 1.328125 -3.296875 Z M 1.328125 -3.015625 C 1.210938 -3.015625 1.113281 -2.972656 1.03125 -2.890625 C 0.957031 -2.816406 0.921875 -2.71875 0.921875 -2.59375 C 0.921875 -2.476562 0.957031 -2.378906 1.03125 -2.296875 C 1.113281 -2.222656 1.210938 -2.1875 1.328125 -2.1875 C 1.441406 -2.1875 1.539062 -2.226562 1.625 -2.3125 C 1.707031 -2.394531 1.75 -2.488281 1.75 -2.59375 C 1.75 -2.707031 1.707031 -2.804688 1.625 -2.890625 C 1.539062 -2.972656 1.441406 -3.015625 1.328125 -3.015625 Z "/>
</g>
</g>
</defs>
<g fill="rgb(53.333333%, 53.333333%, 53.333333%)" fill-opacity="1">
<use xlink:href="#glyph-0-0" x="30" y="24.125"/>
<use xlink:href="#glyph-0-1" x="33" y="24.125"/>
<use xlink:href="#glyph-0-2" x="36" y="24.125"/>
</g>
</svg>
