<?xml version="1.0" encoding="UTF-8"?>
<svg xmlns="http://www.w3.org/2000/svg" xmlns:xlink="http://www.w3.org/1999/xlink" width="1920" height="1080" viewBox="0 0 1920 1080">
<defs>
<g>
<g id="glyph-0-0">
<path d="M 3.5 -3.25 C 3.738281 -3.1875 3.941406 -3.066406 4.109375 -2.890625 C 4.285156 -2.722656 4.5 -2.382812 4.75 -1.875 L 5.6875 0 L 4.6875 0 L 3.859375 -1.734375 C 3.617188 -2.234375 3.40625 -2.550781 3.21875 -2.6875 C 3.03125 -2.832031 2.785156 -2.90625 2.484375 -2.90625 L 1.59375 -2.90625 L 1.59375 0 L 0.65625 0 L 0.65625 -6.875 L 2.578125 -6.875 C 3.328125 -6.875 3.90625 -6.703125 4.3125 -6.359375 C 4.71875 -6.023438 4.921875 -5.535156 4.921875 -4.890625 C 4.921875 -4.429688 4.796875 -4.054688 4.546875 -3.765625 C 4.296875 -3.484375 3.945312 -3.3125 3.5 -3.25 Z M 1.59375 -6.109375 L 1.59375 -3.671875 L 2.609375 -3.671875 C 3.054688 -3.671875 3.390625 -3.769531 3.609375 -3.96875 C 3.828125 -4.164062 3.9375 -4.472656 3.9375 -4.890625 C 3.9375 -5.285156 3.816406 -5.585938 3.578125 -5.796875 C 3.347656 -6.003906 3.015625 -6.109375 2.578125 -6.109375 Z "/>
</g>
<g id="glyph-0-1">
<path d="M 5.125 -2.796875 L 5.125 -2.375 L 1.453125 -2.375 L 1.453125 -2.34375 C 1.453125 -1.78125 1.597656 -1.34375 1.890625 -1.03125 C 2.179688 -0.726562 2.597656 -0.578125 3.140625 -0.578125 C 3.410156 -0.578125 3.691406 -0.617188 3.984375 -0.703125 C 4.273438 -0.796875 4.585938 -0.929688 4.921875 -1.109375 L 4.921875 -0.265625 C 4.597656 -0.128906 4.285156 -0.03125 3.984375 0.03125 C 3.691406 0.101562 3.40625 0.140625 3.125 0.140625 C 2.320312 0.140625 1.691406 -0.0976562 1.234375 -0.578125 C 0.785156 -1.066406 0.5625 -1.734375 0.5625 -2.578125 C 0.5625 -3.398438 0.78125 -4.054688 1.21875 -4.546875 C 1.664062 -5.035156 2.257812 -5.28125 3 -5.28125 C 3.65625 -5.28125 4.171875 -5.054688 4.546875 -4.609375 C 4.929688 -4.171875 5.125 -3.566406 5.125 -2.796875 Z M 4.28125 -3.046875 C 4.269531 -3.535156 4.148438 -3.910156 3.921875 -4.171875 C 3.703125 -4.429688 3.382812 -4.5625 2.96875 -4.5625 C 2.550781 -4.5625 2.210938 -4.425781 1.953125 -4.15625 C 1.691406 -3.882812 1.535156 -3.507812 1.484375 -3.03125 Z "/>
</g>
<g id="glyph-0-2">
<path d="M 3.953125 -2.625 C 3.953125 -3.257812 3.847656 -3.738281 3.640625 -4.0625 C 3.429688 -4.394531 3.128906 -4.5625 2.734375 -4.5625 C 2.316406 -4.5625 2 -4.394531 1.78125 -4.0625 C 1.5625 -3.738281 1.453125 -3.257812 1.453125 -2.625 C 1.453125 -1.988281 1.5625 -1.503906 1.78125 -1.171875 C 2.007812 -0.835938 2.332031 -0.671875 2.75 -0.671875 C 3.132812 -0.671875 3.429688 -0.835938 3.640625 -1.171875 C 3.847656 -1.503906 3.953125 -1.988281 3.953125 -2.625 Z M 4.796875 -0.328125 C 4.796875 0.441406 4.613281 1.023438 4.25 1.421875 C 3.882812 1.828125 3.347656 2.03125 2.640625 2.03125 C 2.410156 2.03125 2.164062 2.007812 1.90625 1.96875 C 1.65625 1.925781 1.398438 1.863281 1.140625 1.78125 L 1.140625 0.9375 C 1.441406 1.070312 1.710938 1.171875 1.953125 1.234375 C 2.203125 1.304688 2.429688 1.34375 2.640625 1.34375 C 3.097656 1.34375 3.429688 1.21875 3.640625 0.96875 C 3.847656 0.726562 3.953125 0.335938 3.953125 -0.203125 L 3.953125 -0.8125 C 3.816406 -0.53125 3.628906 -0.316406 3.390625 -0.171875 C 3.160156 -0.0351562 2.878906 0.03125 2.546875 0.03125 C 1.941406 0.03125 1.457031 -0.207031 1.09375 -0.6875 C 0.738281 -1.164062 0.5625 -1.8125 0.5625 -2.625 C 0.5625 -3.4375 0.738281 -4.082031 1.09375 -4.5625 C 1.457031 -5.039062 1.941406 -5.28125 2.546875 -5.28125 C 2.878906 -5.28125 3.160156 -5.210938 3.390625 -5.078125 C 3.617188 -4.953125 3.804688 -4.75 3.953125 -4.46875 L 3.953125 -5.140625 L 4.796875 -5.140625 Z "/>
</g>
<g id="glyph-0-3">
<path d="M 4.84375 -3.203125 L 4.84375 0 L 3.984375 0 L 3.984375 -3.203125 C 3.984375 -3.660156 3.898438 -4 3.734375 -4.21875 C 3.578125 -4.4375 3.328125 -4.546875 2.984375 -4.546875 C 2.585938 -4.546875 2.28125 -4.40625 2.0625 -4.125 C 1.851562 -3.84375 1.75 -3.441406 1.75 -2.921875 L 1.75 0 L 0.90625 0 L 0.90625 -5.15625 L 1.75 -5.15625 L 1.75 -4.390625 C 1.894531 -4.679688 2.097656 -4.898438 2.359375 -5.046875 C 2.617188 -5.203125 2.925781 -5.28125 3.28125 -5.28125 C 3.800781 -5.28125 4.191406 -5.109375 4.453125 -4.765625 C 4.710938 -4.421875 4.84375 -3.898438 4.84375 -3.203125 Z "/>
</g>
<g id="glyph-0-4">
<path d="M 4.234375 -2.578125 C 4.234375 -3.234375 4.128906 -3.726562 3.921875 -4.0625 C 3.710938 -4.394531 3.398438 -4.5625 2.984375 -4.5625 C 2.578125 -4.5625 2.265625 -4.394531 2.046875 -4.0625 C 1.835938 -3.726562 1.734375 -3.234375 1.734375 -2.578125 C 1.734375 -1.921875 1.835938 -1.421875 2.046875 -1.078125 C 2.265625 -0.742188 2.578125 -0.578125 2.984375 -0.578125 C 3.398438 -0.578125 3.710938 -0.742188 3.921875 -1.078125 C 4.128906 -1.421875 4.234375 -1.921875 4.234375 -2.578125 Z M 1.734375 -4.5 C 1.867188 -4.75 2.054688 -4.941406 2.296875 -5.078125 C 2.535156 -5.210938 2.8125 -5.28125 3.125 -5.28125 C 3.75 -5.28125 4.238281 -5.039062 4.59375 -4.5625 C 4.945312 -4.09375 5.125 -3.4375 5.125 -2.59375 C 5.125 -1.738281 4.941406 -1.066406 4.578125 -0.578125 C 4.222656 -0.0976562 3.734375 0.140625 3.109375 0.140625 C 2.804688 0.140625 2.535156 0.0703125 2.296875 -0.0625 C 2.066406 -0.195312 1.878906 -0.394531 1.734375 -0.65625 L 1.734375 0 L 0.890625 0 L 0.890625 -7.171875 L 1.734375 -7.171875 Z "/>
</g>
<g id="glyph-0-5">
<path d="M 2.84375 -4.5625 C 2.40625 -4.5625 2.078125 -4.394531 1.859375 -4.0625 C 1.640625 -3.726562 1.53125 -3.234375 1.53125 -2.578125 C 1.53125 -1.921875 1.640625 -1.421875 1.859375 -1.078125 C 2.078125 -0.742188 2.40625 -0.578125 2.84375 -0.578125 C 3.269531 -0.578125 3.59375 -0.742188 3.8125 -1.078125 C 4.039062 -1.421875 4.15625 -1.921875 4.15625 -2.578125 C 4.15625 -3.234375 4.039062 -3.726562 3.8125 -4.0625 C 3.59375 -4.394531 3.269531 -4.5625 2.84375 -4.5625 Z M 2.84375 -5.28125 C 3.550781 -5.28125 4.09375 -5.046875 4.46875 -4.578125 C 4.851562 -4.117188 5.046875 -3.453125 5.046875 -2.578125 C 5.046875 -1.691406 4.859375 -1.015625 4.484375 -0.546875 C 4.109375 -0.0859375 3.5625 0.140625 2.84375 0.140625 C 2.125 0.140625 1.570312 -0.0859375 1.1875 -0.546875 C 0.8125 -1.015625 0.625 -1.691406 0.625 -2.578125 C 0.625 -3.453125 0.8125 -4.117188 1.1875 -4.578125 C 1.570312 -5.046875 2.125 -5.28125 2.84375 -5.28125 Z "/>
</g>
<g id="glyph-0-6">
</g>
<g id="glyph-0-7">
<path d="M 0.40625 -2.421875 L 5.28125 -2.421875 L 5.28125 -1.625 L 0.40625 -1.625 Z M 0.40625 -4.28125 L 5.28125 -4.28125 L 5.28125 -3.5 L 0.40625 -3.5 Z "/>
</g>
<g id="glyph-0-8">
<path d="M 0 -6.875 L 0.90625 -6.875 L 1.5625 -1.296875 L 2.34375 -4.984375 L 3.328125 -4.984375 L 4.109375 -1.28125 L 4.78125 -6.875 L 5.6875 -6.875 L 4.65625 0 L 3.78125 0 L 2.84375 -4.09375 L 1.90625 0 L 1.03125 0 Z "/>
</g>
<g id="glyph-0-9">
<path d="M 1.1875 -5.15625 L 3.34375 -5.15625 L 3.34375 -0.65625 L 5.03125 -0.65625 L 5.03125 0 L 0.8125 0 L 0.8125 -0.65625 L 2.5 -0.65625 L 2.5 -4.5 L 1.1875 -4.5 Z M 2.5 -7.171875 L 3.34375 -7.171875 L 3.34375 -6.09375 L 2.5 -6.09375 Z "/>
</g>
<g id="glyph-0-10">
<path d="M 1.09375 -7.171875 L 1.96875 -7.171875 L 1.96875 -3.015625 L 4.1875 -5.15625 L 5.21875 -5.15625 L 3.1875 -3.21875 L 5.53125 0 L 4.5 0 L 2.59375 -2.65625 L 1.96875 -2.0625 L 1.96875 0 L 1.09375 0 Z "/>
</g>
<g id="glyph-0-11">
<path d="M 2.9375 -1.875 C 2.9375 -1.488281 3.003906 -1.195312 3.140625 -1 C 3.285156 -0.8125 3.5 -0.71875 3.78125 -0.71875 L 4.765625 -0.71875 L 4.765625 0 L 3.6875 0 C 3.1875 0 2.796875 -0.160156 2.515625 -0.484375 C 2.234375 -0.816406 2.09375 -1.28125 2.09375 -1.875 L 2.09375 -6.5625 L 0.734375 -6.5625 L 0.734375 -7.21875 L 2.9375 -7.21875 Z "/>
</g>
<g id="glyph-0-12">
<path d="M 1.734375 -0.65625 L 1.734375 1.96875 L 0.875 1.96875 L 0.875 -5.15625 L 1.734375 -5.15625 L 1.734375 -4.5 C 1.867188 -4.757812 2.050781 -4.953125 2.28125 -5.078125 C 2.519531 -5.210938 2.796875 -5.28125 3.109375 -5.28125 C 3.734375 -5.28125 4.222656 -5.039062 4.578125 -4.5625 C 4.929688 -4.082031 5.109375 -3.414062 5.109375 -2.5625 C 5.109375 -1.71875 4.925781 -1.054688 4.5625 -0.578125 C 4.207031 -0.0976562 3.722656 0.140625 3.109375 0.140625 C 2.796875 0.140625 2.519531 0.0703125 2.28125 -0.0625 C 2.050781 -0.195312 1.867188 -0.394531 1.734375 -0.65625 Z M 4.21875 -2.578125 C 4.21875 -3.234375 4.113281 -3.726562 3.90625 -4.0625 C 3.695312 -4.394531 3.390625 -4.5625 2.984375 -4.5625 C 2.566406 -4.5625 2.253906 -4.394531 2.046875 -4.0625 C 1.835938 -3.726562 1.734375 -3.234375 1.734375 -2.578125 C 1.734375 -1.921875 1.835938 -1.421875 2.046875 -1.078125 C 2.253906 -0.742188 2.566406 -0.578125 2.984375 -0.578125 C 3.390625 -0.578125 3.695312 -0.742188 3.90625 -1.078125 C 4.113281 -1.421875 4.21875 -1.921875 4.21875 -2.578125 Z "/>
</g>
<g id="glyph-0-13">
<path d="M 4.84375 -3.203125 L 4.84375 0 L 3.984375 0 L 3.984375 -3.203125 C 3.984375 -3.660156 3.898438 -4 3.734375 -4.21875 C 3.578125 -4.4375 3.328125 -4.546875 2.984375 -4.546875 C 2.585938 -4.546875 2.28125 -4.40625 2.0625 -4.125 C 1.851562 -3.84375 1.75 -3.441406 1.75 -2.921875 L 1.75 0 L 0.90625 0 L 0.90625 -7.171875 L 1.75 -7.171875 L 1.75 -4.390625 C 1.894531 -4.679688 2.097656 -4.898438 2.359375 -5.046875 C 2.617188 -5.203125 2.925781 -5.28125 3.28125 -5.28125 C 3.800781 -5.28125 4.191406 -5.109375 4.453125 -4.765625 C 4.710938 -4.421875 4.84375 -3.898438 4.84375 -3.203125 Z "/>
</g>
<g id="glyph-0-14">
<path d="M 3.234375 -2.59375 L 2.953125 -2.59375 C 2.460938 -2.59375 2.085938 -2.503906 1.828125 -2.328125 C 1.578125 -2.160156 1.453125 -1.90625 1.453125 -1.5625 C 1.453125 -1.25 1.546875 -1.003906 1.734375 -0.828125 C 1.921875 -0.660156 2.179688 -0.578125 2.515625 -0.578125 C 2.984375 -0.578125 3.347656 -0.738281 3.609375 -1.0625 C 3.878906 -1.382812 4.019531 -1.832031 4.03125 -2.40625 L 4.03125 -2.59375 Z M 4.875 -2.9375 L 4.875 0 L 4.03125 0 L 4.03125 -0.765625 C 3.84375 -0.453125 3.613281 -0.222656 3.34375 -0.078125 C 3.070312 0.0664062 2.738281 0.140625 2.34375 0.140625 C 1.8125 0.140625 1.390625 -0.00390625 1.078125 -0.296875 C 0.765625 -0.597656 0.609375 -1 0.609375 -1.5 C 0.609375 -2.070312 0.800781 -2.507812 1.1875 -2.8125 C 1.570312 -3.113281 2.140625 -3.265625 2.890625 -3.265625 L 4.03125 -3.265625 L 4.03125 -3.390625 C 4.019531 -3.804688 3.910156 -4.101562 3.703125 -4.28125 C 3.503906 -4.46875 3.179688 -4.5625 2.734375 -4.5625 C 2.441406 -4.5625 2.144531 -4.519531 1.84375 -4.4375 C 1.550781 -4.351562 1.265625 -4.234375 0.984375 -4.078125 L 0.984375 -4.921875 C 1.296875 -5.046875 1.597656 -5.132812 1.890625 -5.1875 C 2.179688 -5.25 2.460938 -5.28125 2.734375 -5.28125 C 3.160156 -5.28125 3.523438 -5.21875 3.828125 -5.09375 C 4.128906 -4.96875 4.375 -4.78125 4.5625 -4.53125 C 4.675781 -4.375 4.753906 -4.179688 4.796875 -3.953125 C 4.847656 -3.734375 4.875 -3.394531 4.875 -2.9375 Z M 1.46875 -7.15625 L 2.40625 -7.15625 L 2.40625 -6.21875 L 1.46875 -6.21875 Z M 3.28125 -7.15625 L 4.203125 -7.15625 L 4.203125 -6.21875 L 3.28125 -6.21875 Z "/>
</g>
<g id="glyph-0-15">
<path d="M 3.109375 -4.640625 C 3.210938 -4.859375 3.34375 -5.019531 3.5 -5.125 C 3.664062 -5.226562 3.863281 -5.28125 4.09375 -5.28125 C 4.507812 -5.28125 4.800781 -5.117188 4.96875 -4.796875 C 5.144531 -4.484375 5.234375 -3.878906 5.234375 -2.984375 L 5.234375 0 L 4.453125 0 L 4.453125 -2.953125 C 4.453125 -3.679688 4.410156 -4.132812 4.328125 -4.3125 C 4.253906 -4.488281 4.109375 -4.578125 3.890625 -4.578125 C 3.640625 -4.578125 3.46875 -4.484375 3.375 -4.296875 C 3.289062 -4.109375 3.25 -3.660156 3.25 -2.953125 L 3.25 0 L 2.46875 0 L 2.46875 -2.953125 C 2.46875 -3.691406 2.425781 -4.144531 2.34375 -4.3125 C 2.257812 -4.488281 2.101562 -4.578125 1.875 -4.578125 C 1.644531 -4.578125 1.484375 -4.484375 1.390625 -4.296875 C 1.304688 -4.109375 1.265625 -3.660156 1.265625 -2.953125 L 1.265625 0 L 0.5 0 L 0.5 -5.15625 L 1.265625 -5.15625 L 1.265625 -4.71875 C 1.367188 -4.90625 1.492188 -5.046875 1.640625 -5.140625 C 1.796875 -5.234375 1.972656 -5.28125 2.171875 -5.28125 C 2.398438 -5.28125 2.59375 -5.226562 2.75 -5.125 C 2.90625 -5.019531 3.023438 -4.859375 3.109375 -4.640625 Z "/>
</g>
</g>
</defs>
<g fill="rgb(100%, 81.960784%, 40%)" fill-opacity="1">
<use xlink:href="#glyph-0-0" x="30" y="28.766602"/>
<use xlink:href="#glyph-0-1" x="36" y="28.766602"/>
<use xlink:href="#glyph-0-2" x="42" y="28.766602"/>
<use xlink:href="#glyph-0-1" x="48" y="28.766602"/>
<use xlink:href="#glyph-0-3" x="54" y="28.766602"/>
<use xlink:href="#glyph-0-4" x="60" y="28.766602"/>
<use xlink:href="#glyph-0-5" x="66" y="28.766602"/>
<use xlink:href="#glyph-0-2" x="72" y="28.766602"/>
<use xlink:href="#glyph-0-1" x="78" y="28.766602"/>
<use xlink:href="#glyph-0-3" x="84" y="28.766602"/>
<use xlink:href="#glyph-0-6" x="90" y="28.766602"/>
<use xlink:href="#glyph-0-7" x="96" y="28.766602"/>
<use xlink:href="#glyph-0-6" x="102" y="28.766602"/>
<use xlink:href="#glyph-0-8" x="108" y="28.766602"/>
<use xlink:href="#glyph-0-9" x="114" y="28.766602"/>
<use xlink:href="#glyph-0-3" x="120" y="28.766602"/>
<use xlink:href="#glyph-0-10" x="126" y="28.766602"/>
<use xlink:href="#glyph-0-1" x="132" y="28.766602"/>
<use xlink:href="#glyph-0-11" x="138" y="28.766602"/>
<use xlink:href="#glyph-0-12" x="144" y="28.766602"/>
<use xlink:href="#glyph-0-13" x="150" y="28.766602"/>
<use xlink:href="#glyph-0-14" x="156" y="28.766602"/>
<use xlink:href="#glyph-0-3" x="162" y="28.766602"/>
<use xlink:href="#glyph-0-5" x="168" y="28.766602"/>
<use xlink:href="#glyph-0-15" x="174" y="28.766602"/>
<use xlink:href="#glyph-0-1" x="180" y="28.766602"/>
<use xlink:href="#glyph-0-3" x="186" y="28.766602"/>
</g>
</svg>
