<?xml version="1.0" encoding="UTF-8"?>
<svg xmlns="http://www.w3.org/2000/svg" xmlns:xlink="http://www.w3.org/1999/xlink" width="1920" height="1080" viewBox="0 0 1920 1080">
<defs>
<g>
<g id="glyph-0-0">
<path d="M 0.90625 -2.171875 C 0.90625 -2.398438 0.984375 -2.597656 1.140625 -2.765625 C 1.304688 -2.929688 1.507812 -3.015625 1.75 -3.015625 C 1.988281 -3.015625 2.1875 -2.929688 2.34375 -2.765625 C 2.507812 -2.597656 2.59375 -2.398438 2.59375 -2.171875 C 2.59375 -1.929688 2.507812 -1.726562 2.34375 -1.5625 C 2.1875 -1.40625 1.988281 -1.328125 1.75 -1.328125 C 1.507812 -1.328125 1.304688 -1.40625 1.140625 -1.5625 C 0.984375 -1.726562 0.90625 -1.929688 0.90625 -2.171875 Z "/>
</g>
<g id="glyph-0-1">
</g>
<g id="glyph-0-2">
<path d="M 2.203125 -2.28125 C 2.484375 -2.195312 2.695312 -2.0625 2.84375 -1.875 C 3 -1.6875 3.078125 -1.453125 3.078125 -1.171875 C 3.078125 -0.785156 2.941406 -0.476562 2.671875 -0.25 C 2.410156 -0.03125 2.046875 0.078125 1.578125 0.078125 C 1.390625 0.078125 1.191406 0.0546875 0.984375 0.015625 C 0.785156 -0.015625 0.585938 -0.0625 0.390625 -0.125 L 0.390625 -0.703125 C 0.585938 -0.597656 0.78125 -0.519531 0.96875 -0.46875 C 1.15625 -0.425781 1.335938 -0.40625 1.515625 -0.40625 C 1.835938 -0.40625 2.082031 -0.472656 2.25 -0.609375 C 2.414062 -0.753906 2.5 -0.960938 2.5 -1.234375 C 2.5 -1.472656 2.414062 -1.664062 2.25 -1.8125 C 2.082031 -1.957031 1.851562 -2.03125 1.5625 -2.03125 L 1.125 -2.03125 L 1.125 -2.5 L 1.5625 -2.5 C 1.820312 -2.5 2.023438 -2.554688 2.171875 -2.671875 C 2.328125 -2.796875 2.40625 -2.960938 2.40625 -3.171875 C 2.40625 -3.378906 2.332031 -3.539062 2.1875 -3.65625 C 2.050781 -3.78125 1.859375 -3.84375 1.609375 -3.84375 C 1.441406 -3.84375 1.265625 -3.820312 1.078125 -3.78125 C 0.898438 -3.75 0.710938 -3.691406 0.515625 -3.609375 L 0.515625 -4.140625 C 0.742188 -4.203125 0.945312 -4.25 1.125 -4.28125 C 1.3125 -4.3125 1.472656 -4.328125 1.609375 -4.328125 C 2.023438 -4.328125 2.351562 -4.222656 2.59375 -4.015625 C 2.84375 -3.804688 2.96875 -3.53125 2.96875 -3.1875 C 2.96875 -2.957031 2.898438 -2.765625 2.765625 -2.609375 C 2.640625 -2.453125 2.453125 -2.34375 2.203125 -2.28125 Z "/>
</g>
<g id="glyph-0-3">
<path d="M 1.390625 -0.875 L 2.109375 -0.875 L 2.109375 0 L 1.390625 0 Z "/>
</g>
<g id="glyph-0-4">
<path d="M 0.578125 -4.25 L 2.9375 -4.25 L 2.9375 -3.765625 L 2.046875 -3.765625 L 2.046875 -0.484375 L 2.9375 -0.484375 L 2.9375 0 L 0.578125 0 L 0.578125 -0.484375 L 1.46875 -0.484375 L 1.46875 -3.765625 L 0.578125 -3.765625 Z "/>
</g>
<g id="glyph-0-5">
<path d="M 2.984375 -1.96875 L 2.984375 0 L 2.46875 0 L 2.46875 -1.96875 C 2.46875 -2.257812 2.414062 -2.472656 2.3125 -2.609375 C 2.207031 -2.742188 2.050781 -2.8125 1.84375 -2.8125 C 1.59375 -2.8125 1.398438 -2.722656 1.265625 -2.546875 C 1.140625 -2.367188 1.078125 -2.117188 1.078125 -1.796875 L 1.078125 0 L 0.5625 0 L 0.5625 -3.1875 L 1.078125 -3.1875 L 1.078125 -2.703125 C 1.171875 -2.890625 1.296875 -3.03125 1.453125 -3.125 C 1.617188 -3.21875 1.804688 -3.265625 2.015625 -3.265625 C 2.347656 -3.265625 2.59375 -3.15625 2.75 -2.9375 C 2.90625 -2.726562 2.984375 -2.40625 2.984375 -1.96875 Z "/>
</g>
<g id="glyph-0-6">
<path d="M 3.171875 -1.71875 L 3.171875 -1.46875 L 0.890625 -1.46875 L 0.890625 -1.453125 C 0.890625 -1.109375 0.976562 -0.835938 1.15625 -0.640625 C 1.34375 -0.453125 1.601562 -0.359375 1.9375 -0.359375 C 2.101562 -0.359375 2.273438 -0.382812 2.453125 -0.4375 C 2.640625 -0.488281 2.835938 -0.570312 3.046875 -0.6875 L 3.046875 -0.15625 C 2.847656 -0.0820312 2.65625 -0.0234375 2.46875 0.015625 C 2.28125 0.0546875 2.097656 0.078125 1.921875 0.078125 C 1.429688 0.078125 1.046875 -0.0664062 0.765625 -0.359375 C 0.484375 -0.660156 0.34375 -1.070312 0.34375 -1.59375 C 0.34375 -2.101562 0.476562 -2.507812 0.75 -2.8125 C 1.03125 -3.113281 1.398438 -3.265625 1.859375 -3.265625 C 2.265625 -3.265625 2.582031 -3.125 2.8125 -2.84375 C 3.050781 -2.570312 3.171875 -2.195312 3.171875 -1.71875 Z M 2.640625 -1.875 C 2.628906 -2.1875 2.554688 -2.421875 2.421875 -2.578125 C 2.285156 -2.734375 2.085938 -2.8125 1.828125 -2.8125 C 1.578125 -2.8125 1.367188 -2.726562 1.203125 -2.5625 C 1.046875 -2.394531 0.953125 -2.164062 0.921875 -1.875 Z "/>
</g>
<g id="glyph-0-7">
<path d="M 3.28125 -2.53125 C 3.175781 -2.613281 3.0625 -2.675781 2.9375 -2.71875 C 2.820312 -2.757812 2.695312 -2.78125 2.5625 -2.78125 C 2.238281 -2.78125 1.988281 -2.675781 1.8125 -2.46875 C 1.644531 -2.269531 1.5625 -1.972656 1.5625 -1.578125 L 1.5625 0 L 1.03125 0 L 1.03125 -3.1875 L 1.5625 -3.1875 L 1.5625 -2.5625 C 1.644531 -2.789062 1.773438 -2.960938 1.953125 -3.078125 C 2.140625 -3.203125 2.359375 -3.265625 2.609375 -3.265625 C 2.734375 -3.265625 2.851562 -3.25 2.96875 -3.21875 C 3.082031 -3.1875 3.1875 -3.132812 3.28125 -3.0625 Z "/>
</g>
<g id="glyph-0-8">
<path d="M 2.15625 -2 C 2.3125 -1.96875 2.441406 -1.898438 2.546875 -1.796875 C 2.648438 -1.691406 2.78125 -1.476562 2.9375 -1.15625 L 3.515625 0 L 2.890625 0 L 2.390625 -1.078125 C 2.242188 -1.378906 2.109375 -1.570312 1.984375 -1.65625 C 1.867188 -1.75 1.71875 -1.796875 1.53125 -1.796875 L 0.984375 -1.796875 L 0.984375 0 L 0.40625 0 L 0.40625 -4.25 L 1.59375 -4.25 C 2.0625 -4.25 2.414062 -4.140625 2.65625 -3.921875 C 2.90625 -3.710938 3.03125 -3.410156 3.03125 -3.015625 C 3.03125 -2.734375 2.953125 -2.503906 2.796875 -2.328125 C 2.648438 -2.148438 2.4375 -2.039062 2.15625 -2 Z M 0.984375 -3.78125 L 0.984375 -2.265625 L 1.609375 -2.265625 C 1.890625 -2.265625 2.097656 -2.328125 2.234375 -2.453125 C 2.367188 -2.578125 2.4375 -2.765625 2.4375 -3.015625 C 2.4375 -3.265625 2.363281 -3.453125 2.21875 -3.578125 C 2.070312 -3.710938 1.863281 -3.78125 1.59375 -3.78125 Z "/>
</g>
<g id="glyph-0-9">
<path d="M 3.03125 -4.421875 L 3.03125 -4 L 2.4375 -4 C 2.25 -4 2.113281 -3.957031 2.03125 -3.875 C 1.957031 -3.800781 1.921875 -3.664062 1.921875 -3.46875 L 1.921875 -3.1875 L 3.03125 -3.1875 L 3.03125 -2.78125 L 1.921875 -2.78125 L 1.921875 0 L 1.40625 0 L 1.40625 -2.78125 L 0.5625 -2.78125 L 0.5625 -3.1875 L 1.40625 -3.1875 L 1.40625 -3.40625 C 1.40625 -3.757812 1.484375 -4.015625 1.640625 -4.171875 C 1.804688 -4.335938 2.054688 -4.421875 2.390625 -4.421875 Z "/>
</g>
<g id="glyph-0-10">
<path d="M 1.8125 -1.15625 C 1.8125 -0.914062 1.851562 -0.734375 1.9375 -0.609375 C 2.03125 -0.492188 2.160156 -0.4375 2.328125 -0.4375 L 2.9375 -0.4375 L 2.9375 0 L 2.28125 0 C 1.96875 0 1.722656 -0.0976562 1.546875 -0.296875 C 1.378906 -0.503906 1.296875 -0.789062 1.296875 -1.15625 L 1.296875 -4.046875 L 0.453125 -4.046875 L 0.453125 -4.453125 L 1.8125 -4.453125 Z "/>
</g>
<g id="glyph-0-11">
<path d="M 3.1875 -3.1875 L 2.046875 -1.65625 L 3.296875 0 L 2.6875 0 L 1.75 -1.28125 L 0.828125 0 L 0.21875 0 L 1.46875 -1.65625 L 0.328125 -3.1875 L 0.90625 -3.1875 L 1.75 -2.03125 L 2.59375 -3.1875 Z "/>
</g>
<g id="glyph-0-12">
<path d="M 0.734375 -3.1875 L 2.0625 -3.1875 L 2.0625 -0.40625 L 3.109375 -0.40625 L 3.109375 0 L 0.5 0 L 0.5 -0.40625 L 1.546875 -0.40625 L 1.546875 -2.78125 L 0.734375 -2.78125 Z M 1.546875 -4.421875 L 2.0625 -4.421875 L 2.0625 -3.765625 L 1.546875 -3.765625 Z "/>
</g>
<g id="glyph-0-13">
<path d="M 1.75 -2.8125 C 1.488281 -2.8125 1.285156 -2.707031 1.140625 -2.5 C 1.003906 -2.300781 0.9375 -2 0.9375 -1.59375 C 0.9375 -1.1875 1.003906 -0.878906 1.140625 -0.671875 C 1.285156 -0.460938 1.488281 -0.359375 1.75 -0.359375 C 2.019531 -0.359375 2.222656 -0.460938 2.359375 -0.671875 C 2.492188 -0.878906 2.5625 -1.1875 2.5625 -1.59375 C 2.5625 -2 2.492188 -2.300781 2.359375 -2.5 C 2.222656 -2.707031 2.019531 -2.8125 1.75 -2.8125 Z M 1.75 -3.265625 C 2.195312 -3.265625 2.535156 -3.117188 2.765625 -2.828125 C 3.003906 -2.546875 3.125 -2.132812 3.125 -1.59375 C 3.125 -1.050781 3.003906 -0.632812 2.765625 -0.34375 C 2.535156 -0.0625 2.195312 0.078125 1.75 0.078125 C 1.3125 0.078125 0.972656 -0.0625 0.734375 -0.34375 C 0.503906 -0.632812 0.390625 -1.050781 0.390625 -1.59375 C 0.390625 -2.132812 0.503906 -2.546875 0.734375 -2.828125 C 0.972656 -3.117188 1.3125 -3.265625 1.75 -3.265625 Z "/>
</g>
</g>
</defs>
<g fill="rgb(96.862745%, 98.431373%, 100%)" fill-opacity="1">
<use xlink:href="#glyph-0-0" x="30" y="25.414062"/>
<use xlink:href="#glyph-0-1" x="34" y="25.414062"/>
<use xlink:href="#glyph-0-2" x="38" y="25.414062"/>
<use xlink:href="#glyph-0-3" x="42" y="25.414062"/>
<use xlink:href="#glyph-0-1" x="46" y="25.414062"/>
<use xlink:href="#glyph-0-4" x="50" y="25.414062"/>
<use xlink:href="#glyph-0-5" x="54" y="25.414062"/>
<use xlink:href="#glyph-0-5" x="58" y="25.414062"/>
<use xlink:href="#glyph-0-6" x="62" y="25.414062"/>
<use xlink:href="#glyph-0-7" x="66" y="25.414062"/>
<use xlink:href="#glyph-0-6" x="70" y="25.414062"/>
<use xlink:href="#glyph-0-1" x="74" y="25.414062"/>
<use xlink:href="#glyph-0-8" x="78" y="25.414062"/>
<use xlink:href="#glyph-0-6" x="82" y="25.414062"/>
<use xlink:href="#glyph-0-9" x="86" y="25.414062"/>
<use xlink:href="#glyph-0-10" x="90" y="25.414062"/>
<use xlink:href="#glyph-0-6" x="94" y="25.414062"/>
<use xlink:href="#glyph-0-11" x="98" y="25.414062"/>
<use xlink:href="#glyph-0-12" x="102" y="25.414062"/>
<use xlink:href="#glyph-0-13" x="106" y="25.414062"/>
<use xlink:href="#glyph-0-5" x="110" y="25.414062"/>
</g>
</svg>
