<?xml version="1.0" encoding="UTF-8"?>
<svg xmlns="http://www.w3.org/2000/svg" xmlns:xlink="http://www.w3.org/1999/xlink" width="1920" height="1080" viewBox="0 0 1920 1080">
<defs>
<g>
<g id="glyph-0-0">
<path d="M 0.234375 -4.0625 L 1.1875 -4.0625 L 1.671875 -2.28125 L 2.15625 -4.0625 L 3.109375 -4.0625 L 3.109375 0 L 2.421875 0 L 2.421875 -3.25 L 2 -1.46875 L 1.359375 -1.46875 L 0.921875 -3.25 L 0.921875 0 L 0.234375 0 Z "/>
</g>
<g id="glyph-0-1">
<path d="M 1.90625 -1.421875 C 1.601562 -1.421875 1.394531 -1.382812 1.28125 -1.3125 C 1.164062 -1.238281 1.109375 -1.109375 1.109375 -0.921875 C 1.109375 -0.785156 1.144531 -0.675781 1.21875 -0.59375 C 1.300781 -0.507812 1.414062 -0.46875 1.5625 -0.46875 C 1.769531 -0.46875 1.929688 -0.546875 2.046875 -0.703125 C 2.160156 -0.867188 2.21875 -1.09375 2.21875 -1.375 L 2.21875 -1.421875 Z M 3.015625 -1.734375 L 3.015625 0 L 2.21875 0 L 2.21875 -0.34375 C 2.125 -0.207031 2 -0.101562 1.84375 -0.03125 C 1.695312 0.0390625 1.535156 0.078125 1.359375 0.078125 C 1.003906 0.078125 0.726562 -0.0078125 0.53125 -0.1875 C 0.34375 -0.375 0.25 -0.632812 0.25 -0.96875 C 0.25 -1.320312 0.363281 -1.582031 0.59375 -1.75 C 0.820312 -1.914062 1.179688 -2 1.671875 -2 L 2.21875 -2 L 2.21875 -2.140625 C 2.21875 -2.265625 2.171875 -2.359375 2.078125 -2.421875 C 1.984375 -2.492188 1.847656 -2.53125 1.671875 -2.53125 C 1.472656 -2.53125 1.285156 -2.503906 1.109375 -2.453125 C 0.929688 -2.398438 0.75 -2.320312 0.5625 -2.21875 L 0.5625 -2.90625 C 0.726562 -2.976562 0.898438 -3.03125 1.078125 -3.0625 C 1.265625 -3.09375 1.460938 -3.109375 1.671875 -3.109375 C 2.160156 -3.109375 2.503906 -3.007812 2.703125 -2.8125 C 2.910156 -2.613281 3.015625 -2.253906 3.015625 -1.734375 Z "/>
</g>
<g id="glyph-0-2">
<path d="M 1.875 -3.90625 L 1.875 -3.046875 L 2.921875 -3.046875 L 2.921875 -2.4375 L 1.875 -2.4375 L 1.875 -0.984375 C 1.875 -0.847656 1.90625 -0.75 1.96875 -0.6875 C 2.039062 -0.632812 2.148438 -0.609375 2.296875 -0.609375 L 2.921875 -0.609375 L 2.921875 0 L 2.25 0 C 1.789062 0 1.476562 -0.0703125 1.3125 -0.21875 C 1.15625 -0.363281 1.078125 -0.632812 1.078125 -1.03125 L 1.078125 -2.4375 L 0.296875 -2.4375 L 0.296875 -3.046875 L 1.078125 -3.046875 L 1.078125 -3.90625 Z "/>
</g>
<g id="glyph-0-3">
<path d="M 3 -0.15625 C 2.8125 -0.0703125 2.617188 -0.015625 2.421875 0.015625 C 2.234375 0.0546875 2.03125 0.078125 1.8125 0.078125 C 1.3125 0.078125 0.925781 -0.0546875 0.65625 -0.328125 C 0.382812 -0.597656 0.25 -0.988281 0.25 -1.5 C 0.25 -2 0.378906 -2.390625 0.640625 -2.671875 C 0.898438 -2.960938 1.253906 -3.109375 1.703125 -3.109375 C 2.148438 -3.109375 2.5 -2.972656 2.75 -2.703125 C 3 -2.441406 3.125 -2.070312 3.125 -1.59375 L 3.125 -1.265625 L 1.0625 -1.265625 C 1.0625 -1.023438 1.128906 -0.84375 1.265625 -0.71875 C 1.410156 -0.601562 1.617188 -0.546875 1.890625 -0.546875 C 2.078125 -0.546875 2.257812 -0.570312 2.4375 -0.625 C 2.613281 -0.675781 2.800781 -0.757812 3 -0.875 Z M 2.3125 -1.859375 C 2.3125 -2.066406 2.257812 -2.222656 2.15625 -2.328125 C 2.050781 -2.441406 1.898438 -2.5 1.703125 -2.5 C 1.515625 -2.5 1.363281 -2.441406 1.25 -2.328125 C 1.144531 -2.222656 1.082031 -2.066406 1.0625 -1.859375 Z "/>
</g>
<g id="glyph-0-4">
<path d="M 3.125 -2.203125 C 3.039062 -2.285156 2.9375 -2.34375 2.8125 -2.375 C 2.695312 -2.414062 2.570312 -2.4375 2.4375 -2.4375 C 2.269531 -2.4375 2.125 -2.40625 2 -2.34375 C 1.875 -2.289062 1.773438 -2.207031 1.703125 -2.09375 C 1.660156 -2.03125 1.628906 -1.945312 1.609375 -1.84375 C 1.597656 -1.75 1.59375 -1.601562 1.59375 -1.40625 L 1.59375 0 L 0.796875 0 L 0.796875 -3.046875 L 1.59375 -3.046875 L 1.59375 -2.5625 C 1.664062 -2.738281 1.78125 -2.875 1.9375 -2.96875 C 2.101562 -3.0625 2.296875 -3.109375 2.515625 -3.109375 C 2.617188 -3.109375 2.722656 -3.09375 2.828125 -3.0625 C 2.929688 -3.039062 3.03125 -3.003906 3.125 -2.953125 Z "/>
</g>
<g id="glyph-0-5">
<path d="M 0.59375 -3.046875 L 2.171875 -3.046875 L 2.171875 -0.609375 L 3.171875 -0.609375 L 3.171875 0 L 0.390625 0 L 0.390625 -0.609375 L 1.375 -0.609375 L 1.375 -2.4375 L 0.59375 -2.4375 Z M 1.375 -4.515625 L 2.171875 -4.515625 L 2.171875 -3.59375 L 1.375 -3.59375 Z "/>
</g>
<g id="glyph-0-6">
<path d="M 1.046875 -1.265625 L 1.046875 -3.609375 L 0.25 -3.609375 L 0.25 -4.21875 L 1.84375 -4.21875 L 1.84375 -1.265625 C 1.84375 -1.023438 1.878906 -0.851562 1.953125 -0.75 C 2.023438 -0.65625 2.148438 -0.609375 2.328125 -0.609375 L 2.96875 -0.609375 L 2.96875 0 L 2.109375 0 C 1.734375 0 1.460938 -0.0976562 1.296875 -0.296875 C 1.128906 -0.492188 1.046875 -0.816406 1.046875 -1.265625 Z "/>
</g>
</g>
</defs>
<g fill="rgb(51.372549%, 75.686275%, 40.392157%)" fill-opacity="1">
<use xlink:href="#glyph-0-0" x="30" y="25.157227"/>
<use xlink:href="#glyph-0-1" x="33" y="25.157227"/>
<use xlink:href="#glyph-0-2" x="36" y="25.157227"/>
<use xlink:href="#glyph-0-3" x="39" y="25.157227"/>
<use xlink:href="#glyph-0-4" x="42" y="25.157227"/>
<use xlink:href="#glyph-0-5" x="45" y="25.157227"/>
<use xlink:href="#glyph-0-1" x="48" y="25.157227"/>
<use xlink:href="#glyph-0-6" x="51" y="25.157227"/>
</g>
</svg>
