<?xml version="1.0" encoding="UTF-8"?>
<svg xmlns="http://www.w3.org/2000/svg" xmlns:xlink="http://www.w3.org/1999/xlink" width="1920" height="1080" viewBox="0 0 1920 1080">
<defs>
<g>
<g id="glyph-0-0">
<path d="M 2.53125 -3.078125 L 1.796875 -3.078125 L 1.796875 -4.28125 L 2.53125 -4.28125 C 2.863281 -4.28125 3.125 -4.34375 3.3125 -4.46875 C 3.5 -4.601562 3.59375 -4.796875 3.59375 -5.046875 C 3.59375 -5.296875 3.5 -5.492188 3.3125 -5.640625 C 3.125 -5.785156 2.863281 -5.859375 2.53125 -5.859375 C 2.269531 -5.859375 1.992188 -5.820312 1.703125 -5.75 C 1.410156 -5.6875 1.101562 -5.59375 0.78125 -5.46875 L 0.78125 -6.703125 C 1.101562 -6.804688 1.414062 -6.878906 1.71875 -6.921875 C 2.019531 -6.972656 2.316406 -7 2.609375 -7 C 3.328125 -7 3.890625 -6.84375 4.296875 -6.53125 C 4.703125 -6.21875 4.90625 -5.78125 4.90625 -5.21875 C 4.90625 -4.8125 4.785156 -4.476562 4.546875 -4.21875 C 4.316406 -3.957031 3.988281 -3.785156 3.5625 -3.703125 C 4.050781 -3.617188 4.421875 -3.421875 4.671875 -3.109375 C 4.929688 -2.804688 5.0625 -2.410156 5.0625 -1.921875 C 5.0625 -1.253906 4.847656 -0.742188 4.421875 -0.390625 C 3.992188 -0.0351562 3.375 0.140625 2.5625 0.140625 C 2.21875 0.140625 1.875 0.109375 1.53125 0.046875 C 1.195312 -0.015625 0.878906 -0.0976562 0.578125 -0.203125 L 0.578125 -1.46875 C 0.867188 -1.320312 1.179688 -1.210938 1.515625 -1.140625 C 1.847656 -1.066406 2.195312 -1.03125 2.5625 -1.03125 C 2.9375 -1.03125 3.226562 -1.113281 3.4375 -1.28125 C 3.65625 -1.457031 3.765625 -1.6875 3.765625 -1.96875 C 3.765625 -2.320312 3.65625 -2.59375 3.4375 -2.78125 C 3.226562 -2.976562 2.925781 -3.078125 2.53125 -3.078125 Z "/>
</g>
<g id="glyph-0-1">
<path d="M 1.421875 -7.15625 L 2.46875 -7.15625 C 2.957031 -6.457031 3.320312 -5.757812 3.5625 -5.0625 C 3.800781 -4.375 3.921875 -3.675781 3.921875 -2.96875 C 3.921875 -2.25 3.800781 -1.539062 3.5625 -0.84375 C 3.320312 -0.15625 2.957031 0.539062 2.46875 1.25 L 1.421875 1.25 C 1.828125 0.507812 2.128906 -0.203125 2.328125 -0.890625 C 2.523438 -1.585938 2.625 -2.28125 2.625 -2.96875 C 2.625 -3.65625 2.523438 -4.34375 2.328125 -5.03125 C 2.128906 -5.71875 1.828125 -6.425781 1.421875 -7.15625 Z "/>
</g>
<g id="glyph-0-2">
</g>
<g id="glyph-0-3">
<path d="M 2.84375 -1.140625 L 4.046875 -6.875 L 5.421875 -6.875 L 3.78125 0 L 1.90625 0 L 0.265625 -6.875 L 1.625 -6.875 Z "/>
</g>
<g id="glyph-0-4">
<path d="M 1.015625 -5.15625 L 3.6875 -5.15625 L 3.6875 -1.03125 L 5.375 -1.03125 L 5.375 0 L 0.65625 0 L 0.65625 -1.03125 L 2.34375 -1.03125 L 2.34375 -4.125 L 1.015625 -4.125 Z M 2.34375 -7.671875 L 3.6875 -7.671875 L 3.6875 -6.09375 L 2.34375 -6.09375 Z "/>
</g>
<g id="glyph-0-5">
<path d="M 5.078125 -0.25 C 4.765625 -0.125 4.441406 -0.03125 4.109375 0.03125 C 3.785156 0.101562 3.445312 0.140625 3.09375 0.140625 C 2.226562 0.140625 1.566406 -0.0859375 1.109375 -0.546875 C 0.648438 -1.015625 0.421875 -1.6875 0.421875 -2.5625 C 0.421875 -3.394531 0.640625 -4.054688 1.078125 -4.546875 C 1.515625 -5.035156 2.113281 -5.28125 2.875 -5.28125 C 3.644531 -5.28125 4.238281 -5.050781 4.65625 -4.59375 C 5.082031 -4.144531 5.296875 -3.507812 5.296875 -2.6875 L 5.296875 -2.140625 L 1.796875 -2.140625 C 1.796875 -1.734375 1.914062 -1.429688 2.15625 -1.234375 C 2.394531 -1.035156 2.75 -0.9375 3.21875 -0.9375 C 3.53125 -0.9375 3.832031 -0.976562 4.125 -1.0625 C 4.425781 -1.15625 4.742188 -1.300781 5.078125 -1.5 Z M 3.9375 -3.15625 C 3.925781 -3.507812 3.832031 -3.773438 3.65625 -3.953125 C 3.476562 -4.140625 3.21875 -4.234375 2.875 -4.234375 C 2.570312 -4.234375 2.328125 -4.140625 2.140625 -3.953125 C 1.953125 -3.765625 1.84375 -3.5 1.8125 -3.15625 Z "/>
</g>
<g id="glyph-0-6">
<path d="M 1.78125 -2.15625 L 1.78125 -6.140625 L 0.421875 -6.140625 L 0.421875 -7.171875 L 3.140625 -7.171875 L 3.140625 -2.15625 C 3.140625 -1.75 3.203125 -1.457031 3.328125 -1.28125 C 3.453125 -1.113281 3.664062 -1.03125 3.96875 -1.03125 L 5.046875 -1.03125 L 5.046875 0 L 3.578125 0 C 2.941406 0 2.484375 -0.164062 2.203125 -0.5 C 1.921875 -0.832031 1.78125 -1.382812 1.78125 -2.15625 Z "/>
</g>
<g id="glyph-0-7">
<path d="M 2.84375 -5.640625 L 2.203125 -2.8125 L 3.484375 -2.8125 Z M 2.015625 -6.875 L 3.671875 -6.875 L 5.53125 0 L 4.171875 0 L 3.75 -1.703125 L 1.921875 -1.703125 L 1.515625 0 L 0.15625 0 Z "/>
</g>
<g id="glyph-0-8">
<path d="M 3.171875 -6.625 L 3.171875 -5.15625 L 4.9375 -5.15625 L 4.9375 -4.125 L 3.171875 -4.125 L 3.171875 -1.6875 C 3.171875 -1.457031 3.226562 -1.289062 3.34375 -1.1875 C 3.457031 -1.082031 3.644531 -1.03125 3.90625 -1.03125 L 4.9375 -1.03125 L 4.9375 0 L 3.8125 0 C 3.039062 0 2.515625 -0.117188 2.234375 -0.359375 C 1.960938 -0.609375 1.828125 -1.070312 1.828125 -1.75 L 1.828125 -4.125 L 0.515625 -4.125 L 0.515625 -5.15625 L 1.828125 -5.15625 L 1.828125 -6.625 Z "/>
</g>
<g id="glyph-0-9">
<path d="M 2.84375 -4.1875 C 2.519531 -4.1875 2.265625 -4.046875 2.078125 -3.765625 C 1.890625 -3.484375 1.796875 -3.085938 1.796875 -2.578125 C 1.796875 -2.066406 1.890625 -1.671875 2.078125 -1.390625 C 2.265625 -1.109375 2.519531 -0.96875 2.84375 -0.96875 C 3.164062 -0.96875 3.414062 -1.109375 3.59375 -1.390625 C 3.78125 -1.671875 3.875 -2.066406 3.875 -2.578125 C 3.875 -3.085938 3.78125 -3.484375 3.59375 -3.765625 C 3.414062 -4.046875 3.164062 -4.1875 2.84375 -4.1875 Z M 0.453125 -2.578125 C 0.453125 -3.410156 0.664062 -4.066406 1.09375 -4.546875 C 1.53125 -5.035156 2.113281 -5.28125 2.84375 -5.28125 C 3.570312 -5.28125 4.148438 -5.035156 4.578125 -4.546875 C 5.015625 -4.066406 5.234375 -3.410156 5.234375 -2.578125 C 5.234375 -1.742188 5.015625 -1.082031 4.578125 -0.59375 C 4.148438 -0.101562 3.570312 0.140625 2.84375 0.140625 C 2.113281 0.140625 1.53125 -0.101562 1.09375 -0.59375 C 0.664062 -1.082031 0.453125 -1.742188 0.453125 -2.578125 Z "/>
</g>
<g id="glyph-0-10">
<path d="M 3.171875 -4.640625 C 3.273438 -4.859375 3.40625 -5.019531 3.5625 -5.125 C 3.71875 -5.226562 3.910156 -5.28125 4.140625 -5.28125 C 4.585938 -5.28125 4.894531 -5.125 5.0625 -4.8125 C 5.238281 -4.507812 5.328125 -3.875 5.328125 -2.90625 L 5.328125 0 L 4.21875 0 L 4.21875 -3.3125 C 4.21875 -3.695312 4.1875 -3.953125 4.125 -4.078125 C 4.070312 -4.210938 3.96875 -4.28125 3.8125 -4.28125 C 3.65625 -4.28125 3.546875 -4.210938 3.484375 -4.078125 C 3.421875 -3.941406 3.390625 -3.6875 3.390625 -3.3125 L 3.390625 0 L 2.296875 0 L 2.296875 -3.3125 C 2.296875 -3.6875 2.265625 -3.941406 2.203125 -4.078125 C 2.148438 -4.210938 2.046875 -4.28125 1.890625 -4.28125 C 1.734375 -4.28125 1.625 -4.210938 1.5625 -4.078125 C 1.507812 -3.953125 1.484375 -3.695312 1.484375 -3.3125 L 1.484375 0 L 0.375 0 L 0.375 -5.15625 L 1.359375 -5.15625 L 1.359375 -4.625 C 1.429688 -4.832031 1.550781 -4.992188 1.71875 -5.109375 C 1.894531 -5.222656 2.085938 -5.28125 2.296875 -5.28125 C 2.503906 -5.28125 2.691406 -5.21875 2.859375 -5.09375 C 3.035156 -4.96875 3.140625 -4.816406 3.171875 -4.640625 Z "/>
</g>
<g id="glyph-0-11">
<path d="M 0.859375 -5.15625 L 4.984375 -5.15625 L 4.984375 -4.109375 L 2.265625 -1.015625 L 4.984375 -1.015625 L 4.984375 0 L 0.75 0 L 0.75 -1.0625 L 3.46875 -4.15625 L 0.859375 -4.15625 Z "/>
</g>
<g id="glyph-0-12">
<path d="M 0.734375 -1.796875 L 0.734375 -5.15625 L 2.09375 -5.15625 L 2.09375 -2.015625 C 2.09375 -1.640625 2.144531 -1.367188 2.25 -1.203125 C 2.351562 -1.046875 2.523438 -0.96875 2.765625 -0.96875 C 3.003906 -0.96875 3.191406 -1.078125 3.328125 -1.296875 C 3.472656 -1.515625 3.546875 -1.816406 3.546875 -2.203125 L 3.546875 -5.15625 L 4.890625 -5.15625 L 4.890625 0 L 3.546875 0 L 3.546875 -0.765625 C 3.441406 -0.484375 3.273438 -0.257812 3.046875 -0.09375 C 2.816406 0.0625 2.539062 0.140625 2.21875 0.140625 C 1.726562 0.140625 1.359375 -0.0195312 1.109375 -0.34375 C 0.859375 -0.675781 0.734375 -1.160156 0.734375 -1.796875 Z "/>
</g>
<g id="glyph-0-13">
<path d="M 4.5625 -5 L 4.5625 -3.8125 C 4.3125 -3.976562 4.050781 -4.097656 3.78125 -4.171875 C 3.519531 -4.253906 3.253906 -4.296875 2.984375 -4.296875 C 2.679688 -4.296875 2.453125 -4.253906 2.296875 -4.171875 C 2.140625 -4.085938 2.0625 -3.957031 2.0625 -3.78125 C 2.0625 -3.539062 2.394531 -3.34375 3.0625 -3.1875 L 3.109375 -3.171875 L 3.5 -3.078125 C 3.988281 -2.960938 4.347656 -2.773438 4.578125 -2.515625 C 4.804688 -2.253906 4.921875 -1.898438 4.921875 -1.453125 C 4.921875 -0.921875 4.742188 -0.519531 4.390625 -0.25 C 4.046875 0.0078125 3.519531 0.140625 2.8125 0.140625 C 2.507812 0.140625 2.191406 0.109375 1.859375 0.046875 C 1.535156 -0.00390625 1.207031 -0.0820312 0.875 -0.1875 L 0.875 -1.375 C 1.175781 -1.195312 1.476562 -1.0625 1.78125 -0.96875 C 2.09375 -0.882812 2.394531 -0.84375 2.6875 -0.84375 C 3 -0.84375 3.234375 -0.890625 3.390625 -0.984375 C 3.554688 -1.078125 3.640625 -1.210938 3.640625 -1.390625 C 3.640625 -1.554688 3.582031 -1.6875 3.46875 -1.78125 C 3.351562 -1.875 3.082031 -1.972656 2.65625 -2.078125 L 2.28125 -2.15625 C 1.757812 -2.28125 1.378906 -2.460938 1.140625 -2.703125 C 0.910156 -2.953125 0.796875 -3.285156 0.796875 -3.703125 C 0.796875 -4.203125 0.972656 -4.585938 1.328125 -4.859375 C 1.691406 -5.140625 2.195312 -5.28125 2.84375 -5.28125 C 3.132812 -5.28125 3.425781 -5.253906 3.71875 -5.203125 C 4.007812 -5.160156 4.289062 -5.09375 4.5625 -5 Z "/>
</g>
<g id="glyph-0-14">
<path d="M 3.21875 -2.421875 C 2.71875 -2.421875 2.367188 -2.351562 2.171875 -2.21875 C 1.972656 -2.09375 1.875 -1.875 1.875 -1.5625 C 1.875 -1.332031 1.941406 -1.144531 2.078125 -1 C 2.210938 -0.863281 2.398438 -0.796875 2.640625 -0.796875 C 2.992188 -0.796875 3.269531 -0.929688 3.46875 -1.203125 C 3.664062 -1.472656 3.765625 -1.847656 3.765625 -2.328125 L 3.765625 -2.421875 Z M 5.109375 -2.9375 L 5.109375 0 L 3.765625 0 L 3.765625 -0.578125 C 3.597656 -0.347656 3.382812 -0.171875 3.125 -0.046875 C 2.875 0.078125 2.597656 0.140625 2.296875 0.140625 C 1.710938 0.140625 1.253906 -0.015625 0.921875 -0.328125 C 0.597656 -0.640625 0.4375 -1.070312 0.4375 -1.625 C 0.4375 -2.226562 0.628906 -2.671875 1.015625 -2.953125 C 1.410156 -3.242188 2.015625 -3.390625 2.828125 -3.390625 L 3.765625 -3.390625 L 3.765625 -3.625 C 3.765625 -3.84375 3.6875 -4.003906 3.53125 -4.109375 C 3.375 -4.222656 3.140625 -4.28125 2.828125 -4.28125 C 2.503906 -4.28125 2.191406 -4.238281 1.890625 -4.15625 C 1.585938 -4.082031 1.269531 -3.957031 0.9375 -3.78125 L 0.9375 -4.921875 C 1.238281 -5.046875 1.539062 -5.132812 1.84375 -5.1875 C 2.15625 -5.25 2.484375 -5.28125 2.828125 -5.28125 C 3.671875 -5.28125 4.257812 -5.109375 4.59375 -4.765625 C 4.9375 -4.429688 5.109375 -3.820312 5.109375 -2.9375 Z "/>
</g>
<g id="glyph-0-15">
<path d="M 4.9375 -3.34375 L 4.9375 0 L 3.59375 0 L 3.59375 -3.140625 C 3.59375 -3.515625 3.539062 -3.78125 3.4375 -3.9375 C 3.332031 -4.101562 3.160156 -4.1875 2.921875 -4.1875 C 2.671875 -4.1875 2.476562 -4.078125 2.34375 -3.859375 C 2.207031 -3.640625 2.140625 -3.335938 2.140625 -2.953125 L 2.140625 0 L 0.796875 0 L 0.796875 -5.15625 L 2.140625 -5.15625 L 2.140625 -4.390625 C 2.234375 -4.671875 2.394531 -4.890625 2.625 -5.046875 C 2.851562 -5.203125 3.128906 -5.28125 3.453125 -5.28125 C 3.941406 -5.28125 4.3125 -5.117188 4.5625 -4.796875 C 4.8125 -4.472656 4.9375 -3.988281 4.9375 -3.34375 Z "/>
</g>
<g id="glyph-0-16">
<path d="M 5.3125 -5.15625 L 3.671875 0 L 2.015625 0 L 0.375 -5.15625 L 1.734375 -5.15625 L 2.84375 -1.140625 L 3.9375 -5.15625 Z "/>
</g>
<g id="glyph-0-17">
<path d="M 5.296875 -3.734375 C 5.148438 -3.867188 4.976562 -3.96875 4.78125 -4.03125 C 4.582031 -4.101562 4.367188 -4.140625 4.140625 -4.140625 C 3.847656 -4.140625 3.59375 -4.085938 3.375 -3.984375 C 3.164062 -3.890625 3.003906 -3.75 2.890625 -3.5625 C 2.816406 -3.4375 2.765625 -3.289062 2.734375 -3.125 C 2.703125 -2.96875 2.6875 -2.71875 2.6875 -2.375 L 2.6875 0 L 1.34375 0 L 1.34375 -5.15625 L 2.6875 -5.15625 L 2.6875 -4.359375 C 2.820312 -4.648438 3.023438 -4.875 3.296875 -5.03125 C 3.566406 -5.195312 3.890625 -5.28125 4.265625 -5.28125 C 4.441406 -5.28125 4.617188 -5.257812 4.796875 -5.21875 C 4.972656 -5.175781 5.140625 -5.109375 5.296875 -5.015625 Z "/>
</g>
<g id="glyph-0-18">
<path d="M 4.890625 -0.265625 C 4.660156 -0.128906 4.414062 -0.03125 4.15625 0.03125 C 3.894531 0.101562 3.613281 0.140625 3.3125 0.140625 C 2.519531 0.140625 1.898438 -0.0976562 1.453125 -0.578125 C 1.003906 -1.054688 0.78125 -1.722656 0.78125 -2.578125 C 0.78125 -3.429688 1.003906 -4.097656 1.453125 -4.578125 C 1.898438 -5.054688 2.523438 -5.296875 3.328125 -5.296875 C 3.597656 -5.296875 3.859375 -5.257812 4.109375 -5.1875 C 4.367188 -5.125 4.628906 -5.03125 4.890625 -4.90625 L 4.890625 -3.65625 C 4.691406 -3.832031 4.472656 -3.960938 4.234375 -4.046875 C 4.003906 -4.140625 3.765625 -4.1875 3.515625 -4.1875 C 3.078125 -4.1875 2.738281 -4.046875 2.5 -3.765625 C 2.257812 -3.484375 2.140625 -3.085938 2.140625 -2.578125 C 2.140625 -2.054688 2.257812 -1.65625 2.5 -1.375 C 2.738281 -1.101562 3.078125 -0.96875 3.515625 -0.96875 C 3.773438 -0.96875 4.015625 -1.007812 4.234375 -1.09375 C 4.460938 -1.1875 4.679688 -1.320312 4.890625 -1.5 Z "/>
</g>
<g id="glyph-0-19">
<path d="M 4.9375 -3.34375 L 4.9375 0 L 3.59375 0 L 3.59375 -3.140625 C 3.59375 -3.515625 3.539062 -3.78125 3.4375 -3.9375 C 3.332031 -4.09375 3.160156 -4.171875 2.921875 -4.171875 C 2.671875 -4.171875 2.476562 -4.0625 2.34375 -3.84375 C 2.207031 -3.632812 2.140625 -3.335938 2.140625 -2.953125 L 2.140625 0 L 0.796875 0 L 0.796875 -7.171875 L 2.140625 -7.171875 L 2.140625 -4.390625 C 2.234375 -4.671875 2.394531 -4.890625 2.625 -5.046875 C 2.851562 -5.203125 3.128906 -5.28125 3.453125 -5.28125 C 3.941406 -5.28125 4.3125 -5.117188 4.5625 -4.796875 C 4.8125 -4.472656 4.9375 -3.988281 4.9375 -3.34375 Z "/>
</g>
<g id="glyph-0-20">
<path d="M 3.921875 -2.5625 C 3.921875 -3.0625 3.835938 -3.453125 3.671875 -3.734375 C 3.503906 -4.015625 3.273438 -4.15625 2.984375 -4.15625 C 2.691406 -4.15625 2.457031 -4.015625 2.28125 -3.734375 C 2.113281 -3.453125 2.03125 -3.0625 2.03125 -2.5625 C 2.03125 -2.0625 2.113281 -1.671875 2.28125 -1.390625 C 2.457031 -1.109375 2.691406 -0.96875 2.984375 -0.96875 C 3.273438 -0.96875 3.503906 -1.109375 3.671875 -1.390625 C 3.835938 -1.671875 3.921875 -2.0625 3.921875 -2.5625 Z M 2.03125 -4.421875 C 2.195312 -4.710938 2.390625 -4.925781 2.609375 -5.0625 C 2.828125 -5.207031 3.078125 -5.28125 3.359375 -5.28125 C 3.972656 -5.28125 4.441406 -5.046875 4.765625 -4.578125 C 5.097656 -4.117188 5.265625 -3.453125 5.265625 -2.578125 C 5.265625 -1.710938 5.101562 -1.039062 4.78125 -0.5625 C 4.457031 -0.09375 4 0.140625 3.40625 0.140625 C 3.09375 0.140625 2.820312 0.0664062 2.59375 -0.078125 C 2.363281 -0.234375 2.175781 -0.460938 2.03125 -0.765625 L 2.03125 0 L 0.6875 0 L 0.6875 -7.171875 L 2.03125 -7.171875 Z "/>
</g>
<g id="glyph-0-21">
<path d="M 3.640625 -4.421875 L 3.640625 -7.171875 L 4.984375 -7.171875 L 4.984375 0 L 3.640625 0 L 3.640625 -0.765625 C 3.492188 -0.460938 3.304688 -0.234375 3.078125 -0.078125 C 2.847656 0.0664062 2.582031 0.140625 2.28125 0.140625 C 1.6875 0.140625 1.226562 -0.09375 0.90625 -0.5625 C 0.582031 -1.039062 0.421875 -1.710938 0.421875 -2.578125 C 0.421875 -3.453125 0.582031 -4.117188 0.90625 -4.578125 C 1.238281 -5.046875 1.710938 -5.28125 2.328125 -5.28125 C 2.597656 -5.28125 2.84375 -5.207031 3.0625 -5.0625 C 3.28125 -4.925781 3.472656 -4.710938 3.640625 -4.421875 Z M 1.765625 -2.5625 C 1.765625 -2.0625 1.847656 -1.671875 2.015625 -1.390625 C 2.179688 -1.109375 2.410156 -0.96875 2.703125 -0.96875 C 2.992188 -0.96875 3.222656 -1.109375 3.390625 -1.390625 C 3.554688 -1.671875 3.640625 -2.0625 3.640625 -2.5625 C 3.640625 -3.0625 3.554688 -3.453125 3.390625 -3.734375 C 3.222656 -4.015625 2.992188 -4.15625 2.703125 -4.15625 C 2.410156 -4.15625 2.179688 -4.015625 2.015625 -3.734375 C 1.847656 -3.453125 1.765625 -3.0625 1.765625 -2.5625 Z "/>
</g>
<g id="glyph-0-22">
<path d="M 2.109375 -5.734375 L 2.109375 -3.71875 L 2.65625 -3.71875 C 3.101562 -3.71875 3.414062 -3.789062 3.59375 -3.9375 C 3.78125 -4.09375 3.875 -4.359375 3.875 -4.734375 C 3.875 -5.097656 3.78125 -5.351562 3.59375 -5.5 C 3.414062 -5.65625 3.101562 -5.734375 2.65625 -5.734375 Z M 0.75 -6.875 L 2.609375 -6.875 C 3.554688 -6.875 4.238281 -6.703125 4.65625 -6.359375 C 5.070312 -6.023438 5.28125 -5.484375 5.28125 -4.734375 C 5.28125 -3.972656 5.070312 -3.421875 4.65625 -3.078125 C 4.238281 -2.742188 3.554688 -2.578125 2.609375 -2.578125 L 2.109375 -2.578125 L 2.109375 0 L 0.75 0 Z "/>
</g>
</g>
</defs>
<g fill="rgb(89.803922%, 90.588235%, 92.156863%)" fill-opacity="1">
<use xlink:href="#glyph-0-0" x="30" y="28.766602"/>
<use xlink:href="#glyph-0-1" x="36" y="28.766602"/>
<use xlink:href="#glyph-0-2" x="42" y="28.766602"/>
<use xlink:href="#glyph-0-3" x="48" y="28.766602"/>
<use xlink:href="#glyph-0-4" x="54" y="28.766602"/>
<use xlink:href="#glyph-0-5" x="60" y="28.766602"/>
<use xlink:href="#glyph-0-6" x="66" y="28.766602"/>
<use xlink:href="#glyph-0-5" x="72" y="28.766602"/>
<use xlink:href="#glyph-0-2" x="78" y="28.766602"/>
<use xlink:href="#glyph-0-7" x="84" y="28.766602"/>
<use xlink:href="#glyph-0-8" x="90" y="28.766602"/>
<use xlink:href="#glyph-0-9" x="96" y="28.766602"/>
<use xlink:href="#glyph-0-10" x="102" y="28.766602"/>
<use xlink:href="#glyph-0-5" x="108" y="28.766602"/>
<use xlink:href="#glyph-0-2" x="114" y="28.766602"/>
<use xlink:href="#glyph-0-11" x="120" y="28.766602"/>
<use xlink:href="#glyph-0-12" x="126" y="28.766602"/>
<use xlink:href="#glyph-0-13" x="132" y="28.766602"/>
<use xlink:href="#glyph-0-14" x="138" y="28.766602"/>
<use xlink:href="#glyph-0-10" x="144" y="28.766602"/>
<use xlink:href="#glyph-0-10" x="150" y="28.766602"/>
<use xlink:href="#glyph-0-5" x="156" y="28.766602"/>
<use xlink:href="#glyph-0-15" x="162" y="28.766602"/>
<use xlink:href="#glyph-0-2" x="168" y="28.766602"/>
<use xlink:href="#glyph-0-16" x="174" y="28.766602"/>
<use xlink:href="#glyph-0-5" x="180" y="28.766602"/>
<use xlink:href="#glyph-0-17" x="186" y="28.766602"/>
<use xlink:href="#glyph-0-13" x="192" y="28.766602"/>
<use xlink:href="#glyph-0-18" x="198" y="28.766602"/>
<use xlink:href="#glyph-0-19" x="204" y="28.766602"/>
<use xlink:href="#glyph-0-4" x="210" y="28.766602"/>
<use xlink:href="#glyph-0-5" x="216" y="28.766602"/>
<use xlink:href="#glyph-0-20" x="222" y="28.766602"/>
<use xlink:href="#glyph-0-5" x="228" y="28.766602"/>
<use xlink:href="#glyph-0-15" x="234" y="28.766602"/>
<use xlink:href="#glyph-0-2" x="240" y="28.766602"/>
<use xlink:href="#glyph-0-21" x="246" y="28.766602"/>
<use xlink:href="#glyph-0-4" x="252" y="28.766602"/>
<use xlink:href="#glyph-0-5" x="258" y="28.766602"/>
<use xlink:href="#glyph-0-2" x="264" y="28.766602"/>
<use xlink:href="#glyph-0-22" x="270" y="28.766602"/>
<use xlink:href="#glyph-0-19" x="276" y="28.766602"/>
<use xlink:href="#glyph-0-14" x="282" y="28.766602"/>
<use xlink:href="#glyph-0-13" x="288" y="28.766602"/>
<use xlink:href="#glyph-0-5" x="294" y="28.766602"/>
</g>
</svg>
