<?xml version="1.0" encoding="UTF-8"?>
<svg xmlns="http://www.w3.org/2000/svg" xmlns:xlink="http://www.w3.org/1999/xlink" width="1920" height="1080" viewBox="0 0 1920 1080">
<defs>
<g>
<g id="glyph-0-0">
<path d="M 0.84375 -0.53125 L 1.828125 -0.53125 L 1.828125 -4.09375 L 0.765625 -3.859375 L 0.765625 -4.421875 L 1.8125 -4.65625 L 2.453125 -4.65625 L 2.453125 -0.53125 L 3.40625 -0.53125 L 3.40625 0 L 0.84375 0 Z "/>
</g>
<g id="glyph-0-1">
<path d="M 1.53125 -0.953125 L 2.3125 -0.953125 L 2.3125 0 L 1.53125 0 Z "/>
</g>
<g id="glyph-0-2">
</g>
<g id="glyph-0-3">
<path d="M 0.671875 -4.65625 L 1.296875 -4.65625 L 1.296875 -0.53125 L 3.546875 -0.53125 L 3.546875 0 L 0.671875 0 Z "/>
</g>
<g id="glyph-0-4">
<path d="M 0.796875 -3.5 L 2.265625 -3.5 L 2.265625 -0.453125 L 3.40625 -0.453125 L 3.40625 0 L 0.5625 0 L 0.5625 -0.453125 L 1.6875 -0.453125 L 1.6875 -3.046875 L 0.796875 -3.046875 Z M 1.6875 -4.859375 L 2.265625 -4.859375 L 2.265625 -4.125 L 1.6875 -4.125 Z "/>
</g>
<g id="glyph-0-5">
<path d="M 3.3125 -0.171875 C 3.15625 -0.0859375 2.992188 -0.0234375 2.828125 0.015625 C 2.671875 0.0664062 2.503906 0.09375 2.328125 0.09375 C 1.785156 0.09375 1.363281 -0.0664062 1.0625 -0.390625 C 0.757812 -0.722656 0.609375 -1.175781 0.609375 -1.75 C 0.609375 -2.320312 0.757812 -2.769531 1.0625 -3.09375 C 1.363281 -3.414062 1.785156 -3.578125 2.328125 -3.578125 C 2.503906 -3.578125 2.671875 -3.554688 2.828125 -3.515625 C 2.984375 -3.472656 3.144531 -3.40625 3.3125 -3.3125 L 3.3125 -2.703125 C 3.15625 -2.835938 3 -2.9375 2.84375 -3 C 2.695312 -3.0625 2.523438 -3.09375 2.328125 -3.09375 C 1.972656 -3.09375 1.695312 -2.972656 1.5 -2.734375 C 1.3125 -2.503906 1.21875 -2.175781 1.21875 -1.75 C 1.21875 -1.3125 1.3125 -0.972656 1.5 -0.734375 C 1.695312 -0.503906 1.972656 -0.390625 2.328125 -0.390625 C 2.535156 -0.390625 2.71875 -0.421875 2.875 -0.484375 C 3.03125 -0.546875 3.175781 -0.644531 3.3125 -0.78125 Z "/>
</g>
<g id="glyph-0-6">
<path d="M 3.28125 -2.171875 L 3.28125 0 L 2.703125 0 L 2.703125 -2.171875 C 2.703125 -2.484375 2.644531 -2.710938 2.53125 -2.859375 C 2.425781 -3.003906 2.253906 -3.078125 2.015625 -3.078125 C 1.742188 -3.078125 1.535156 -2.984375 1.390625 -2.796875 C 1.253906 -2.609375 1.1875 -2.332031 1.1875 -1.96875 L 1.1875 0 L 0.609375 0 L 0.609375 -4.859375 L 1.1875 -4.859375 L 1.1875 -2.96875 C 1.28125 -3.164062 1.414062 -3.316406 1.59375 -3.421875 C 1.769531 -3.523438 1.976562 -3.578125 2.21875 -3.578125 C 2.570312 -3.578125 2.835938 -3.457031 3.015625 -3.21875 C 3.191406 -2.988281 3.28125 -2.640625 3.28125 -2.171875 Z "/>
</g>
<g id="glyph-0-7">
<path d="M 1.921875 -4.484375 L 1.921875 -3.5 L 3.21875 -3.5 L 3.21875 -3.046875 L 1.921875 -3.046875 L 1.921875 -1.15625 C 1.921875 -0.894531 1.96875 -0.710938 2.0625 -0.609375 C 2.15625 -0.503906 2.328125 -0.453125 2.578125 -0.453125 L 3.21875 -0.453125 L 3.21875 0 L 2.515625 0 C 2.085938 0 1.785156 -0.0820312 1.609375 -0.25 C 1.429688 -0.425781 1.34375 -0.726562 1.34375 -1.15625 L 1.34375 -3.046875 L 0.40625 -3.046875 L 0.40625 -3.5 L 1.34375 -3.5 L 1.34375 -4.484375 Z "/>
</g>
<g id="glyph-0-8">
<path d="M 0.28125 -1.640625 L 3.578125 -1.640625 L 3.578125 -1.09375 L 0.28125 -1.09375 Z M 0.28125 -2.90625 L 3.578125 -2.90625 L 3.578125 -2.375 L 0.28125 -2.375 Z "/>
</g>
<g id="glyph-0-9">
<path d="M 3.03125 -3.375 L 3.03125 -2.8125 C 2.875 -2.90625 2.710938 -2.972656 2.546875 -3.015625 C 2.378906 -3.066406 2.207031 -3.09375 2.03125 -3.09375 C 1.769531 -3.09375 1.570312 -3.050781 1.4375 -2.96875 C 1.3125 -2.882812 1.25 -2.757812 1.25 -2.59375 C 1.25 -2.4375 1.296875 -2.316406 1.390625 -2.234375 C 1.492188 -2.160156 1.734375 -2.085938 2.109375 -2.015625 L 2.34375 -1.96875 C 2.632812 -1.914062 2.851562 -1.804688 3 -1.640625 C 3.144531 -1.484375 3.21875 -1.273438 3.21875 -1.015625 C 3.21875 -0.671875 3.09375 -0.398438 2.84375 -0.203125 C 2.601562 -0.00390625 2.265625 0.09375 1.828125 0.09375 C 1.648438 0.09375 1.46875 0.0703125 1.28125 0.03125 C 1.09375 0 0.890625 -0.0507812 0.671875 -0.125 L 0.671875 -0.71875 C 0.878906 -0.613281 1.082031 -0.53125 1.28125 -0.46875 C 1.476562 -0.414062 1.660156 -0.390625 1.828125 -0.390625 C 2.085938 -0.390625 2.285156 -0.441406 2.421875 -0.546875 C 2.566406 -0.648438 2.640625 -0.796875 2.640625 -0.984375 C 2.640625 -1.242188 2.382812 -1.425781 1.875 -1.53125 L 1.84375 -1.53125 L 1.625 -1.578125 C 1.289062 -1.640625 1.046875 -1.75 0.890625 -1.90625 C 0.742188 -2.0625 0.671875 -2.269531 0.671875 -2.53125 C 0.671875 -2.863281 0.785156 -3.117188 1.015625 -3.296875 C 1.242188 -3.484375 1.566406 -3.578125 1.984375 -3.578125 C 2.171875 -3.578125 2.347656 -3.554688 2.515625 -3.515625 C 2.691406 -3.484375 2.863281 -3.4375 3.03125 -3.375 Z "/>
</g>
<g id="glyph-0-10">
<path d="M 0 -3.5 L 0.5625 -3.5 L 1.171875 -0.671875 L 1.671875 -2.46875 L 2.171875 -2.46875 L 2.671875 -0.671875 L 3.28125 -3.5 L 3.84375 -3.5 L 3.03125 0 L 2.484375 0 L 1.921875 -1.921875 L 1.359375 0 L 0.8125 0 Z "/>
</g>
<g id="glyph-0-11">
<path d="M 3.28125 -2.171875 L 3.28125 0 L 2.703125 0 L 2.703125 -2.171875 C 2.703125 -2.484375 2.644531 -2.710938 2.53125 -2.859375 C 2.425781 -3.003906 2.253906 -3.078125 2.015625 -3.078125 C 1.742188 -3.078125 1.535156 -2.984375 1.390625 -2.796875 C 1.253906 -2.609375 1.1875 -2.332031 1.1875 -1.96875 L 1.1875 0 L 0.609375 0 L 0.609375 -3.5 L 1.1875 -3.5 L 1.1875 -2.96875 C 1.28125 -3.164062 1.414062 -3.316406 1.59375 -3.421875 C 1.769531 -3.523438 1.976562 -3.578125 2.21875 -3.578125 C 2.570312 -3.578125 2.835938 -3.457031 3.015625 -3.21875 C 3.191406 -2.988281 3.28125 -2.640625 3.28125 -2.171875 Z "/>
</g>
<g id="glyph-0-12">
<path d="M 2.671875 -1.78125 C 2.671875 -2.207031 2.597656 -2.53125 2.453125 -2.75 C 2.316406 -2.976562 2.117188 -3.09375 1.859375 -3.09375 C 1.578125 -3.09375 1.359375 -2.976562 1.203125 -2.75 C 1.054688 -2.53125 0.984375 -2.207031 0.984375 -1.78125 C 0.984375 -1.34375 1.054688 -1.007812 1.203125 -0.78125 C 1.359375 -0.5625 1.578125 -0.453125 1.859375 -0.453125 C 2.117188 -0.453125 2.316406 -0.5625 2.453125 -0.78125 C 2.597656 -1.007812 2.671875 -1.34375 2.671875 -1.78125 Z M 3.25 -0.21875 C 3.25 0.300781 3.125 0.695312 2.875 0.96875 C 2.632812 1.238281 2.269531 1.375 1.78125 1.375 C 1.625 1.375 1.457031 1.359375 1.28125 1.328125 C 1.113281 1.296875 0.945312 1.253906 0.78125 1.203125 L 0.78125 0.640625 C 0.976562 0.734375 1.160156 0.800781 1.328125 0.84375 C 1.492188 0.894531 1.644531 0.921875 1.78125 0.921875 C 2.09375 0.921875 2.316406 0.832031 2.453125 0.65625 C 2.597656 0.488281 2.671875 0.222656 2.671875 -0.140625 L 2.671875 -0.5625 C 2.585938 -0.363281 2.460938 -0.210938 2.296875 -0.109375 C 2.140625 -0.015625 1.945312 0.03125 1.71875 0.03125 C 1.3125 0.03125 0.988281 -0.128906 0.75 -0.453125 C 0.507812 -0.785156 0.390625 -1.226562 0.390625 -1.78125 C 0.390625 -2.320312 0.507812 -2.753906 0.75 -3.078125 C 0.988281 -3.410156 1.3125 -3.578125 1.71875 -3.578125 C 1.945312 -3.578125 2.140625 -3.53125 2.296875 -3.4375 C 2.453125 -3.351562 2.578125 -3.21875 2.671875 -3.03125 L 2.671875 -3.484375 L 3.25 -3.484375 Z "/>
</g>
<g id="glyph-0-13">
<path d="M 3.46875 -1.890625 L 3.46875 -1.609375 L 0.984375 -1.609375 L 0.984375 -1.59375 C 0.984375 -1.207031 1.082031 -0.910156 1.28125 -0.703125 C 1.476562 -0.492188 1.757812 -0.390625 2.125 -0.390625 C 2.300781 -0.390625 2.488281 -0.421875 2.6875 -0.484375 C 2.894531 -0.546875 3.109375 -0.632812 3.328125 -0.75 L 3.328125 -0.171875 C 3.117188 -0.0859375 2.910156 -0.0234375 2.703125 0.015625 C 2.503906 0.0664062 2.304688 0.09375 2.109375 0.09375 C 1.566406 0.09375 1.144531 -0.0664062 0.84375 -0.390625 C 0.539062 -0.722656 0.390625 -1.175781 0.390625 -1.75 C 0.390625 -2.300781 0.535156 -2.742188 0.828125 -3.078125 C 1.128906 -3.410156 1.53125 -3.578125 2.03125 -3.578125 C 2.476562 -3.578125 2.828125 -3.425781 3.078125 -3.125 C 3.335938 -2.820312 3.46875 -2.410156 3.46875 -1.890625 Z M 2.890625 -2.0625 C 2.890625 -2.394531 2.8125 -2.648438 2.65625 -2.828125 C 2.507812 -3.003906 2.289062 -3.09375 2 -3.09375 C 1.726562 -3.09375 1.503906 -3 1.328125 -2.8125 C 1.148438 -2.632812 1.039062 -2.382812 1 -2.0625 Z "/>
</g>
<g id="glyph-0-14">
<path d="M 2.671875 -3.046875 L 2.671875 -4.859375 L 3.25 -4.859375 L 3.25 0 L 2.671875 0 L 2.671875 -0.4375 C 2.578125 -0.269531 2.453125 -0.140625 2.296875 -0.046875 C 2.140625 0.046875 1.957031 0.09375 1.75 0.09375 C 1.320312 0.09375 0.988281 -0.0664062 0.75 -0.390625 C 0.507812 -0.722656 0.390625 -1.175781 0.390625 -1.75 C 0.390625 -2.320312 0.507812 -2.769531 0.75 -3.09375 C 0.988281 -3.414062 1.320312 -3.578125 1.75 -3.578125 C 1.957031 -3.578125 2.140625 -3.53125 2.296875 -3.4375 C 2.460938 -3.351562 2.585938 -3.222656 2.671875 -3.046875 Z M 0.984375 -1.75 C 0.984375 -1.300781 1.050781 -0.960938 1.1875 -0.734375 C 1.332031 -0.503906 1.546875 -0.390625 1.828125 -0.390625 C 2.109375 -0.390625 2.316406 -0.503906 2.453125 -0.734375 C 2.597656 -0.960938 2.671875 -1.300781 2.671875 -1.75 C 2.671875 -2.1875 2.597656 -2.519531 2.453125 -2.75 C 2.316406 -2.976562 2.109375 -3.09375 1.828125 -3.09375 C 1.546875 -3.09375 1.332031 -2.976562 1.1875 -2.75 C 1.050781 -2.519531 0.984375 -2.1875 0.984375 -1.75 Z "/>
</g>
<g id="glyph-0-15">
<path d="M 0.609375 -4.65625 L 3.375 -4.65625 L 3.375 -4.125 L 1.25 -4.125 L 1.25 -2.75 L 3.28125 -2.75 L 3.28125 -2.21875 L 1.25 -2.21875 L 1.25 -0.53125 L 3.4375 -0.53125 L 3.4375 0 L 0.609375 0 Z "/>
</g>
<g id="glyph-0-16">
<path d="M 1.109375 -2 L 2.734375 -2 L 2.734375 -1.5 L 1.109375 -1.5 Z "/>
</g>
<g id="glyph-0-17">
<path d="M 0.734375 -4.65625 L 3.46875 -4.65625 L 3.46875 -4.125 L 1.359375 -4.125 L 1.359375 -2.75 L 3.265625 -2.75 L 3.265625 -2.21875 L 1.359375 -2.21875 L 1.359375 0 L 0.734375 0 Z "/>
</g>
<g id="glyph-0-18">
<path d="M 2 -1.265625 C 2 -1.003906 2.046875 -0.804688 2.140625 -0.671875 C 2.234375 -0.546875 2.375 -0.484375 2.5625 -0.484375 L 3.21875 -0.484375 L 3.21875 0 L 2.5 0 C 2.15625 0 1.890625 -0.109375 1.703125 -0.328125 C 1.515625 -0.546875 1.421875 -0.859375 1.421875 -1.265625 L 1.421875 -4.4375 L 0.5 -4.4375 L 0.5 -4.890625 L 2 -4.890625 Z "/>
</g>
</g>
</defs>
<g fill="rgb(96.078431%, 96.862745%, 98.039216%)" fill-opacity="1">
<use xlink:href="#glyph-0-0" x="30" y="25.930664"/>
<use xlink:href="#glyph-0-1" x="34" y="25.930664"/>
<use xlink:href="#glyph-0-2" x="38" y="25.930664"/>
<use xlink:href="#glyph-0-3" x="42" y="25.930664"/>
<use xlink:href="#glyph-0-4" x="46" y="25.930664"/>
<use xlink:href="#glyph-0-5" x="50" y="25.930664"/>
<use xlink:href="#glyph-0-6" x="54" y="25.930664"/>
<use xlink:href="#glyph-0-7" x="58" y="25.930664"/>
<use xlink:href="#glyph-0-2" x="62" y="25.930664"/>
<use xlink:href="#glyph-0-8" x="66" y="25.930664"/>
<use xlink:href="#glyph-0-2" x="70" y="25.930664"/>
<use xlink:href="#glyph-0-9" x="74" y="25.930664"/>
<use xlink:href="#glyph-0-5" x="78" y="25.930664"/>
<use xlink:href="#glyph-0-6" x="82" y="25.930664"/>
<use xlink:href="#glyph-0-10" x="86" y="25.930664"/>
<use xlink:href="#glyph-0-4" x="90" y="25.930664"/>
<use xlink:href="#glyph-0-11" x="94" y="25.930664"/>
<use xlink:href="#glyph-0-12" x="98" y="25.930664"/>
<use xlink:href="#glyph-0-13" x="102" y="25.930664"/>
<use xlink:href="#glyph-0-11" x="106" y="25.930664"/>
<use xlink:href="#glyph-0-14" x="110" y="25.930664"/>
<use xlink:href="#glyph-0-13" x="114" y="25.930664"/>
<use xlink:href="#glyph-0-9" x="118" y="25.930664"/>
<use xlink:href="#glyph-0-2" x="122" y="25.930664"/>
<use xlink:href="#glyph-0-15" x="126" y="25.930664"/>
<use xlink:href="#glyph-0-16" x="130" y="25.930664"/>
<use xlink:href="#glyph-0-17" x="134" y="25.930664"/>
<use xlink:href="#glyph-0-13" x="138" y="25.930664"/>
<use xlink:href="#glyph-0-18" x="142" y="25.930664"/>
<use xlink:href="#glyph-0-14" x="146" y="25.930664"/>
</g>
</svg>
