<?xml version="1.0" encoding="UTF-8"?>
<svg xmlns="http://www.w3.org/2000/svg" xmlns:xlink="http://www.w3.org/1999/xlink" width="1920" height="1080" viewBox="0 0 1920 1080">
<defs>
<g>
<g id="glyph-0-0">
<path d="M 0 -2.734375 L 0.4375 -2.734375 L 0.921875 -0.53125 L 1.3125 -1.9375 L 1.6875 -1.9375 L 2.09375 -0.53125 L 2.5625 -2.734375 L 3.015625 -2.734375 L 2.375 0 L 1.9375 0 L 1.5 -1.5 L 1.0625 0 L 0.640625 0 Z "/>
</g>
<g id="glyph-0-1">
<path d="M 2.71875 -1.484375 L 2.71875 -1.265625 L 0.765625 -1.265625 L 0.765625 -1.25 C 0.765625 -0.945312 0.84375 -0.710938 1 -0.546875 C 1.15625 -0.390625 1.375 -0.3125 1.65625 -0.3125 C 1.800781 -0.3125 1.953125 -0.332031 2.109375 -0.375 C 2.265625 -0.425781 2.429688 -0.5 2.609375 -0.59375 L 2.609375 -0.140625 C 2.441406 -0.0664062 2.273438 -0.015625 2.109375 0.015625 C 1.953125 0.0546875 1.800781 0.078125 1.65625 0.078125 C 1.226562 0.078125 0.894531 -0.046875 0.65625 -0.296875 C 0.414062 -0.554688 0.296875 -0.910156 0.296875 -1.359375 C 0.296875 -1.796875 0.410156 -2.144531 0.640625 -2.40625 C 0.878906 -2.664062 1.195312 -2.796875 1.59375 -2.796875 C 1.9375 -2.796875 2.207031 -2.675781 2.40625 -2.4375 C 2.613281 -2.207031 2.71875 -1.890625 2.71875 -1.484375 Z M 2.265625 -1.609375 C 2.253906 -1.867188 2.191406 -2.066406 2.078125 -2.203125 C 1.960938 -2.347656 1.789062 -2.421875 1.5625 -2.421875 C 1.351562 -2.421875 1.175781 -2.347656 1.03125 -2.203125 C 0.894531 -2.054688 0.8125 -1.859375 0.78125 -1.609375 Z "/>
</g>
<g id="glyph-0-2">
<path d="M 0.625 -2.734375 L 1.78125 -2.734375 L 1.78125 -0.34375 L 2.671875 -0.34375 L 2.671875 0 L 0.4375 0 L 0.4375 -0.34375 L 1.328125 -0.34375 L 1.328125 -2.390625 L 0.625 -2.390625 Z M 1.328125 -3.796875 L 1.78125 -3.796875 L 1.78125 -3.234375 L 1.328125 -3.234375 Z "/>
</g>
<g id="glyph-0-3">
<path d="M 0.453125 -2.78125 C 0.453125 -3.125 0.535156 -3.378906 0.703125 -3.546875 C 0.878906 -3.710938 1.144531 -3.796875 1.5 -3.796875 C 1.832031 -3.796875 2.082031 -3.707031 2.25 -3.53125 C 2.425781 -3.351562 2.515625 -3.085938 2.515625 -2.734375 C 2.265625 -2.710938 2.066406 -2.648438 1.921875 -2.546875 C 1.785156 -2.441406 1.71875 -2.3125 1.71875 -2.15625 C 1.71875 -2.070312 1.738281 -2 1.78125 -1.9375 C 1.832031 -1.875 1.914062 -1.804688 2.03125 -1.734375 L 2.171875 -1.65625 C 2.410156 -1.5 2.578125 -1.351562 2.671875 -1.21875 C 2.765625 -1.082031 2.8125 -0.921875 2.8125 -0.734375 C 2.8125 -0.484375 2.71875 -0.285156 2.53125 -0.140625 C 2.351562 0.00390625 2.101562 0.078125 1.78125 0.078125 C 1.664062 0.078125 1.550781 0.0664062 1.4375 0.046875 C 1.332031 0.0234375 1.226562 -0.00390625 1.125 -0.046875 L 1.125 -0.453125 C 1.25 -0.398438 1.363281 -0.359375 1.46875 -0.328125 C 1.570312 -0.304688 1.675781 -0.296875 1.78125 -0.296875 C 1.945312 -0.296875 2.082031 -0.332031 2.1875 -0.40625 C 2.289062 -0.488281 2.34375 -0.597656 2.34375 -0.734375 C 2.34375 -0.847656 2.316406 -0.941406 2.265625 -1.015625 C 2.210938 -1.097656 2.09375 -1.203125 1.90625 -1.328125 L 1.734375 -1.421875 C 1.585938 -1.503906 1.476562 -1.597656 1.40625 -1.703125 C 1.332031 -1.816406 1.296875 -1.941406 1.296875 -2.078125 C 1.296875 -2.285156 1.359375 -2.457031 1.484375 -2.59375 C 1.617188 -2.726562 1.8125 -2.828125 2.0625 -2.890625 C 2.0625 -3.054688 2.007812 -3.1875 1.90625 -3.28125 C 1.8125 -3.375 1.671875 -3.421875 1.484375 -3.421875 C 1.285156 -3.421875 1.140625 -3.367188 1.046875 -3.265625 C 0.960938 -3.160156 0.921875 -2.992188 0.921875 -2.765625 L 0.921875 0 L 0.453125 0 Z "/>
</g>
<g id="glyph-0-4">
<path d="M 2.375 -2.640625 L 2.375 -2.203125 C 2.25 -2.273438 2.117188 -2.328125 1.984375 -2.359375 C 1.859375 -2.398438 1.726562 -2.421875 1.59375 -2.421875 C 1.382812 -2.421875 1.226562 -2.390625 1.125 -2.328125 C 1.03125 -2.265625 0.984375 -2.164062 0.984375 -2.03125 C 0.984375 -1.90625 1.019531 -1.8125 1.09375 -1.75 C 1.164062 -1.6875 1.351562 -1.628906 1.65625 -1.578125 L 1.84375 -1.546875 C 2.0625 -1.503906 2.226562 -1.414062 2.34375 -1.28125 C 2.457031 -1.15625 2.515625 -0.992188 2.515625 -0.796875 C 2.515625 -0.523438 2.414062 -0.3125 2.21875 -0.15625 C 2.03125 0 1.765625 0.078125 1.421875 0.078125 C 1.285156 0.078125 1.144531 0.0625 1 0.03125 C 0.851562 0 0.691406 -0.0390625 0.515625 -0.09375 L 0.515625 -0.5625 C 0.679688 -0.476562 0.84375 -0.414062 1 -0.375 C 1.15625 -0.332031 1.300781 -0.3125 1.4375 -0.3125 C 1.632812 -0.3125 1.785156 -0.347656 1.890625 -0.421875 C 2.003906 -0.503906 2.0625 -0.617188 2.0625 -0.765625 C 2.0625 -0.972656 1.863281 -1.117188 1.46875 -1.203125 L 1.4375 -1.203125 L 1.28125 -1.234375 C 1.019531 -1.285156 0.828125 -1.367188 0.703125 -1.484375 C 0.585938 -1.609375 0.53125 -1.773438 0.53125 -1.984375 C 0.53125 -2.242188 0.617188 -2.441406 0.796875 -2.578125 C 0.972656 -2.722656 1.226562 -2.796875 1.5625 -2.796875 C 1.707031 -2.796875 1.847656 -2.78125 1.984375 -2.75 C 2.117188 -2.726562 2.25 -2.691406 2.375 -2.640625 Z "/>
</g>
<g id="glyph-0-5">
</g>
<g id="glyph-0-6">
<path d="M 0.53125 -3.640625 L 1.015625 -3.640625 L 1.015625 -0.421875 L 2.78125 -0.421875 L 2.78125 0 L 0.53125 0 Z "/>
</g>
<g id="glyph-0-7">
<path d="M 2.59375 -0.140625 C 2.46875 -0.0664062 2.34375 -0.015625 2.21875 0.015625 C 2.09375 0.0546875 1.960938 0.078125 1.828125 0.078125 C 1.398438 0.078125 1.066406 -0.046875 0.828125 -0.296875 C 0.585938 -0.554688 0.46875 -0.910156 0.46875 -1.359375 C 0.46875 -1.804688 0.585938 -2.15625 0.828125 -2.40625 C 1.066406 -2.664062 1.398438 -2.796875 1.828125 -2.796875 C 1.960938 -2.796875 2.09375 -2.78125 2.21875 -2.75 C 2.34375 -2.71875 2.46875 -2.664062 2.59375 -2.59375 L 2.59375 -2.125 C 2.46875 -2.226562 2.34375 -2.300781 2.21875 -2.34375 C 2.101562 -2.394531 1.972656 -2.421875 1.828125 -2.421875 C 1.546875 -2.421875 1.328125 -2.328125 1.171875 -2.140625 C 1.023438 -1.960938 0.953125 -1.703125 0.953125 -1.359375 C 0.953125 -1.023438 1.023438 -0.765625 1.171875 -0.578125 C 1.328125 -0.398438 1.546875 -0.3125 1.828125 -0.3125 C 1.984375 -0.3125 2.125 -0.332031 2.25 -0.375 C 2.375 -0.425781 2.488281 -0.503906 2.59375 -0.609375 Z "/>
</g>
<g id="glyph-0-8">
<path d="M 2.5625 -1.6875 L 2.5625 0 L 2.109375 0 L 2.109375 -1.6875 C 2.109375 -1.9375 2.066406 -2.117188 1.984375 -2.234375 C 1.898438 -2.347656 1.765625 -2.40625 1.578125 -2.40625 C 1.367188 -2.40625 1.207031 -2.332031 1.09375 -2.1875 C 0.976562 -2.039062 0.921875 -1.828125 0.921875 -1.546875 L 0.921875 0 L 0.46875 0 L 0.46875 -3.796875 L 0.921875 -3.796875 L 0.921875 -2.328125 C 1.003906 -2.484375 1.113281 -2.597656 1.25 -2.671875 C 1.382812 -2.753906 1.546875 -2.796875 1.734375 -2.796875 C 2.015625 -2.796875 2.222656 -2.703125 2.359375 -2.515625 C 2.492188 -2.335938 2.5625 -2.0625 2.5625 -1.6875 Z "/>
</g>
<g id="glyph-0-9">
<path d="M 1.5 -3.515625 L 1.5 -2.734375 L 2.515625 -2.734375 L 2.515625 -2.390625 L 1.5 -2.390625 L 1.5 -0.90625 C 1.5 -0.695312 1.535156 -0.550781 1.609375 -0.46875 C 1.691406 -0.394531 1.828125 -0.359375 2.015625 -0.359375 L 2.515625 -0.359375 L 2.515625 0 L 1.96875 0 C 1.632812 0 1.394531 -0.0664062 1.25 -0.203125 C 1.113281 -0.335938 1.046875 -0.570312 1.046875 -0.90625 L 1.046875 -2.390625 L 0.3125 -2.390625 L 0.3125 -2.734375 L 1.046875 -2.734375 L 1.046875 -3.515625 Z "/>
</g>
</g>
</defs>
<g fill="rgb(89.803922%, 90.588235%, 92.156863%)" fill-opacity="1">
<use xlink:href="#glyph-0-0" x="30" y="24.641602"/>
<use xlink:href="#glyph-0-1" x="33" y="24.641602"/>
<use xlink:href="#glyph-0-2" x="36" y="24.641602"/>
<use xlink:href="#glyph-0-3" x="39" y="24.641602"/>
<use xlink:href="#glyph-0-1" x="42" y="24.641602"/>
<use xlink:href="#glyph-0-4" x="45" y="24.641602"/>
<use xlink:href="#glyph-0-5" x="48" y="24.641602"/>
<use xlink:href="#glyph-0-6" x="51" y="24.641602"/>
<use xlink:href="#glyph-0-2" x="54" y="24.641602"/>
<use xlink:href="#glyph-0-7" x="57" y="24.641602"/>
<use xlink:href="#glyph-0-8" x="60" y="24.641602"/>
<use xlink:href="#glyph-0-9" x="63" y="24.641602"/>
</g>
</svg>
