<?xml version="1.0" encoding="UTF-8"?>
<svg xmlns="http://www.w3.org/2000/svg" xmlns:xlink="http://www.w3.org/1999/xlink" width="1920" height="1080" viewBox="0 0 1920 1080">
<defs>
<g>
<g id="glyph-0-0">
<path d="M 0.84375 -1.640625 L 0.84375 -0.375 L 1.40625 -0.375 C 1.675781 -0.375 1.867188 -0.421875 1.984375 -0.515625 C 2.097656 -0.617188 2.15625 -0.773438 2.15625 -0.984375 C 2.15625 -1.210938 2.09375 -1.378906 1.96875 -1.484375 C 1.84375 -1.585938 1.65625 -1.640625 1.40625 -1.640625 Z M 0.84375 -3.0625 L 0.84375 -2.015625 L 1.390625 -2.015625 C 1.617188 -2.015625 1.78125 -2.054688 1.875 -2.140625 C 1.976562 -2.234375 2.03125 -2.375 2.03125 -2.5625 C 2.03125 -2.738281 1.976562 -2.863281 1.875 -2.9375 C 1.78125 -3.019531 1.617188 -3.0625 1.390625 -3.0625 Z M 0.375 -3.4375 L 1.40625 -3.4375 C 1.75 -3.4375 2.015625 -3.359375 2.203125 -3.203125 C 2.398438 -3.054688 2.5 -2.84375 2.5 -2.5625 C 2.5 -2.351562 2.445312 -2.1875 2.34375 -2.0625 C 2.25 -1.945312 2.097656 -1.875 1.890625 -1.84375 C 2.117188 -1.8125 2.296875 -1.710938 2.421875 -1.546875 C 2.554688 -1.390625 2.625 -1.1875 2.625 -0.9375 C 2.625 -0.632812 2.519531 -0.398438 2.3125 -0.234375 C 2.101562 -0.078125 1.800781 0 1.40625 0 L 0.375 0 Z "/>
</g>
<g id="glyph-0-1">
<path d="M 2.5625 -1.390625 L 2.5625 -1.1875 L 0.71875 -1.1875 L 0.71875 -1.171875 C 0.71875 -0.890625 0.789062 -0.671875 0.9375 -0.515625 C 1.09375 -0.367188 1.300781 -0.296875 1.5625 -0.296875 C 1.695312 -0.296875 1.835938 -0.316406 1.984375 -0.359375 C 2.140625 -0.398438 2.300781 -0.460938 2.46875 -0.546875 L 2.46875 -0.125 C 2.300781 -0.0625 2.140625 -0.015625 1.984375 0.015625 C 1.835938 0.046875 1.695312 0.0625 1.5625 0.0625 C 1.15625 0.0625 0.835938 -0.0546875 0.609375 -0.296875 C 0.390625 -0.535156 0.28125 -0.863281 0.28125 -1.28125 C 0.28125 -1.695312 0.390625 -2.023438 0.609375 -2.265625 C 0.835938 -2.515625 1.132812 -2.640625 1.5 -2.640625 C 1.832031 -2.640625 2.09375 -2.523438 2.28125 -2.296875 C 2.46875 -2.078125 2.5625 -1.773438 2.5625 -1.390625 Z M 2.140625 -1.515625 C 2.128906 -1.765625 2.066406 -1.953125 1.953125 -2.078125 C 1.847656 -2.210938 1.691406 -2.28125 1.484375 -2.28125 C 1.273438 -2.28125 1.101562 -2.210938 0.96875 -2.078125 C 0.84375 -1.941406 0.765625 -1.753906 0.734375 -1.515625 Z "/>
</g>
<g id="glyph-0-2">
<path d="M 2.421875 -1.59375 L 2.421875 0 L 2 0 L 2 -1.59375 C 2 -1.832031 1.957031 -2.003906 1.875 -2.109375 C 1.789062 -2.222656 1.660156 -2.28125 1.484375 -2.28125 C 1.285156 -2.28125 1.132812 -2.207031 1.03125 -2.0625 C 0.925781 -1.925781 0.875 -1.722656 0.875 -1.453125 L 0.875 0 L 0.453125 0 L 0.453125 -2.578125 L 0.875 -2.578125 L 0.875 -2.1875 C 0.945312 -2.34375 1.046875 -2.457031 1.171875 -2.53125 C 1.304688 -2.601562 1.460938 -2.640625 1.640625 -2.640625 C 1.898438 -2.640625 2.09375 -2.550781 2.21875 -2.375 C 2.351562 -2.207031 2.421875 -1.945312 2.421875 -1.59375 Z "/>
</g>
<g id="glyph-0-3">
<path d="M 1.625 -1.296875 L 1.484375 -1.296875 C 1.234375 -1.296875 1.046875 -1.25 0.921875 -1.15625 C 0.796875 -1.070312 0.734375 -0.945312 0.734375 -0.78125 C 0.734375 -0.625 0.78125 -0.5 0.875 -0.40625 C 0.96875 -0.320312 1.097656 -0.28125 1.265625 -0.28125 C 1.492188 -0.28125 1.675781 -0.363281 1.8125 -0.53125 C 1.945312 -0.695312 2.015625 -0.921875 2.015625 -1.203125 L 2.015625 -1.296875 Z M 2.4375 -1.46875 L 2.4375 0 L 2.015625 0 L 2.015625 -0.375 C 1.921875 -0.226562 1.804688 -0.117188 1.671875 -0.046875 C 1.535156 0.0234375 1.367188 0.0625 1.171875 0.0625 C 0.910156 0.0625 0.703125 -0.0078125 0.546875 -0.15625 C 0.390625 -0.300781 0.3125 -0.5 0.3125 -0.75 C 0.3125 -1.039062 0.40625 -1.257812 0.59375 -1.40625 C 0.789062 -1.550781 1.070312 -1.625 1.4375 -1.625 L 2.015625 -1.625 L 2.015625 -1.703125 C 2.015625 -1.898438 1.960938 -2.046875 1.859375 -2.140625 C 1.753906 -2.234375 1.585938 -2.28125 1.359375 -2.28125 C 1.210938 -2.28125 1.066406 -2.257812 0.921875 -2.21875 C 0.773438 -2.175781 0.632812 -2.117188 0.5 -2.046875 L 0.5 -2.46875 C 0.65625 -2.519531 0.800781 -2.5625 0.9375 -2.59375 C 1.082031 -2.625 1.222656 -2.640625 1.359375 -2.640625 C 1.578125 -2.640625 1.757812 -2.609375 1.90625 -2.546875 C 2.0625 -2.484375 2.1875 -2.390625 2.28125 -2.265625 C 2.332031 -2.191406 2.367188 -2.097656 2.390625 -1.984375 C 2.421875 -1.867188 2.4375 -1.695312 2.4375 -1.46875 Z "/>
</g>
<g id="glyph-0-4">
<path d="M 2.4375 -0.125 C 2.332031 -0.0625 2.21875 -0.015625 2.09375 0.015625 C 1.96875 0.046875 1.84375 0.0625 1.71875 0.0625 C 1.320312 0.0625 1.007812 -0.0546875 0.78125 -0.296875 C 0.5625 -0.535156 0.453125 -0.863281 0.453125 -1.28125 C 0.453125 -1.707031 0.5625 -2.039062 0.78125 -2.28125 C 1.007812 -2.519531 1.320312 -2.640625 1.71875 -2.640625 C 1.84375 -2.640625 1.960938 -2.625 2.078125 -2.59375 C 2.203125 -2.5625 2.320312 -2.507812 2.4375 -2.4375 L 2.4375 -2 C 2.332031 -2.101562 2.222656 -2.175781 2.109375 -2.21875 C 1.992188 -2.257812 1.863281 -2.28125 1.71875 -2.28125 C 1.457031 -2.28125 1.253906 -2.191406 1.109375 -2.015625 C 0.960938 -1.847656 0.890625 -1.601562 0.890625 -1.28125 C 0.890625 -0.96875 0.960938 -0.722656 1.109375 -0.546875 C 1.253906 -0.378906 1.457031 -0.296875 1.71875 -0.296875 C 1.863281 -0.296875 1.992188 -0.316406 2.109375 -0.359375 C 2.234375 -0.398438 2.34375 -0.472656 2.4375 -0.578125 Z "/>
</g>
<g id="glyph-0-5">
<path d="M 2.421875 -1.59375 L 2.421875 0 L 2 0 L 2 -1.59375 C 2 -1.832031 1.957031 -2.003906 1.875 -2.109375 C 1.789062 -2.222656 1.660156 -2.28125 1.484375 -2.28125 C 1.285156 -2.28125 1.132812 -2.207031 1.03125 -2.0625 C 0.925781 -1.925781 0.875 -1.722656 0.875 -1.453125 L 0.875 0 L 0.453125 0 L 0.453125 -3.578125 L 0.875 -3.578125 L 0.875 -2.1875 C 0.945312 -2.34375 1.046875 -2.457031 1.171875 -2.53125 C 1.304688 -2.601562 1.460938 -2.640625 1.640625 -2.640625 C 1.898438 -2.640625 2.09375 -2.550781 2.21875 -2.375 C 2.351562 -2.207031 2.421875 -1.945312 2.421875 -1.59375 Z "/>
</g>
<g id="glyph-0-6">
<path d="M 2.109375 -1.28125 C 2.109375 -1.613281 2.054688 -1.863281 1.953125 -2.03125 C 1.847656 -2.195312 1.695312 -2.28125 1.5 -2.28125 C 1.289062 -2.28125 1.132812 -2.195312 1.03125 -2.03125 C 0.925781 -1.863281 0.875 -1.613281 0.875 -1.28125 C 0.875 -0.957031 0.925781 -0.710938 1.03125 -0.546875 C 1.132812 -0.378906 1.289062 -0.296875 1.5 -0.296875 C 1.695312 -0.296875 1.847656 -0.378906 1.953125 -0.546875 C 2.054688 -0.710938 2.109375 -0.957031 2.109375 -1.28125 Z M 0.875 -2.25 C 0.9375 -2.375 1.023438 -2.46875 1.140625 -2.53125 C 1.265625 -2.601562 1.40625 -2.640625 1.5625 -2.640625 C 1.875 -2.640625 2.117188 -2.519531 2.296875 -2.28125 C 2.472656 -2.039062 2.5625 -1.710938 2.5625 -1.296875 C 2.5625 -0.867188 2.472656 -0.535156 2.296875 -0.296875 C 2.117188 -0.0546875 1.875 0.0625 1.5625 0.0625 C 1.40625 0.0625 1.265625 0.03125 1.140625 -0.03125 C 1.023438 -0.101562 0.9375 -0.203125 0.875 -0.328125 L 0.875 0 L 0.4375 0 L 0.4375 -3.578125 L 0.875 -3.578125 Z "/>
</g>
<g id="glyph-0-7">
<path d="M 2.65625 -2.046875 C 2.570312 -2.117188 2.484375 -2.171875 2.390625 -2.203125 C 2.296875 -2.234375 2.191406 -2.25 2.078125 -2.25 C 1.804688 -2.25 1.601562 -2.164062 1.46875 -2 C 1.332031 -1.832031 1.265625 -1.59375 1.265625 -1.28125 L 1.265625 0 L 0.828125 0 L 0.828125 -2.578125 L 1.265625 -2.578125 L 1.265625 -2.078125 C 1.328125 -2.253906 1.429688 -2.390625 1.578125 -2.484375 C 1.734375 -2.585938 1.910156 -2.640625 2.109375 -2.640625 C 2.210938 -2.640625 2.304688 -2.625 2.390625 -2.59375 C 2.484375 -2.570312 2.570312 -2.535156 2.65625 -2.484375 Z "/>
</g>
<g id="glyph-0-8">
<path d="M 1.421875 -3.3125 L 1.421875 -2.578125 L 2.375 -2.578125 L 2.375 -2.25 L 1.421875 -2.25 L 1.421875 -0.84375 C 1.421875 -0.65625 1.453125 -0.523438 1.515625 -0.453125 C 1.585938 -0.378906 1.71875 -0.34375 1.90625 -0.34375 L 2.375 -0.34375 L 2.375 0 L 1.859375 0 C 1.535156 0 1.304688 -0.0625 1.171875 -0.1875 C 1.046875 -0.3125 0.984375 -0.53125 0.984375 -0.84375 L 0.984375 -2.25 L 0.296875 -2.25 L 0.296875 -2.578125 L 0.984375 -2.578125 L 0.984375 -3.3125 Z "/>
</g>
<g id="glyph-0-9">
</g>
<g id="glyph-0-10">
<path d="M 2.328125 -3.328125 L 2.328125 -2.84375 C 2.191406 -2.9375 2.050781 -3.003906 1.90625 -3.046875 C 1.757812 -3.097656 1.617188 -3.125 1.484375 -3.125 C 1.253906 -3.125 1.078125 -3.070312 0.953125 -2.96875 C 0.828125 -2.863281 0.765625 -2.726562 0.765625 -2.5625 C 0.765625 -2.40625 0.804688 -2.285156 0.890625 -2.203125 C 0.972656 -2.128906 1.128906 -2.066406 1.359375 -2.015625 L 1.609375 -1.953125 C 1.929688 -1.878906 2.164062 -1.757812 2.3125 -1.59375 C 2.457031 -1.4375 2.53125 -1.21875 2.53125 -0.9375 C 2.53125 -0.613281 2.425781 -0.363281 2.21875 -0.1875 C 2.019531 -0.0195312 1.726562 0.0625 1.34375 0.0625 C 1.175781 0.0625 1.007812 0.046875 0.84375 0.015625 C 0.6875 -0.015625 0.523438 -0.0664062 0.359375 -0.140625 L 0.359375 -0.640625 C 0.535156 -0.523438 0.703125 -0.441406 0.859375 -0.390625 C 1.015625 -0.335938 1.175781 -0.3125 1.34375 -0.3125 C 1.570312 -0.3125 1.75 -0.363281 1.875 -0.46875 C 2.007812 -0.570312 2.078125 -0.71875 2.078125 -0.90625 C 2.078125 -1.082031 2.03125 -1.210938 1.9375 -1.296875 C 1.851562 -1.390625 1.703125 -1.460938 1.484375 -1.515625 L 1.234375 -1.578125 C 0.910156 -1.640625 0.675781 -1.742188 0.53125 -1.890625 C 0.382812 -2.046875 0.3125 -2.242188 0.3125 -2.484375 C 0.3125 -2.796875 0.414062 -3.039062 0.625 -3.21875 C 0.832031 -3.40625 1.109375 -3.5 1.453125 -3.5 C 1.585938 -3.5 1.726562 -3.484375 1.875 -3.453125 C 2.019531 -3.421875 2.171875 -3.378906 2.328125 -3.328125 Z "/>
</g>
<g id="glyph-0-11">
<path d="M 1.46875 -0.9375 C 1.46875 -0.75 1.503906 -0.601562 1.578125 -0.5 C 1.648438 -0.40625 1.753906 -0.359375 1.890625 -0.359375 L 2.375 -0.359375 L 2.375 0 L 1.84375 0 C 1.59375 0 1.394531 -0.078125 1.25 -0.234375 C 1.113281 -0.398438 1.046875 -0.632812 1.046875 -0.9375 L 1.046875 -3.28125 L 0.375 -3.28125 L 0.375 -3.609375 L 1.46875 -3.609375 Z "/>
</g>
<g id="glyph-0-12">
<path d="M 0.234375 -2.578125 L 0.671875 -2.578125 L 1.421875 -0.421875 L 2.171875 -2.578125 L 2.609375 -2.578125 L 1.6875 0 L 1.140625 0 Z "/>
</g>
<g id="glyph-0-13">
<path d="M 2.234375 -2.484375 L 2.234375 -2.078125 C 2.117188 -2.148438 2 -2.203125 1.875 -2.234375 C 1.75 -2.265625 1.625 -2.28125 1.5 -2.28125 C 1.3125 -2.28125 1.164062 -2.25 1.0625 -2.1875 C 0.96875 -2.125 0.921875 -2.03125 0.921875 -1.90625 C 0.921875 -1.789062 0.957031 -1.703125 1.03125 -1.640625 C 1.101562 -1.585938 1.28125 -1.535156 1.5625 -1.484375 L 1.734375 -1.453125 C 1.941406 -1.410156 2.097656 -1.328125 2.203125 -1.203125 C 2.316406 -1.085938 2.375 -0.9375 2.375 -0.75 C 2.375 -0.488281 2.28125 -0.285156 2.09375 -0.140625 C 1.914062 -0.00390625 1.664062 0.0625 1.34375 0.0625 C 1.21875 0.0625 1.082031 0.046875 0.9375 0.015625 C 0.800781 -0.00390625 0.648438 -0.0390625 0.484375 -0.09375 L 0.484375 -0.53125 C 0.648438 -0.445312 0.800781 -0.382812 0.9375 -0.34375 C 1.082031 -0.300781 1.222656 -0.28125 1.359375 -0.28125 C 1.546875 -0.28125 1.6875 -0.316406 1.78125 -0.390625 C 1.882812 -0.472656 1.9375 -0.582031 1.9375 -0.71875 C 1.9375 -0.914062 1.75 -1.050781 1.375 -1.125 L 1.359375 -1.140625 L 1.203125 -1.171875 C 0.960938 -1.210938 0.785156 -1.289062 0.671875 -1.40625 C 0.554688 -1.519531 0.5 -1.675781 0.5 -1.875 C 0.5 -2.113281 0.582031 -2.300781 0.75 -2.4375 C 0.914062 -2.570312 1.15625 -2.640625 1.46875 -2.640625 C 1.601562 -2.640625 1.734375 -2.625 1.859375 -2.59375 C 1.992188 -2.570312 2.117188 -2.535156 2.234375 -2.484375 Z "/>
</g>
<g id="glyph-0-14">
<path d="M 1.984375 -2.25 L 1.984375 -3.578125 L 2.40625 -3.578125 L 2.40625 0 L 1.984375 0 L 1.984375 -0.328125 C 1.910156 -0.203125 1.8125 -0.101562 1.6875 -0.03125 C 1.570312 0.03125 1.4375 0.0625 1.28125 0.0625 C 0.96875 0.0625 0.722656 -0.0546875 0.546875 -0.296875 C 0.367188 -0.535156 0.28125 -0.867188 0.28125 -1.296875 C 0.28125 -1.710938 0.367188 -2.039062 0.546875 -2.28125 C 0.734375 -2.519531 0.976562 -2.640625 1.28125 -2.640625 C 1.4375 -2.640625 1.570312 -2.601562 1.6875 -2.53125 C 1.8125 -2.46875 1.910156 -2.375 1.984375 -2.25 Z M 0.734375 -1.28125 C 0.734375 -0.957031 0.785156 -0.710938 0.890625 -0.546875 C 0.992188 -0.378906 1.144531 -0.296875 1.34375 -0.296875 C 1.550781 -0.296875 1.707031 -0.378906 1.8125 -0.546875 C 1.925781 -0.710938 1.984375 -0.957031 1.984375 -1.28125 C 1.984375 -1.613281 1.925781 -1.863281 1.8125 -2.03125 C 1.707031 -2.195312 1.550781 -2.28125 1.34375 -2.28125 C 1.144531 -2.28125 0.992188 -2.195312 0.890625 -2.03125 C 0.785156 -1.863281 0.734375 -1.613281 0.734375 -1.28125 Z "/>
</g>
<g id="glyph-0-15">
<path d="M 0.109375 -3.4375 L 2.734375 -3.4375 L 2.734375 -3.046875 L 1.65625 -3.046875 L 1.65625 0 L 1.1875 0 L 1.1875 -3.046875 L 0.109375 -3.046875 Z "/>
</g>
<g id="glyph-0-16">
<path d="M 1.421875 -2.28125 C 1.203125 -2.28125 1.035156 -2.195312 0.921875 -2.03125 C 0.816406 -1.863281 0.765625 -1.613281 0.765625 -1.28125 C 0.765625 -0.957031 0.816406 -0.710938 0.921875 -0.546875 C 1.035156 -0.378906 1.203125 -0.296875 1.421875 -0.296875 C 1.640625 -0.296875 1.800781 -0.378906 1.90625 -0.546875 C 2.019531 -0.710938 2.078125 -0.957031 2.078125 -1.28125 C 2.078125 -1.613281 2.019531 -1.863281 1.90625 -2.03125 C 1.800781 -2.195312 1.640625 -2.28125 1.421875 -2.28125 Z M 1.421875 -2.640625 C 1.773438 -2.640625 2.046875 -2.523438 2.234375 -2.296875 C 2.429688 -2.066406 2.53125 -1.726562 2.53125 -1.28125 C 2.53125 -0.84375 2.429688 -0.507812 2.234375 -0.28125 C 2.046875 -0.0507812 1.773438 0.0625 1.421875 0.0625 C 1.054688 0.0625 0.78125 -0.0507812 0.59375 -0.28125 C 0.40625 -0.507812 0.3125 -0.84375 0.3125 -1.28125 C 0.3125 -1.726562 0.40625 -2.066406 0.59375 -2.296875 C 0.78125 -2.523438 1.054688 -2.640625 1.421875 -2.640625 Z "/>
</g>
<g id="glyph-0-17">
<path d="M 0.859375 -0.328125 L 0.859375 0.984375 L 0.4375 0.984375 L 0.4375 -2.578125 L 0.859375 -2.578125 L 0.859375 -2.25 C 0.929688 -2.375 1.023438 -2.46875 1.140625 -2.53125 C 1.265625 -2.601562 1.398438 -2.640625 1.546875 -2.640625 C 1.859375 -2.640625 2.101562 -2.519531 2.28125 -2.28125 C 2.457031 -2.039062 2.546875 -1.707031 2.546875 -1.28125 C 2.546875 -0.863281 2.457031 -0.535156 2.28125 -0.296875 C 2.101562 -0.0546875 1.859375 0.0625 1.546875 0.0625 C 1.390625 0.0625 1.253906 0.03125 1.140625 -0.03125 C 1.023438 -0.101562 0.929688 -0.203125 0.859375 -0.328125 Z M 2.109375 -1.28125 C 2.109375 -1.613281 2.054688 -1.863281 1.953125 -2.03125 C 1.847656 -2.195312 1.691406 -2.28125 1.484375 -2.28125 C 1.285156 -2.28125 1.128906 -2.195312 1.015625 -2.03125 C 0.910156 -1.863281 0.859375 -1.613281 0.859375 -1.28125 C 0.859375 -0.957031 0.910156 -0.710938 1.015625 -0.546875 C 1.128906 -0.378906 1.285156 -0.296875 1.484375 -0.296875 C 1.691406 -0.296875 1.847656 -0.378906 1.953125 -0.546875 C 2.054688 -0.710938 2.109375 -0.957031 2.109375 -1.28125 Z "/>
</g>
<g id="glyph-0-18">
<path d="M 2.453125 -3.578125 L 2.453125 -3.234375 L 1.96875 -3.234375 C 1.8125 -3.234375 1.703125 -3.203125 1.640625 -3.140625 C 1.585938 -3.078125 1.5625 -2.96875 1.5625 -2.8125 L 1.5625 -2.578125 L 2.453125 -2.578125 L 2.453125 -2.25 L 1.5625 -2.25 L 1.5625 0 L 1.140625 0 L 1.140625 -2.25 L 0.453125 -2.25 L 0.453125 -2.578125 L 1.140625 -2.578125 L 1.140625 -2.765625 C 1.140625 -3.046875 1.203125 -3.25 1.328125 -3.375 C 1.460938 -3.507812 1.664062 -3.578125 1.9375 -3.578125 Z "/>
</g>
<g id="glyph-0-19">
<path d="M 0.59375 -2.578125 L 1.671875 -2.578125 L 1.671875 -0.328125 L 2.515625 -0.328125 L 2.515625 0 L 0.40625 0 L 0.40625 -0.328125 L 1.25 -0.328125 L 1.25 -2.25 L 0.59375 -2.25 Z M 1.25 -3.578125 L 1.671875 -3.578125 L 1.671875 -3.046875 L 1.25 -3.046875 Z "/>
</g>
<g id="glyph-0-20">
<path d="M 1.75 -1.625 C 1.875 -1.59375 1.976562 -1.535156 2.0625 -1.453125 C 2.144531 -1.367188 2.25 -1.195312 2.375 -0.9375 L 2.84375 0 L 2.34375 0 L 1.9375 -0.875 C 1.8125 -1.113281 1.703125 -1.269531 1.609375 -1.34375 C 1.515625 -1.414062 1.390625 -1.453125 1.234375 -1.453125 L 0.796875 -1.453125 L 0.796875 0 L 0.328125 0 L 0.328125 -3.4375 L 1.28125 -3.4375 C 1.664062 -3.4375 1.957031 -3.347656 2.15625 -3.171875 C 2.351562 -3.003906 2.453125 -2.757812 2.453125 -2.4375 C 2.453125 -2.21875 2.390625 -2.035156 2.265625 -1.890625 C 2.148438 -1.742188 1.976562 -1.65625 1.75 -1.625 Z M 0.796875 -3.0625 L 0.796875 -1.84375 L 1.3125 -1.84375 C 1.53125 -1.84375 1.691406 -1.890625 1.796875 -1.984375 C 1.910156 -2.085938 1.96875 -2.238281 1.96875 -2.4375 C 1.96875 -2.632812 1.910156 -2.785156 1.796875 -2.890625 C 1.679688 -3.003906 1.507812 -3.0625 1.28125 -3.0625 Z "/>
</g>
<g id="glyph-0-21">
<path d="M 0.453125 -0.984375 L 0.453125 -2.578125 L 0.875 -2.578125 L 0.875 -0.984375 C 0.875 -0.742188 0.914062 -0.566406 1 -0.453125 C 1.082031 -0.347656 1.207031 -0.296875 1.375 -0.296875 C 1.570312 -0.296875 1.722656 -0.363281 1.828125 -0.5 C 1.941406 -0.644531 2 -0.851562 2 -1.125 L 2 -2.578125 L 2.421875 -2.578125 L 2.421875 0 L 2 0 L 2 -0.390625 C 1.914062 -0.234375 1.8125 -0.117188 1.6875 -0.046875 C 1.5625 0.0234375 1.410156 0.0625 1.234375 0.0625 C 0.972656 0.0625 0.773438 -0.0195312 0.640625 -0.1875 C 0.515625 -0.363281 0.453125 -0.628906 0.453125 -0.984375 Z "/>
</g>
<g id="glyph-0-22">
<path d="M 1.984375 -1.3125 C 1.984375 -1.625 1.929688 -1.863281 1.828125 -2.03125 C 1.722656 -2.195312 1.570312 -2.28125 1.375 -2.28125 C 1.164062 -2.28125 1.003906 -2.195312 0.890625 -2.03125 C 0.785156 -1.863281 0.734375 -1.625 0.734375 -1.3125 C 0.734375 -0.988281 0.785156 -0.742188 0.890625 -0.578125 C 1.003906 -0.410156 1.164062 -0.328125 1.375 -0.328125 C 1.570312 -0.328125 1.722656 -0.410156 1.828125 -0.578125 C 1.929688 -0.753906 1.984375 -1 1.984375 -1.3125 Z M 2.40625 -0.171875 C 2.40625 0.222656 2.3125 0.519531 2.125 0.71875 C 1.945312 0.914062 1.675781 1.015625 1.3125 1.015625 C 1.195312 1.015625 1.078125 1.003906 0.953125 0.984375 C 0.828125 0.960938 0.703125 0.929688 0.578125 0.890625 L 0.578125 0.46875 C 0.722656 0.539062 0.859375 0.59375 0.984375 0.625 C 1.109375 0.65625 1.21875 0.671875 1.3125 0.671875 C 1.539062 0.671875 1.707031 0.609375 1.8125 0.484375 C 1.925781 0.359375 1.984375 0.160156 1.984375 -0.109375 L 1.984375 -0.40625 C 1.910156 -0.257812 1.816406 -0.148438 1.703125 -0.078125 C 1.585938 -0.015625 1.445312 0.015625 1.28125 0.015625 C 0.976562 0.015625 0.734375 -0.101562 0.546875 -0.34375 C 0.367188 -0.582031 0.28125 -0.90625 0.28125 -1.3125 C 0.28125 -1.71875 0.367188 -2.039062 0.546875 -2.28125 C 0.734375 -2.519531 0.976562 -2.640625 1.28125 -2.640625 C 1.4375 -2.640625 1.570312 -2.601562 1.6875 -2.53125 C 1.8125 -2.46875 1.910156 -2.367188 1.984375 -2.234375 L 1.984375 -2.578125 L 2.40625 -2.578125 Z "/>
</g>
<g id="glyph-0-23">
<path d="M 1.125 -0.703125 L 1.703125 -0.703125 L 1.703125 0 L 1.125 0 Z "/>
</g>
<g id="glyph-0-24">
<path d="M 2.546875 -0.28125 C 2.421875 -0.164062 2.28125 -0.078125 2.125 -0.015625 C 1.96875 0.0351562 1.800781 0.0625 1.625 0.0625 C 1.1875 0.0625 0.84375 -0.09375 0.59375 -0.40625 C 0.351562 -0.71875 0.234375 -1.15625 0.234375 -1.71875 C 0.234375 -2.28125 0.351562 -2.71875 0.59375 -3.03125 C 0.84375 -3.34375 1.1875 -3.5 1.625 -3.5 C 1.769531 -3.5 1.90625 -3.476562 2.03125 -3.4375 C 2.164062 -3.394531 2.296875 -3.332031 2.421875 -3.25 L 2.421875 -2.78125 C 2.296875 -2.894531 2.164062 -2.976562 2.03125 -3.03125 C 1.90625 -3.09375 1.769531 -3.125 1.625 -3.125 C 1.320312 -3.125 1.09375 -3.003906 0.9375 -2.765625 C 0.789062 -2.535156 0.71875 -2.1875 0.71875 -1.71875 C 0.71875 -1.238281 0.789062 -0.882812 0.9375 -0.65625 C 1.082031 -0.425781 1.3125 -0.3125 1.625 -0.3125 C 1.71875 -0.3125 1.800781 -0.320312 1.875 -0.34375 C 1.957031 -0.363281 2.03125 -0.398438 2.09375 -0.453125 L 2.09375 -1.375 L 1.59375 -1.375 L 1.59375 -1.765625 L 2.546875 -1.765625 Z "/>
</g>
<g id="glyph-0-25">
<path d="M 0 -2.578125 L 0.421875 -2.578125 L 0.875 -0.5 L 1.234375 -1.828125 L 1.59375 -1.828125 L 1.96875 -0.5 L 2.421875 -2.578125 L 2.84375 -2.578125 L 2.234375 0 L 1.828125 0 L 1.421875 -1.421875 L 1.015625 0 L 0.609375 0 Z "/>
</g>
</g>
</defs>
<g fill="rgb(96.078431%, 96.862745%, 98.039216%)" fill-opacity="1">
<use xlink:href="#glyph-0-0" x="30" y="24.383789"/>
<use xlink:href="#glyph-0-1" x="33" y="24.383789"/>
<use xlink:href="#glyph-0-2" x="36" y="24.383789"/>
<use xlink:href="#glyph-0-3" x="39" y="24.383789"/>
<use xlink:href="#glyph-0-4" x="42" y="24.383789"/>
<use xlink:href="#glyph-0-5" x="45" y="24.383789"/>
<use xlink:href="#glyph-0-6" x="48" y="24.383789"/>
<use xlink:href="#glyph-0-3" x="51" y="24.383789"/>
<use xlink:href="#glyph-0-7" x="54" y="24.383789"/>
<use xlink:href="#glyph-0-8" x="57" y="24.383789"/>
<use xlink:href="#glyph-0-1" x="60" y="24.383789"/>
<use xlink:href="#glyph-0-9" x="63" y="24.383789"/>
<use xlink:href="#glyph-0-10" x="66" y="24.383789"/>
<use xlink:href="#glyph-0-8" x="69" y="24.383789"/>
<use xlink:href="#glyph-0-7" x="72" y="24.383789"/>
<use xlink:href="#glyph-0-3" x="75" y="24.383789"/>
<use xlink:href="#glyph-0-5" x="78" y="24.383789"/>
<use xlink:href="#glyph-0-11" x="81" y="24.383789"/>
<use xlink:href="#glyph-0-1" x="84" y="24.383789"/>
<use xlink:href="#glyph-0-2" x="87" y="24.383789"/>
<use xlink:href="#glyph-0-9" x="90" y="24.383789"/>
<use xlink:href="#glyph-0-12" x="93" y="24.383789"/>
<use xlink:href="#glyph-0-1" x="96" y="24.383789"/>
<use xlink:href="#glyph-0-7" x="99" y="24.383789"/>
<use xlink:href="#glyph-0-11" x="102" y="24.383789"/>
<use xlink:href="#glyph-0-3" x="105" y="24.383789"/>
<use xlink:href="#glyph-0-13" x="108" y="24.383789"/>
<use xlink:href="#glyph-0-13" x="111" y="24.383789"/>
<use xlink:href="#glyph-0-1" x="114" y="24.383789"/>
<use xlink:href="#glyph-0-2" x="117" y="24.383789"/>
<use xlink:href="#glyph-0-9" x="120" y="24.383789"/>
<use xlink:href="#glyph-0-14" x="123" y="24.383789"/>
<use xlink:href="#glyph-0-1" x="126" y="24.383789"/>
<use xlink:href="#glyph-0-2" x="129" y="24.383789"/>
<use xlink:href="#glyph-0-9" x="132" y="24.383789"/>
<use xlink:href="#glyph-0-15" x="135" y="24.383789"/>
<use xlink:href="#glyph-0-7" x="138" y="24.383789"/>
<use xlink:href="#glyph-0-16" x="141" y="24.383789"/>
<use xlink:href="#glyph-0-17" x="144" y="24.383789"/>
<use xlink:href="#glyph-0-18" x="147" y="24.383789"/>
<use xlink:href="#glyph-0-1" x="150" y="24.383789"/>
<use xlink:href="#glyph-0-2" x="153" y="24.383789"/>
<use xlink:href="#glyph-0-9" x="156" y="24.383789"/>
<use xlink:href="#glyph-0-19" x="159" y="24.383789"/>
<use xlink:href="#glyph-0-2" x="162" y="24.383789"/>
<use xlink:href="#glyph-0-9" x="165" y="24.383789"/>
<use xlink:href="#glyph-0-18" x="168" y="24.383789"/>
<use xlink:href="#glyph-0-3" x="171" y="24.383789"/>
<use xlink:href="#glyph-0-13" x="174" y="24.383789"/>
<use xlink:href="#glyph-0-8" x="177" y="24.383789"/>
<use xlink:href="#glyph-0-9" x="180" y="24.383789"/>
<use xlink:href="#glyph-0-14" x="183" y="24.383789"/>
<use xlink:href="#glyph-0-1" x="186" y="24.383789"/>
<use xlink:href="#glyph-0-7" x="189" y="24.383789"/>
<use xlink:href="#glyph-0-13" x="192" y="24.383789"/>
<use xlink:href="#glyph-0-1" x="195" y="24.383789"/>
<use xlink:href="#glyph-0-11" x="198" y="24.383789"/>
<use xlink:href="#glyph-0-6" x="201" y="24.383789"/>
<use xlink:href="#glyph-0-1" x="204" y="24.383789"/>
<use xlink:href="#glyph-0-2" x="207" y="24.383789"/>
<use xlink:href="#glyph-0-9" x="210" y="24.383789"/>
<use xlink:href="#glyph-0-20" x="213" y="24.383789"/>
<use xlink:href="#glyph-0-19" x="216" y="24.383789"/>
<use xlink:href="#glyph-0-4" x="219" y="24.383789"/>
<use xlink:href="#glyph-0-5" x="222" y="24.383789"/>
<use xlink:href="#glyph-0-8" x="225" y="24.383789"/>
<use xlink:href="#glyph-0-21" x="228" y="24.383789"/>
<use xlink:href="#glyph-0-2" x="231" y="24.383789"/>
<use xlink:href="#glyph-0-22" x="234" y="24.383789"/>
<use xlink:href="#glyph-0-23" x="237" y="24.383789"/>
<use xlink:href="#glyph-0-9" x="240" y="24.383789"/>
<use xlink:href="#glyph-0-24" x="243" y="24.383789"/>
<use xlink:href="#glyph-0-1" x="246" y="24.383789"/>
<use xlink:href="#glyph-0-2" x="249" y="24.383789"/>
<use xlink:href="#glyph-0-3" x="252" y="24.383789"/>
<use xlink:href="#glyph-0-21" x="255" y="24.383789"/>
<use xlink:href="#glyph-0-9" x="258" y="24.383789"/>
<use xlink:href="#glyph-0-14" x="261" y="24.383789"/>
<use xlink:href="#glyph-0-16" x="264" y="24.383789"/>
<use xlink:href="#glyph-0-7" x="267" y="24.383789"/>
<use xlink:href="#glyph-0-8" x="270" y="24.383789"/>
<use xlink:href="#glyph-0-9" x="273" y="24.383789"/>
<use xlink:href="#glyph-0-25" x="276" y="24.383789"/>
<use xlink:href="#glyph-0-19" x="279" y="24.383789"/>
<use xlink:href="#glyph-0-7" x="282" y="24.383789"/>
<use xlink:href="#glyph-0-14" x="285" y="24.383789"/>
<use xlink:href="#glyph-0-9" x="288" y="24.383789"/>
<use xlink:href="#glyph-0-14" x="291" y="24.383789"/>
<use xlink:href="#glyph-0-1" x="294" y="24.383789"/>
<use xlink:href="#glyph-0-7" x="297" y="24.383789"/>
<use xlink:href="#glyph-0-9" x="300" y="24.383789"/>
<use xlink:href="#glyph-0-20" x="303" y="24.383789"/>
<use xlink:href="#glyph-0-1" x="306" y="24.383789"/>
<use xlink:href="#glyph-0-22" x="309" y="24.383789"/>
<use xlink:href="#glyph-0-1" x="312" y="24.383789"/>
<use xlink:href="#glyph-0-2" x="315" y="24.383789"/>
<use xlink:href="#glyph-0-6" x="318" y="24.383789"/>
<use xlink:href="#glyph-0-16" x="321" y="24.383789"/>
<use xlink:href="#glyph-0-22" x="324" y="24.383789"/>
<use xlink:href="#glyph-0-1" x="327" y="24.383789"/>
<use xlink:href="#glyph-0-2" x="330" y="24.383789"/>
<use xlink:href="#glyph-0-9" x="333" y="24.383789"/>
<use xlink:href="#glyph-0-5" x="336" y="24.383789"/>
<use xlink:href="#glyph-0-1" x="339" y="24.383789"/>
<use xlink:href="#glyph-0-11" x="342" y="24.383789"/>
<use xlink:href="#glyph-0-11" x="345" y="24.383789"/>
<use xlink:href="#glyph-0-23" x="348" y="24.383789"/>
</g>
</svg>
