<?xml version="1.0" encoding="UTF-8"?>
<svg xmlns="http://www.w3.org/2000/svg" xmlns:xlink="http://www.w3.org/1999/xlink" width="1920" height="1080" viewBox="0 0 1920 1080">
<defs>
<g>
<g id="glyph-0-0">
<path d="M 0.90625 -2.171875 C 0.90625 -2.398438 0.984375 -2.597656 1.140625 -2.765625 C 1.304688 -2.929688 1.507812 -3.015625 1.75 -3.015625 C 1.988281 -3.015625 2.1875 -2.929688 2.34375 -2.765625 C 2.507812 -2.597656 2.59375 -2.398438 2.59375 -2.171875 C 2.59375 -1.929688 2.507812 -1.726562 2.34375 -1.5625 C 2.1875 -1.40625 1.988281 -1.328125 1.75 -1.328125 C 1.507812 -1.328125 1.304688 -1.40625 1.140625 -1.5625 C 0.984375 -1.726562 0.90625 -1.929688 0.90625 -2.171875 Z "/>
</g>
<g id="glyph-0-1">
</g>
<g id="glyph-0-2">
<path d="M 0.765625 -0.484375 L 1.65625 -0.484375 L 1.65625 -3.734375 L 0.703125 -3.515625 L 0.703125 -4.03125 L 1.65625 -4.25 L 2.234375 -4.25 L 2.234375 -0.484375 L 3.109375 -0.484375 L 3.109375 0 L 0.765625 0 Z "/>
</g>
<g id="glyph-0-3">
<path d="M 1.390625 -0.875 L 2.109375 -0.875 L 2.109375 0 L 1.390625 0 Z "/>
</g>
<g id="glyph-0-4">
<path d="M 0.5625 -4.25 L 3.078125 -4.25 L 3.078125 -3.765625 L 1.140625 -3.765625 L 1.140625 -2.5 L 3 -2.5 L 3 -2.015625 L 1.140625 -2.015625 L 1.140625 -0.484375 L 3.140625 -0.484375 L 3.140625 0 L 0.5625 0 Z "/>
</g>
<g id="glyph-0-5">
<path d="M 0.734375 -3.1875 L 2.0625 -3.1875 L 2.0625 -0.40625 L 3.109375 -0.40625 L 3.109375 0 L 0.5 0 L 0.5 -0.40625 L 1.546875 -0.40625 L 1.546875 -2.78125 L 0.734375 -2.78125 Z M 1.546875 -4.421875 L 2.0625 -4.421875 L 2.0625 -3.765625 L 1.546875 -3.765625 Z "/>
</g>
<g id="glyph-0-6">
<path d="M 2.984375 -1.96875 L 2.984375 0 L 2.46875 0 L 2.46875 -1.96875 C 2.46875 -2.257812 2.414062 -2.472656 2.3125 -2.609375 C 2.207031 -2.742188 2.050781 -2.8125 1.84375 -2.8125 C 1.59375 -2.8125 1.398438 -2.722656 1.265625 -2.546875 C 1.140625 -2.367188 1.078125 -2.117188 1.078125 -1.796875 L 1.078125 0 L 0.5625 0 L 0.5625 -3.1875 L 1.078125 -3.1875 L 1.078125 -2.703125 C 1.171875 -2.890625 1.296875 -3.03125 1.453125 -3.125 C 1.617188 -3.21875 1.804688 -3.265625 2.015625 -3.265625 C 2.347656 -3.265625 2.59375 -3.15625 2.75 -2.9375 C 2.90625 -2.726562 2.984375 -2.40625 2.984375 -1.96875 Z "/>
</g>
<g id="glyph-0-7">
<path d="M 1.75 -4.09375 L 1.75 -3.1875 L 2.9375 -3.1875 L 2.9375 -2.78125 L 1.75 -2.78125 L 1.75 -1.046875 C 1.75 -0.816406 1.789062 -0.65625 1.875 -0.5625 C 1.96875 -0.46875 2.125 -0.421875 2.34375 -0.421875 L 2.9375 -0.421875 L 2.9375 0 L 2.296875 0 C 1.898438 0 1.617188 -0.078125 1.453125 -0.234375 C 1.296875 -0.390625 1.21875 -0.660156 1.21875 -1.046875 L 1.21875 -2.78125 L 0.375 -2.78125 L 0.375 -3.1875 L 1.21875 -3.1875 L 1.21875 -4.09375 Z "/>
</g>
<g id="glyph-0-8">
<path d="M 3.28125 -2.53125 C 3.175781 -2.613281 3.0625 -2.675781 2.9375 -2.71875 C 2.820312 -2.757812 2.695312 -2.78125 2.5625 -2.78125 C 2.238281 -2.78125 1.988281 -2.675781 1.8125 -2.46875 C 1.644531 -2.269531 1.5625 -1.972656 1.5625 -1.578125 L 1.5625 0 L 1.03125 0 L 1.03125 -3.1875 L 1.5625 -3.1875 L 1.5625 -2.5625 C 1.644531 -2.789062 1.773438 -2.960938 1.953125 -3.078125 C 2.140625 -3.203125 2.359375 -3.265625 2.609375 -3.265625 C 2.734375 -3.265625 2.851562 -3.25 2.96875 -3.21875 C 3.082031 -3.1875 3.1875 -3.132812 3.28125 -3.0625 Z "/>
</g>
<g id="glyph-0-9">
<path d="M 1.390625 -3.03125 L 2.109375 -3.03125 L 2.109375 -2.15625 L 1.390625 -2.15625 Z M 1.390625 -0.875 L 2.109375 -0.875 L 2.109375 0 L 1.390625 0 Z "/>
</g>
<g id="glyph-0-10">
<path d="M 1.046875 -2.03125 L 1.046875 -0.46875 L 1.734375 -0.46875 C 2.066406 -0.46875 2.300781 -0.523438 2.4375 -0.640625 C 2.582031 -0.765625 2.65625 -0.957031 2.65625 -1.21875 C 2.65625 -1.5 2.578125 -1.703125 2.421875 -1.828125 C 2.273438 -1.960938 2.046875 -2.03125 1.734375 -2.03125 Z M 1.046875 -3.78125 L 1.046875 -2.5 L 1.71875 -2.5 C 2 -2.5 2.195312 -2.550781 2.3125 -2.65625 C 2.4375 -2.757812 2.5 -2.929688 2.5 -3.171875 C 2.5 -3.378906 2.4375 -3.53125 2.3125 -3.625 C 2.195312 -3.726562 2 -3.78125 1.71875 -3.78125 Z M 0.46875 -4.25 L 1.734375 -4.25 C 2.160156 -4.25 2.492188 -4.15625 2.734375 -3.96875 C 2.972656 -3.78125 3.09375 -3.515625 3.09375 -3.171875 C 3.09375 -2.910156 3.03125 -2.703125 2.90625 -2.546875 C 2.78125 -2.398438 2.59375 -2.3125 2.34375 -2.28125 C 2.625 -2.238281 2.84375 -2.117188 3 -1.921875 C 3.15625 -1.722656 3.234375 -1.472656 3.234375 -1.171875 C 3.234375 -0.785156 3.109375 -0.492188 2.859375 -0.296875 C 2.609375 -0.0976562 2.234375 0 1.734375 0 L 0.46875 0 Z "/>
</g>
<g id="glyph-0-11">
<path d="M 3.171875 -1.71875 L 3.171875 -1.46875 L 0.890625 -1.46875 L 0.890625 -1.453125 C 0.890625 -1.109375 0.976562 -0.835938 1.15625 -0.640625 C 1.34375 -0.453125 1.601562 -0.359375 1.9375 -0.359375 C 2.101562 -0.359375 2.273438 -0.382812 2.453125 -0.4375 C 2.640625 -0.488281 2.835938 -0.570312 3.046875 -0.6875 L 3.046875 -0.15625 C 2.847656 -0.0820312 2.65625 -0.0234375 2.46875 0.015625 C 2.28125 0.0546875 2.097656 0.078125 1.921875 0.078125 C 1.429688 0.078125 1.046875 -0.0664062 0.765625 -0.359375 C 0.484375 -0.660156 0.34375 -1.070312 0.34375 -1.59375 C 0.34375 -2.101562 0.476562 -2.507812 0.75 -2.8125 C 1.03125 -3.113281 1.398438 -3.265625 1.859375 -3.265625 C 2.265625 -3.265625 2.582031 -3.125 2.8125 -2.84375 C 3.050781 -2.570312 3.171875 -2.195312 3.171875 -1.71875 Z M 2.640625 -1.875 C 2.628906 -2.1875 2.554688 -2.421875 2.421875 -2.578125 C 2.285156 -2.734375 2.085938 -2.8125 1.828125 -2.8125 C 1.578125 -2.8125 1.367188 -2.726562 1.203125 -2.5625 C 1.046875 -2.394531 0.953125 -2.164062 0.921875 -1.875 Z "/>
</g>
<g id="glyph-0-12">
<path d="M 3.015625 -0.15625 C 2.878906 -0.0820312 2.734375 -0.0234375 2.578125 0.015625 C 2.429688 0.0546875 2.28125 0.078125 2.125 0.078125 C 1.632812 0.078125 1.25 -0.0664062 0.96875 -0.359375 C 0.695312 -0.660156 0.5625 -1.070312 0.5625 -1.59375 C 0.5625 -2.113281 0.695312 -2.519531 0.96875 -2.8125 C 1.25 -3.113281 1.632812 -3.265625 2.125 -3.265625 C 2.28125 -3.265625 2.429688 -3.242188 2.578125 -3.203125 C 2.722656 -3.160156 2.867188 -3.097656 3.015625 -3.015625 L 3.015625 -2.46875 C 2.878906 -2.59375 2.738281 -2.679688 2.59375 -2.734375 C 2.457031 -2.785156 2.300781 -2.8125 2.125 -2.8125 C 1.800781 -2.8125 1.550781 -2.707031 1.375 -2.5 C 1.195312 -2.289062 1.109375 -1.988281 1.109375 -1.59375 C 1.109375 -1.195312 1.195312 -0.890625 1.375 -0.671875 C 1.550781 -0.460938 1.800781 -0.359375 2.125 -0.359375 C 2.3125 -0.359375 2.472656 -0.382812 2.609375 -0.4375 C 2.753906 -0.5 2.890625 -0.585938 3.015625 -0.703125 Z "/>
</g>
<g id="glyph-0-13">
<path d="M 2.984375 -1.96875 L 2.984375 0 L 2.46875 0 L 2.46875 -1.96875 C 2.46875 -2.257812 2.414062 -2.472656 2.3125 -2.609375 C 2.207031 -2.742188 2.050781 -2.8125 1.84375 -2.8125 C 1.59375 -2.8125 1.398438 -2.722656 1.265625 -2.546875 C 1.140625 -2.367188 1.078125 -2.117188 1.078125 -1.796875 L 1.078125 0 L 0.5625 0 L 0.5625 -4.421875 L 1.078125 -4.421875 L 1.078125 -2.703125 C 1.171875 -2.890625 1.296875 -3.03125 1.453125 -3.125 C 1.617188 -3.21875 1.804688 -3.265625 2.015625 -3.265625 C 2.347656 -3.265625 2.59375 -3.15625 2.75 -2.9375 C 2.90625 -2.726562 2.984375 -2.40625 2.984375 -1.96875 Z "/>
</g>
<g id="glyph-0-14">
<path d="M 0.5625 -1.203125 L 0.5625 -3.1875 L 1.078125 -3.1875 L 1.078125 -1.203125 C 1.078125 -0.921875 1.128906 -0.710938 1.234375 -0.578125 C 1.335938 -0.441406 1.492188 -0.375 1.703125 -0.375 C 1.953125 -0.375 2.140625 -0.457031 2.265625 -0.625 C 2.398438 -0.800781 2.46875 -1.050781 2.46875 -1.375 L 2.46875 -3.1875 L 2.984375 -3.1875 L 2.984375 0 L 2.46875 0 L 2.46875 -0.484375 C 2.375 -0.296875 2.242188 -0.15625 2.078125 -0.0625 C 1.921875 0.03125 1.734375 0.078125 1.515625 0.078125 C 1.191406 0.078125 0.953125 -0.0234375 0.796875 -0.234375 C 0.640625 -0.453125 0.5625 -0.773438 0.5625 -1.203125 Z "/>
</g>
<g id="glyph-0-15">
<path d="M 2.4375 -1.625 C 2.4375 -2.007812 2.375 -2.300781 2.25 -2.5 C 2.125 -2.707031 1.9375 -2.8125 1.6875 -2.8125 C 1.4375 -2.8125 1.242188 -2.707031 1.109375 -2.5 C 0.972656 -2.300781 0.90625 -2.007812 0.90625 -1.625 C 0.90625 -1.226562 0.972656 -0.925781 1.109375 -0.71875 C 1.242188 -0.507812 1.441406 -0.40625 1.703125 -0.40625 C 1.941406 -0.40625 2.125 -0.507812 2.25 -0.71875 C 2.375 -0.925781 2.4375 -1.226562 2.4375 -1.625 Z M 2.96875 -0.203125 C 2.96875 0.273438 2.851562 0.632812 2.625 0.875 C 2.394531 1.125 2.0625 1.25 1.625 1.25 C 1.488281 1.25 1.335938 1.234375 1.171875 1.203125 C 1.015625 1.179688 0.859375 1.144531 0.703125 1.09375 L 0.703125 0.578125 C 0.890625 0.660156 1.054688 0.722656 1.203125 0.765625 C 1.359375 0.804688 1.5 0.828125 1.625 0.828125 C 1.90625 0.828125 2.109375 0.75 2.234375 0.59375 C 2.367188 0.445312 2.4375 0.207031 2.4375 -0.125 L 2.4375 -0.5 C 2.351562 -0.320312 2.238281 -0.191406 2.09375 -0.109375 C 1.957031 -0.0234375 1.785156 0.015625 1.578125 0.015625 C 1.203125 0.015625 0.898438 -0.128906 0.671875 -0.421875 C 0.453125 -0.722656 0.34375 -1.125 0.34375 -1.625 C 0.34375 -2.125 0.453125 -2.519531 0.671875 -2.8125 C 0.898438 -3.113281 1.203125 -3.265625 1.578125 -3.265625 C 1.773438 -3.265625 1.945312 -3.222656 2.09375 -3.140625 C 2.238281 -3.054688 2.351562 -2.929688 2.4375 -2.765625 L 2.4375 -3.171875 L 2.96875 -3.171875 Z "/>
</g>
</g>
</defs>
<g fill="rgb(96.862745%, 98.431373%, 100%)" fill-opacity="1">
<use xlink:href="#glyph-0-0" x="30" y="25.414062"/>
<use xlink:href="#glyph-0-1" x="34" y="25.414062"/>
<use xlink:href="#glyph-0-2" x="38" y="25.414062"/>
<use xlink:href="#glyph-0-3" x="42" y="25.414062"/>
<use xlink:href="#glyph-0-1" x="46" y="25.414062"/>
<use xlink:href="#glyph-0-4" x="50" y="25.414062"/>
<use xlink:href="#glyph-0-5" x="54" y="25.414062"/>
<use xlink:href="#glyph-0-6" x="58" y="25.414062"/>
<use xlink:href="#glyph-0-7" x="62" y="25.414062"/>
<use xlink:href="#glyph-0-8" x="66" y="25.414062"/>
<use xlink:href="#glyph-0-5" x="70" y="25.414062"/>
<use xlink:href="#glyph-0-7" x="74" y="25.414062"/>
<use xlink:href="#glyph-0-7" x="78" y="25.414062"/>
<use xlink:href="#glyph-0-9" x="82" y="25.414062"/>
<use xlink:href="#glyph-0-1" x="86" y="25.414062"/>
<use xlink:href="#glyph-0-10" x="90" y="25.414062"/>
<use xlink:href="#glyph-0-8" x="94" y="25.414062"/>
<use xlink:href="#glyph-0-11" x="98" y="25.414062"/>
<use xlink:href="#glyph-0-12" x="102" y="25.414062"/>
<use xlink:href="#glyph-0-13" x="106" y="25.414062"/>
<use xlink:href="#glyph-0-14" x="110" y="25.414062"/>
<use xlink:href="#glyph-0-6" x="114" y="25.414062"/>
<use xlink:href="#glyph-0-15" x="118" y="25.414062"/>
</g>
</svg>
