<?xml version="1.0" encoding="UTF-8"?>
<svg xmlns="http://www.w3.org/2000/svg" xmlns:xlink="http://www.w3.org/1999/xlink" width="1920" height="1080" viewBox="0 0 1920 1080">
<defs>
<g>
<g id="glyph-0-0">
<path d="M 1.640625 -1.53125 C 1.753906 -1.5 1.847656 -1.441406 1.921875 -1.359375 C 2.003906 -1.285156 2.109375 -1.128906 2.234375 -0.890625 L 2.671875 0 L 2.203125 0 L 1.8125 -0.8125 C 1.707031 -1.050781 1.609375 -1.203125 1.515625 -1.265625 C 1.421875 -1.335938 1.304688 -1.375 1.171875 -1.375 L 0.75 -1.375 L 0.75 0 L 0.3125 0 L 0.3125 -3.234375 L 1.21875 -3.234375 C 1.570312 -3.234375 1.84375 -3.148438 2.03125 -2.984375 C 2.21875 -2.828125 2.3125 -2.597656 2.3125 -2.296875 C 2.3125 -2.085938 2.253906 -1.914062 2.140625 -1.78125 C 2.023438 -1.644531 1.859375 -1.5625 1.640625 -1.53125 Z M 0.75 -2.875 L 0.75 -1.734375 L 1.234375 -1.734375 C 1.441406 -1.734375 1.59375 -1.78125 1.6875 -1.875 C 1.789062 -1.96875 1.84375 -2.109375 1.84375 -2.296875 C 1.84375 -2.484375 1.785156 -2.625 1.671875 -2.71875 C 1.566406 -2.820312 1.414062 -2.875 1.21875 -2.875 Z "/>
</g>
<g id="glyph-0-1">
<path d="M 1.328125 -2.140625 C 1.128906 -2.140625 0.976562 -2.0625 0.875 -1.90625 C 0.769531 -1.75 0.71875 -1.519531 0.71875 -1.21875 C 0.71875 -0.90625 0.769531 -0.671875 0.875 -0.515625 C 0.976562 -0.359375 1.128906 -0.28125 1.328125 -0.28125 C 1.535156 -0.28125 1.691406 -0.359375 1.796875 -0.515625 C 1.898438 -0.671875 1.953125 -0.90625 1.953125 -1.21875 C 1.953125 -1.519531 1.898438 -1.75 1.796875 -1.90625 C 1.691406 -2.0625 1.535156 -2.140625 1.328125 -2.140625 Z M 1.328125 -2.484375 C 1.671875 -2.484375 1.929688 -2.375 2.109375 -2.15625 C 2.285156 -1.9375 2.375 -1.625 2.375 -1.21875 C 2.375 -0.800781 2.285156 -0.484375 2.109375 -0.265625 C 1.929688 -0.046875 1.671875 0.0625 1.328125 0.0625 C 0.992188 0.0625 0.738281 -0.046875 0.5625 -0.265625 C 0.382812 -0.484375 0.296875 -0.800781 0.296875 -1.21875 C 0.296875 -1.625 0.382812 -1.9375 0.5625 -2.15625 C 0.738281 -2.375 0.992188 -2.484375 1.328125 -2.484375 Z "/>
</g>
<g id="glyph-0-2">
<path d="M 1.328125 -3.109375 L 1.328125 -2.421875 L 2.234375 -2.421875 L 2.234375 -2.109375 L 1.328125 -2.109375 L 1.328125 -0.796875 C 1.328125 -0.617188 1.359375 -0.492188 1.421875 -0.421875 C 1.492188 -0.347656 1.613281 -0.3125 1.78125 -0.3125 L 2.234375 -0.3125 L 2.234375 0 L 1.75 0 C 1.445312 0 1.234375 -0.0546875 1.109375 -0.171875 C 0.992188 -0.296875 0.9375 -0.503906 0.9375 -0.796875 L 0.9375 -2.109375 L 0.28125 -2.109375 L 0.28125 -2.421875 L 0.9375 -2.421875 L 0.9375 -3.109375 Z "/>
</g>
</g>
</defs>
<g fill="rgb(100%, 0%, 0%)" fill-opacity="1">
<use xlink:href="#glyph-0-0" x="30" y="24.125"/>
<use xlink:href="#glyph-0-1" x="33" y="24.125"/>
<use xlink:href="#glyph-0-2" x="36" y="24.125"/>
</g>
</svg>
