<?xml version="1.0" encoding="UTF-8"?>
<svg xmlns="http://www.w3.org/2000/svg" xmlns:xlink="http://www.w3.org/1999/xlink" width="1920" height="1080" viewBox="0 0 1920 1080">
<defs>
<g>
<g id="glyph-0-0">
<path d="M 2.46875 -3.515625 L 2.46875 -3.015625 C 2.320312 -3.117188 2.171875 -3.191406 2.015625 -3.234375 C 1.867188 -3.285156 1.71875 -3.3125 1.5625 -3.3125 C 1.332031 -3.3125 1.148438 -3.253906 1.015625 -3.140625 C 0.878906 -3.035156 0.8125 -2.890625 0.8125 -2.703125 C 0.8125 -2.546875 0.851562 -2.425781 0.9375 -2.34375 C 1.03125 -2.257812 1.195312 -2.1875 1.4375 -2.125 L 1.703125 -2.078125 C 2.046875 -1.992188 2.296875 -1.863281 2.453125 -1.6875 C 2.609375 -1.519531 2.6875 -1.289062 2.6875 -1 C 2.6875 -0.644531 2.578125 -0.375 2.359375 -0.1875 C 2.140625 -0.0078125 1.828125 0.078125 1.421875 0.078125 C 1.253906 0.078125 1.082031 0.0546875 0.90625 0.015625 C 0.726562 -0.0234375 0.554688 -0.0820312 0.390625 -0.15625 L 0.390625 -0.671875 C 0.578125 -0.554688 0.753906 -0.46875 0.921875 -0.40625 C 1.085938 -0.351562 1.253906 -0.328125 1.421875 -0.328125 C 1.671875 -0.328125 1.863281 -0.382812 2 -0.5 C 2.132812 -0.613281 2.203125 -0.769531 2.203125 -0.96875 C 2.203125 -1.144531 2.15625 -1.28125 2.0625 -1.375 C 1.96875 -1.476562 1.800781 -1.554688 1.5625 -1.609375 L 1.3125 -1.671875 C 0.96875 -1.742188 0.71875 -1.859375 0.5625 -2.015625 C 0.414062 -2.171875 0.34375 -2.378906 0.34375 -2.640625 C 0.34375 -2.960938 0.453125 -3.222656 0.671875 -3.421875 C 0.890625 -3.617188 1.179688 -3.71875 1.546875 -3.71875 C 1.679688 -3.71875 1.828125 -3.695312 1.984375 -3.65625 C 2.140625 -3.625 2.300781 -3.578125 2.46875 -3.515625 Z "/>
</g>
<g id="glyph-0-1">
<path d="M 1.5625 -0.984375 C 1.5625 -0.785156 1.597656 -0.632812 1.671875 -0.53125 C 1.742188 -0.425781 1.851562 -0.375 2 -0.375 L 2.53125 -0.375 L 2.53125 0 L 1.953125 0 C 1.679688 0 1.472656 -0.0820312 1.328125 -0.25 C 1.179688 -0.425781 1.109375 -0.671875 1.109375 -0.984375 L 1.109375 -3.46875 L 0.390625 -3.46875 L 0.390625 -3.828125 L 1.5625 -3.828125 Z "/>
</g>
<g id="glyph-0-2">
<path d="M 0.625 -2.734375 L 1.78125 -2.734375 L 1.78125 -0.34375 L 2.671875 -0.34375 L 2.671875 0 L 0.4375 0 L 0.4375 -0.34375 L 1.328125 -0.34375 L 1.328125 -2.390625 L 0.625 -2.390625 Z M 1.328125 -3.796875 L 1.78125 -3.796875 L 1.78125 -3.234375 L 1.328125 -3.234375 Z "/>
</g>
<g id="glyph-0-3">
<path d="M 2.09375 -2.390625 L 2.09375 -3.796875 L 2.546875 -3.796875 L 2.546875 0 L 2.09375 0 L 2.09375 -0.34375 C 2.019531 -0.207031 1.921875 -0.101562 1.796875 -0.03125 C 1.671875 0.0390625 1.523438 0.078125 1.359375 0.078125 C 1.035156 0.078125 0.773438 -0.0507812 0.578125 -0.3125 C 0.390625 -0.570312 0.296875 -0.925781 0.296875 -1.375 C 0.296875 -1.820312 0.390625 -2.171875 0.578125 -2.421875 C 0.773438 -2.671875 1.035156 -2.796875 1.359375 -2.796875 C 1.523438 -2.796875 1.671875 -2.757812 1.796875 -2.6875 C 1.921875 -2.625 2.019531 -2.523438 2.09375 -2.390625 Z M 0.78125 -1.359375 C 0.78125 -1.015625 0.832031 -0.753906 0.9375 -0.578125 C 1.050781 -0.398438 1.21875 -0.3125 1.4375 -0.3125 C 1.644531 -0.3125 1.804688 -0.398438 1.921875 -0.578125 C 2.035156 -0.753906 2.09375 -1.015625 2.09375 -1.359375 C 2.09375 -1.710938 2.035156 -1.976562 1.921875 -2.15625 C 1.804688 -2.332031 1.644531 -2.421875 1.4375 -2.421875 C 1.21875 -2.421875 1.050781 -2.332031 0.9375 -2.15625 C 0.832031 -1.976562 0.78125 -1.710938 0.78125 -1.359375 Z "/>
</g>
<g id="glyph-0-4">
<path d="M 2.71875 -1.484375 L 2.71875 -1.265625 L 0.765625 -1.265625 L 0.765625 -1.25 C 0.765625 -0.945312 0.84375 -0.710938 1 -0.546875 C 1.15625 -0.390625 1.375 -0.3125 1.65625 -0.3125 C 1.800781 -0.3125 1.953125 -0.332031 2.109375 -0.375 C 2.265625 -0.425781 2.429688 -0.5 2.609375 -0.59375 L 2.609375 -0.140625 C 2.441406 -0.0664062 2.273438 -0.015625 2.109375 0.015625 C 1.953125 0.0546875 1.800781 0.078125 1.65625 0.078125 C 1.226562 0.078125 0.894531 -0.046875 0.65625 -0.296875 C 0.414062 -0.554688 0.296875 -0.910156 0.296875 -1.359375 C 0.296875 -1.796875 0.410156 -2.144531 0.640625 -2.40625 C 0.878906 -2.664062 1.195312 -2.796875 1.59375 -2.796875 C 1.9375 -2.796875 2.207031 -2.675781 2.40625 -2.4375 C 2.613281 -2.207031 2.71875 -1.890625 2.71875 -1.484375 Z M 2.265625 -1.609375 C 2.253906 -1.867188 2.191406 -2.066406 2.078125 -2.203125 C 1.960938 -2.347656 1.789062 -2.421875 1.5625 -2.421875 C 1.351562 -2.421875 1.175781 -2.347656 1.03125 -2.203125 C 0.894531 -2.054688 0.8125 -1.859375 0.78125 -1.609375 Z "/>
</g>
<g id="glyph-0-5">
</g>
<g id="glyph-0-6">
<path d="M 0.90625 -0.421875 L 2.578125 -0.421875 L 2.578125 0 L 0.375 0 L 0.375 -0.421875 C 0.675781 -0.734375 0.941406 -1.015625 1.171875 -1.265625 C 1.398438 -1.515625 1.554688 -1.6875 1.640625 -1.78125 C 1.804688 -1.976562 1.914062 -2.140625 1.96875 -2.265625 C 2.03125 -2.390625 2.0625 -2.515625 2.0625 -2.640625 C 2.0625 -2.847656 2 -3.007812 1.875 -3.125 C 1.757812 -3.238281 1.597656 -3.296875 1.390625 -3.296875 C 1.234375 -3.296875 1.070312 -3.269531 0.90625 -3.21875 C 0.75 -3.164062 0.582031 -3.082031 0.40625 -2.96875 L 0.40625 -3.46875 C 0.570312 -3.550781 0.734375 -3.613281 0.890625 -3.65625 C 1.054688 -3.695312 1.21875 -3.71875 1.375 -3.71875 C 1.726562 -3.71875 2.015625 -3.617188 2.234375 -3.421875 C 2.453125 -3.234375 2.5625 -2.988281 2.5625 -2.6875 C 2.5625 -2.53125 2.523438 -2.375 2.453125 -2.21875 C 2.378906 -2.0625 2.257812 -1.882812 2.09375 -1.6875 C 2.007812 -1.582031 1.878906 -1.4375 1.703125 -1.25 C 1.523438 -1.0625 1.257812 -0.785156 0.90625 -0.421875 Z "/>
</g>
</g>
</defs>
<g fill="rgb(62.352941%, 70.196078%, 78.431373%)" fill-opacity="1">
<use xlink:href="#glyph-0-0" x="30" y="24.641602"/>
<use xlink:href="#glyph-0-1" x="33" y="24.641602"/>
<use xlink:href="#glyph-0-2" x="36" y="24.641602"/>
<use xlink:href="#glyph-0-3" x="39" y="24.641602"/>
<use xlink:href="#glyph-0-4" x="42" y="24.641602"/>
<use xlink:href="#glyph-0-5" x="45" y="24.641602"/>
<use xlink:href="#glyph-0-6" x="48" y="24.641602"/>
</g>
</svg>
