<?xml version="1.0" encoding="UTF-8"?>
<svg xmlns="http://www.w3.org/2000/svg" xmlns:xlink="http://www.w3.org/1999/xlink" width="1920" height="1080" viewBox="0 0 1920 1080">
<defs>
<g>
<g id="glyph-0-0">
<path d="M 1.5 -3.203125 L 0.984375 -1.34375 L 2.03125 -1.34375 Z M 1.203125 -3.640625 L 1.796875 -3.640625 L 2.921875 0 L 2.40625 0 L 2.140625 -0.953125 L 0.859375 -0.953125 L 0.59375 0 L 0.09375 0 Z "/>
</g>
<g id="glyph-0-1">
<path d="M 1.5 -3.515625 L 1.5 -2.734375 L 2.515625 -2.734375 L 2.515625 -2.390625 L 1.5 -2.390625 L 1.5 -0.90625 C 1.5 -0.695312 1.535156 -0.550781 1.609375 -0.46875 C 1.691406 -0.394531 1.828125 -0.359375 2.015625 -0.359375 L 2.515625 -0.359375 L 2.515625 0 L 1.96875 0 C 1.632812 0 1.394531 -0.0664062 1.25 -0.203125 C 1.113281 -0.335938 1.046875 -0.570312 1.046875 -0.90625 L 1.046875 -2.390625 L 0.3125 -2.390625 L 0.3125 -2.734375 L 1.046875 -2.734375 L 1.046875 -3.515625 Z "/>
</g>
<g id="glyph-0-2">
<path d="M 1.5 -2.421875 C 1.269531 -2.421875 1.097656 -2.332031 0.984375 -2.15625 C 0.867188 -1.976562 0.8125 -1.710938 0.8125 -1.359375 C 0.8125 -1.015625 0.867188 -0.753906 0.984375 -0.578125 C 1.097656 -0.398438 1.269531 -0.3125 1.5 -0.3125 C 1.726562 -0.3125 1.898438 -0.398438 2.015625 -0.578125 C 2.140625 -0.753906 2.203125 -1.015625 2.203125 -1.359375 C 2.203125 -1.710938 2.140625 -1.976562 2.015625 -2.15625 C 1.898438 -2.332031 1.726562 -2.421875 1.5 -2.421875 Z M 1.5 -2.796875 C 1.882812 -2.796875 2.175781 -2.671875 2.375 -2.421875 C 2.570312 -2.179688 2.671875 -1.828125 2.671875 -1.359375 C 2.671875 -0.898438 2.570312 -0.546875 2.375 -0.296875 C 2.175781 -0.046875 1.882812 0.078125 1.5 0.078125 C 1.125 0.078125 0.832031 -0.046875 0.625 -0.296875 C 0.425781 -0.546875 0.328125 -0.898438 0.328125 -1.359375 C 0.328125 -1.828125 0.425781 -2.179688 0.625 -2.421875 C 0.832031 -2.671875 1.125 -2.796875 1.5 -2.796875 Z "/>
</g>
<g id="glyph-0-3">
<path d="M 1.65625 -2.453125 C 1.707031 -2.566406 1.773438 -2.648438 1.859375 -2.703125 C 1.941406 -2.765625 2.046875 -2.796875 2.171875 -2.796875 C 2.390625 -2.796875 2.539062 -2.710938 2.625 -2.546875 C 2.71875 -2.378906 2.765625 -2.054688 2.765625 -1.578125 L 2.765625 0 L 2.359375 0 L 2.359375 -1.5625 C 2.359375 -1.945312 2.335938 -2.1875 2.296875 -2.28125 C 2.253906 -2.375 2.175781 -2.421875 2.0625 -2.421875 C 1.925781 -2.421875 1.832031 -2.367188 1.78125 -2.265625 C 1.738281 -2.171875 1.71875 -1.9375 1.71875 -1.5625 L 1.71875 0 L 1.3125 0 L 1.3125 -1.5625 C 1.3125 -1.957031 1.285156 -2.195312 1.234375 -2.28125 C 1.191406 -2.375 1.109375 -2.421875 0.984375 -2.421875 C 0.867188 -2.421875 0.785156 -2.367188 0.734375 -2.265625 C 0.691406 -2.171875 0.671875 -1.9375 0.671875 -1.5625 L 0.671875 0 L 0.265625 0 L 0.265625 -2.734375 L 0.671875 -2.734375 L 0.671875 -2.5 C 0.722656 -2.59375 0.789062 -2.664062 0.875 -2.71875 C 0.957031 -2.769531 1.050781 -2.796875 1.15625 -2.796875 C 1.269531 -2.796875 1.367188 -2.765625 1.453125 -2.703125 C 1.535156 -2.648438 1.601562 -2.566406 1.65625 -2.453125 Z "/>
</g>
<g id="glyph-0-4">
<path d="M 0.578125 -3.796875 L 1.046875 -3.796875 L 1.046875 -1.59375 L 2.21875 -2.734375 L 2.765625 -2.734375 L 1.6875 -1.703125 L 2.9375 0 L 2.390625 0 L 1.375 -1.40625 L 1.046875 -1.09375 L 1.046875 0 L 0.578125 0 Z "/>
</g>
<g id="glyph-0-5">
<path d="M 2.71875 -1.484375 L 2.71875 -1.265625 L 0.765625 -1.265625 L 0.765625 -1.25 C 0.765625 -0.945312 0.84375 -0.710938 1 -0.546875 C 1.15625 -0.390625 1.375 -0.3125 1.65625 -0.3125 C 1.800781 -0.3125 1.953125 -0.332031 2.109375 -0.375 C 2.265625 -0.425781 2.429688 -0.5 2.609375 -0.59375 L 2.609375 -0.140625 C 2.441406 -0.0664062 2.273438 -0.015625 2.109375 0.015625 C 1.953125 0.0546875 1.800781 0.078125 1.65625 0.078125 C 1.226562 0.078125 0.894531 -0.046875 0.65625 -0.296875 C 0.414062 -0.554688 0.296875 -0.910156 0.296875 -1.359375 C 0.296875 -1.796875 0.410156 -2.144531 0.640625 -2.40625 C 0.878906 -2.664062 1.195312 -2.796875 1.59375 -2.796875 C 1.9375 -2.796875 2.207031 -2.675781 2.40625 -2.4375 C 2.613281 -2.207031 2.71875 -1.890625 2.71875 -1.484375 Z M 2.265625 -1.609375 C 2.253906 -1.867188 2.191406 -2.066406 2.078125 -2.203125 C 1.960938 -2.347656 1.789062 -2.421875 1.5625 -2.421875 C 1.351562 -2.421875 1.175781 -2.347656 1.03125 -2.203125 C 0.894531 -2.054688 0.8125 -1.859375 0.78125 -1.609375 Z "/>
</g>
<g id="glyph-0-6">
<path d="M 2.8125 -2.171875 C 2.71875 -2.242188 2.617188 -2.296875 2.515625 -2.328125 C 2.421875 -2.367188 2.316406 -2.390625 2.203125 -2.390625 C 1.921875 -2.390625 1.703125 -2.300781 1.546875 -2.125 C 1.398438 -1.945312 1.328125 -1.691406 1.328125 -1.359375 L 1.328125 0 L 0.890625 0 L 0.890625 -2.734375 L 1.328125 -2.734375 L 1.328125 -2.203125 C 1.410156 -2.390625 1.53125 -2.535156 1.6875 -2.640625 C 1.84375 -2.742188 2.023438 -2.796875 2.234375 -2.796875 C 2.347656 -2.796875 2.453125 -2.78125 2.546875 -2.75 C 2.640625 -2.726562 2.726562 -2.6875 2.8125 -2.625 Z "/>
</g>
<g id="glyph-0-7">
<path d="M 2.5625 -1.6875 L 2.5625 0 L 2.109375 0 L 2.109375 -1.6875 C 2.109375 -1.9375 2.066406 -2.117188 1.984375 -2.234375 C 1.898438 -2.347656 1.765625 -2.40625 1.578125 -2.40625 C 1.367188 -2.40625 1.207031 -2.332031 1.09375 -2.1875 C 0.976562 -2.039062 0.921875 -1.828125 0.921875 -1.546875 L 0.921875 0 L 0.46875 0 L 0.46875 -2.734375 L 0.921875 -2.734375 L 0.921875 -2.328125 C 1.003906 -2.484375 1.113281 -2.597656 1.25 -2.671875 C 1.382812 -2.753906 1.546875 -2.796875 1.734375 -2.796875 C 2.015625 -2.796875 2.222656 -2.703125 2.359375 -2.515625 C 2.492188 -2.335938 2.5625 -2.0625 2.5625 -1.6875 Z "/>
</g>
</g>
</defs>
<g fill="rgb(89.803922%, 90.588235%, 92.156863%)" fill-opacity="1">
<use xlink:href="#glyph-0-0" x="30" y="24.641602"/>
<use xlink:href="#glyph-0-1" x="33" y="24.641602"/>
<use xlink:href="#glyph-0-2" x="36" y="24.641602"/>
<use xlink:href="#glyph-0-3" x="39" y="24.641602"/>
<use xlink:href="#glyph-0-4" x="42" y="24.641602"/>
<use xlink:href="#glyph-0-5" x="45" y="24.641602"/>
<use xlink:href="#glyph-0-6" x="48" y="24.641602"/>
<use xlink:href="#glyph-0-7" x="51" y="24.641602"/>
</g>
</svg>
