<?xml version="1.0" encoding="UTF-8"?>
<svg xmlns="http://www.w3.org/2000/svg" xmlns:xlink="http://www.w3.org/1999/xlink" width="1920" height="1080" viewBox="0 0 1920 1080">
<defs>
<g>
<g id="glyph-0-0">
<path d="M 2.390625 -0.265625 C 2.273438 -0.160156 2.144531 -0.078125 2 -0.015625 C 1.851562 0.0351562 1.691406 0.0625 1.515625 0.0625 C 1.109375 0.0625 0.789062 -0.0820312 0.5625 -0.375 C 0.332031 -0.664062 0.21875 -1.078125 0.21875 -1.609375 C 0.21875 -2.140625 0.332031 -2.550781 0.5625 -2.84375 C 0.800781 -3.144531 1.125 -3.296875 1.53125 -3.296875 C 1.664062 -3.296875 1.796875 -3.273438 1.921875 -3.234375 C 2.046875 -3.191406 2.164062 -3.132812 2.28125 -3.0625 L 2.28125 -2.609375 C 2.164062 -2.722656 2.046875 -2.804688 1.921875 -2.859375 C 1.796875 -2.910156 1.664062 -2.9375 1.53125 -2.9375 C 1.25 -2.9375 1.035156 -2.828125 0.890625 -2.609375 C 0.742188 -2.390625 0.671875 -2.054688 0.671875 -1.609375 C 0.671875 -1.160156 0.738281 -0.828125 0.875 -0.609375 C 1.019531 -0.398438 1.234375 -0.296875 1.515625 -0.296875 C 1.617188 -0.296875 1.707031 -0.304688 1.78125 -0.328125 C 1.851562 -0.347656 1.914062 -0.382812 1.96875 -0.4375 L 1.96875 -1.296875 L 1.5 -1.296875 L 1.5 -1.65625 L 2.390625 -1.65625 Z "/>
</g>
<g id="glyph-0-1">
<path d="M 2.5 -1.921875 C 2.414062 -1.992188 2.328125 -2.039062 2.234375 -2.0625 C 2.148438 -2.09375 2.054688 -2.109375 1.953125 -2.109375 C 1.703125 -2.109375 1.507812 -2.03125 1.375 -1.875 C 1.25 -1.726562 1.1875 -1.503906 1.1875 -1.203125 L 1.1875 0 L 0.78125 0 L 0.78125 -2.421875 L 1.1875 -2.421875 L 1.1875 -1.953125 C 1.25 -2.117188 1.347656 -2.25 1.484375 -2.34375 C 1.628906 -2.4375 1.796875 -2.484375 1.984375 -2.484375 C 2.078125 -2.484375 2.164062 -2.46875 2.25 -2.4375 C 2.34375 -2.414062 2.425781 -2.378906 2.5 -2.328125 Z "/>
</g>
<g id="glyph-0-2">
<path d="M 0.421875 -0.921875 L 0.421875 -2.421875 L 0.828125 -2.421875 L 0.828125 -0.921875 C 0.828125 -0.703125 0.863281 -0.539062 0.9375 -0.4375 C 1.007812 -0.332031 1.128906 -0.28125 1.296875 -0.28125 C 1.484375 -0.28125 1.625 -0.347656 1.71875 -0.484375 C 1.820312 -0.617188 1.875 -0.804688 1.875 -1.046875 L 1.875 -2.421875 L 2.28125 -2.421875 L 2.28125 0 L 1.875 0 L 1.875 -0.359375 C 1.800781 -0.222656 1.703125 -0.117188 1.578125 -0.046875 C 1.460938 0.0234375 1.320312 0.0625 1.15625 0.0625 C 0.90625 0.0625 0.71875 -0.015625 0.59375 -0.171875 C 0.476562 -0.335938 0.421875 -0.585938 0.421875 -0.921875 Z M 0.6875 -3.359375 L 1.125 -3.359375 L 1.125 -2.921875 L 0.6875 -2.921875 Z M 1.546875 -3.359375 L 1.984375 -3.359375 L 1.984375 -2.921875 L 1.546875 -2.921875 Z "/>
</g>
<g id="glyph-0-3">
<path d="M 2.28125 -1.5 L 2.28125 0 L 1.875 0 L 1.875 -1.5 C 1.875 -1.71875 1.832031 -1.878906 1.75 -1.984375 C 1.675781 -2.085938 1.5625 -2.140625 1.40625 -2.140625 C 1.21875 -2.140625 1.070312 -2.070312 0.96875 -1.9375 C 0.875 -1.800781 0.828125 -1.613281 0.828125 -1.375 L 0.828125 0 L 0.421875 0 L 0.421875 -2.421875 L 0.828125 -2.421875 L 0.828125 -2.0625 C 0.890625 -2.195312 0.984375 -2.300781 1.109375 -2.375 C 1.234375 -2.445312 1.378906 -2.484375 1.546875 -2.484375 C 1.785156 -2.484375 1.96875 -2.398438 2.09375 -2.234375 C 2.21875 -2.078125 2.28125 -1.832031 2.28125 -1.5 Z "/>
</g>
</g>
</defs>
<g fill="rgb(50.588235%, 100%, 0%)" fill-opacity="1">
<use xlink:href="#glyph-0-0" x="30" y="24.125"/>
<use xlink:href="#glyph-0-1" x="33" y="24.125"/>
<use xlink:href="#glyph-0-2" x="36" y="24.125"/>
<use xlink:href="#glyph-0-3" x="39" y="24.125"/>
</g>
</svg>
