<?xml version="1.0" encoding="UTF-8"?>
<svg xmlns="http://www.w3.org/2000/svg" xmlns:xlink="http://www.w3.org/1999/xlink" width="1920" height="1080" viewBox="0 0 1920 1080">
<defs>
<g>
<g id="glyph-0-0">
<path d="M 0.90625 -1.734375 L 0.90625 -0.40625 L 1.484375 -0.40625 C 1.773438 -0.40625 1.976562 -0.453125 2.09375 -0.546875 C 2.21875 -0.648438 2.28125 -0.816406 2.28125 -1.046875 C 2.28125 -1.285156 2.210938 -1.457031 2.078125 -1.5625 C 1.953125 -1.675781 1.753906 -1.734375 1.484375 -1.734375 Z M 0.90625 -3.234375 L 0.90625 -2.140625 L 1.46875 -2.140625 C 1.707031 -2.140625 1.878906 -2.1875 1.984375 -2.28125 C 2.097656 -2.375 2.15625 -2.519531 2.15625 -2.71875 C 2.15625 -2.90625 2.101562 -3.035156 2 -3.109375 C 1.894531 -3.191406 1.71875 -3.234375 1.46875 -3.234375 Z M 0.40625 -3.640625 L 1.484375 -3.640625 C 1.859375 -3.640625 2.144531 -3.554688 2.34375 -3.390625 C 2.550781 -3.234375 2.65625 -3.007812 2.65625 -2.71875 C 2.65625 -2.5 2.597656 -2.320312 2.484375 -2.1875 C 2.378906 -2.0625 2.222656 -1.984375 2.015625 -1.953125 C 2.253906 -1.910156 2.441406 -1.804688 2.578125 -1.640625 C 2.710938 -1.472656 2.78125 -1.257812 2.78125 -1 C 2.78125 -0.664062 2.671875 -0.414062 2.453125 -0.25 C 2.234375 -0.0820312 1.910156 0 1.484375 0 L 0.40625 0 Z "/>
</g>
<g id="glyph-0-1">
<path d="M 1.5625 -0.984375 C 1.5625 -0.785156 1.597656 -0.632812 1.671875 -0.53125 C 1.742188 -0.425781 1.851562 -0.375 2 -0.375 L 2.53125 -0.375 L 2.53125 0 L 1.953125 0 C 1.679688 0 1.472656 -0.0820312 1.328125 -0.25 C 1.179688 -0.425781 1.109375 -0.671875 1.109375 -0.984375 L 1.109375 -3.46875 L 0.390625 -3.46875 L 0.390625 -3.828125 L 1.5625 -3.828125 Z "/>
</g>
<g id="glyph-0-2">
<path d="M 1.71875 -1.375 L 1.5625 -1.375 C 1.300781 -1.375 1.101562 -1.328125 0.96875 -1.234375 C 0.84375 -1.140625 0.78125 -1.003906 0.78125 -0.828125 C 0.78125 -0.660156 0.828125 -0.53125 0.921875 -0.4375 C 1.023438 -0.351562 1.160156 -0.3125 1.328125 -0.3125 C 1.578125 -0.3125 1.769531 -0.394531 1.90625 -0.5625 C 2.050781 -0.738281 2.128906 -0.976562 2.140625 -1.28125 L 2.140625 -1.375 Z M 2.578125 -1.5625 L 2.578125 0 L 2.140625 0 L 2.140625 -0.40625 C 2.035156 -0.238281 1.910156 -0.113281 1.765625 -0.03125 C 1.617188 0.0390625 1.441406 0.078125 1.234375 0.078125 C 0.960938 0.078125 0.742188 0 0.578125 -0.15625 C 0.410156 -0.320312 0.328125 -0.535156 0.328125 -0.796875 C 0.328125 -1.097656 0.425781 -1.328125 0.625 -1.484375 C 0.832031 -1.640625 1.132812 -1.71875 1.53125 -1.71875 L 2.140625 -1.71875 L 2.140625 -1.796875 C 2.128906 -2.015625 2.066406 -2.171875 1.953125 -2.265625 C 1.847656 -2.367188 1.679688 -2.421875 1.453125 -2.421875 C 1.296875 -2.421875 1.140625 -2.394531 0.984375 -2.34375 C 0.828125 -2.300781 0.675781 -2.238281 0.53125 -2.15625 L 0.53125 -2.609375 C 0.695312 -2.671875 0.851562 -2.71875 1 -2.75 C 1.15625 -2.78125 1.304688 -2.796875 1.453125 -2.796875 C 1.671875 -2.796875 1.859375 -2.757812 2.015625 -2.6875 C 2.179688 -2.625 2.316406 -2.53125 2.421875 -2.40625 C 2.472656 -2.320312 2.507812 -2.21875 2.53125 -2.09375 C 2.5625 -1.976562 2.578125 -1.800781 2.578125 -1.5625 Z "/>
</g>
<g id="glyph-0-3">
<path d="M 0.46875 -1.03125 L 0.46875 -2.734375 L 0.921875 -2.734375 L 0.921875 -1.03125 C 0.921875 -0.789062 0.960938 -0.609375 1.046875 -0.484375 C 1.140625 -0.367188 1.273438 -0.3125 1.453125 -0.3125 C 1.671875 -0.3125 1.832031 -0.382812 1.9375 -0.53125 C 2.050781 -0.6875 2.109375 -0.90625 2.109375 -1.1875 L 2.109375 -2.734375 L 2.5625 -2.734375 L 2.5625 0 L 2.109375 0 L 2.109375 -0.40625 C 2.035156 -0.25 1.925781 -0.128906 1.78125 -0.046875 C 1.644531 0.0351562 1.488281 0.078125 1.3125 0.078125 C 1.03125 0.078125 0.816406 -0.015625 0.671875 -0.203125 C 0.535156 -0.390625 0.46875 -0.664062 0.46875 -1.03125 Z "/>
</g>
<g id="glyph-0-4">
</g>
<g id="glyph-0-5">
<path d="M 2.796875 -2.34375 L 2.796875 -1.921875 C 2.671875 -1.828125 2.550781 -1.753906 2.4375 -1.703125 C 2.320312 -1.660156 2.203125 -1.640625 2.078125 -1.640625 C 1.921875 -1.640625 1.753906 -1.679688 1.578125 -1.765625 C 1.535156 -1.785156 1.507812 -1.796875 1.5 -1.796875 C 1.375 -1.859375 1.269531 -1.898438 1.1875 -1.921875 C 1.101562 -1.941406 1.019531 -1.953125 0.9375 -1.953125 C 0.800781 -1.953125 0.675781 -1.925781 0.5625 -1.875 C 0.445312 -1.820312 0.332031 -1.742188 0.21875 -1.640625 L 0.21875 -2.078125 C 0.34375 -2.171875 0.460938 -2.238281 0.578125 -2.28125 C 0.703125 -2.320312 0.832031 -2.34375 0.96875 -2.34375 C 1.050781 -2.34375 1.132812 -2.332031 1.21875 -2.3125 C 1.300781 -2.300781 1.398438 -2.269531 1.515625 -2.21875 C 1.535156 -2.207031 1.5625 -2.195312 1.59375 -2.1875 C 1.78125 -2.09375 1.953125 -2.046875 2.109375 -2.046875 C 2.222656 -2.046875 2.332031 -2.070312 2.4375 -2.125 C 2.550781 -2.175781 2.671875 -2.25 2.796875 -2.34375 Z M 2.796875 -1.453125 L 2.796875 -1.03125 C 2.671875 -0.925781 2.550781 -0.851562 2.4375 -0.8125 C 2.320312 -0.769531 2.203125 -0.75 2.078125 -0.75 C 1.921875 -0.75 1.753906 -0.789062 1.578125 -0.875 C 1.535156 -0.882812 1.507812 -0.894531 1.5 -0.90625 C 1.363281 -0.96875 1.253906 -1.003906 1.171875 -1.015625 C 1.085938 -1.035156 1.007812 -1.046875 0.9375 -1.046875 C 0.800781 -1.046875 0.675781 -1.019531 0.5625 -0.96875 C 0.445312 -0.925781 0.332031 -0.851562 0.21875 -0.75 L 0.21875 -1.171875 C 0.34375 -1.273438 0.460938 -1.347656 0.578125 -1.390625 C 0.703125 -1.429688 0.832031 -1.453125 0.96875 -1.453125 C 1.125 -1.453125 1.304688 -1.410156 1.515625 -1.328125 C 1.535156 -1.316406 1.5625 -1.300781 1.59375 -1.28125 C 1.78125 -1.195312 1.953125 -1.15625 2.109375 -1.15625 C 2.222656 -1.15625 2.332031 -1.175781 2.4375 -1.21875 C 2.550781 -1.269531 2.671875 -1.347656 2.796875 -1.453125 Z "/>
</g>
<g id="glyph-0-6">
<path d="M 1.796875 -3.203125 L 0.640625 -1.265625 L 1.796875 -1.265625 Z M 1.71875 -3.640625 L 2.28125 -3.640625 L 2.28125 -1.265625 L 2.765625 -1.265625 L 2.765625 -0.875 L 2.28125 -0.875 L 2.28125 0 L 1.796875 0 L 1.796875 -0.875 L 0.25 -0.875 L 0.25 -1.328125 Z "/>
</g>
<g id="glyph-0-7">
<path d="M 0.65625 -0.421875 L 1.421875 -0.421875 L 1.421875 -3.203125 L 0.59375 -3.015625 L 0.59375 -3.46875 L 1.421875 -3.640625 L 1.921875 -3.640625 L 1.921875 -0.421875 L 2.671875 -0.421875 L 2.671875 0 L 0.65625 0 Z "/>
</g>
<g id="glyph-0-8">
<path d="M 1.1875 -0.75 L 1.8125 -0.75 L 1.8125 0 L 1.1875 0 Z "/>
</g>
<g id="glyph-0-9">
<path d="M 0.90625 -0.421875 L 2.578125 -0.421875 L 2.578125 0 L 0.375 0 L 0.375 -0.421875 C 0.675781 -0.734375 0.941406 -1.015625 1.171875 -1.265625 C 1.398438 -1.515625 1.554688 -1.6875 1.640625 -1.78125 C 1.804688 -1.976562 1.914062 -2.140625 1.96875 -2.265625 C 2.03125 -2.390625 2.0625 -2.515625 2.0625 -2.640625 C 2.0625 -2.847656 2 -3.007812 1.875 -3.125 C 1.757812 -3.238281 1.597656 -3.296875 1.390625 -3.296875 C 1.234375 -3.296875 1.070312 -3.269531 0.90625 -3.21875 C 0.75 -3.164062 0.582031 -3.082031 0.40625 -2.96875 L 0.40625 -3.46875 C 0.570312 -3.550781 0.734375 -3.613281 0.890625 -3.65625 C 1.054688 -3.695312 1.21875 -3.71875 1.375 -3.71875 C 1.726562 -3.71875 2.015625 -3.617188 2.234375 -3.421875 C 2.453125 -3.234375 2.5625 -2.988281 2.5625 -2.6875 C 2.5625 -2.53125 2.523438 -2.375 2.453125 -2.21875 C 2.378906 -2.0625 2.257812 -1.882812 2.09375 -1.6875 C 2.007812 -1.582031 1.878906 -1.4375 1.703125 -1.25 C 1.523438 -1.0625 1.257812 -0.785156 0.90625 -0.421875 Z "/>
</g>
<g id="glyph-0-10">
<path d="M 1.5 -3.71875 C 1.601562 -3.71875 1.703125 -3.695312 1.796875 -3.65625 C 1.898438 -3.613281 1.988281 -3.554688 2.0625 -3.484375 C 2.132812 -3.410156 2.1875 -3.328125 2.21875 -3.234375 C 2.257812 -3.140625 2.28125 -3.039062 2.28125 -2.9375 C 2.28125 -2.71875 2.203125 -2.53125 2.046875 -2.375 C 1.898438 -2.226562 1.71875 -2.15625 1.5 -2.15625 C 1.28125 -2.15625 1.097656 -2.226562 0.953125 -2.375 C 0.804688 -2.519531 0.734375 -2.707031 0.734375 -2.9375 C 0.734375 -3.144531 0.804688 -3.328125 0.953125 -3.484375 C 1.097656 -3.640625 1.28125 -3.71875 1.5 -3.71875 Z M 1.5 -3.390625 C 1.375 -3.390625 1.265625 -3.34375 1.171875 -3.25 C 1.085938 -3.164062 1.046875 -3.0625 1.046875 -2.9375 C 1.046875 -2.800781 1.085938 -2.6875 1.171875 -2.59375 C 1.265625 -2.507812 1.375 -2.46875 1.5 -2.46875 C 1.625 -2.46875 1.734375 -2.507812 1.828125 -2.59375 C 1.921875 -2.6875 1.96875 -2.800781 1.96875 -2.9375 C 1.96875 -3.0625 1.921875 -3.164062 1.828125 -3.25 C 1.742188 -3.34375 1.632812 -3.390625 1.5 -3.390625 Z "/>
</g>
</g>
</defs>
<g fill="rgb(0%, 27.45098%, 100%)" fill-opacity="1">
<use xlink:href="#glyph-0-0" x="30" y="24.641602"/>
<use xlink:href="#glyph-0-1" x="33" y="24.641602"/>
<use xlink:href="#glyph-0-2" x="36" y="24.641602"/>
<use xlink:href="#glyph-0-3" x="39" y="24.641602"/>
<use xlink:href="#glyph-0-4" x="42" y="24.641602"/>
<use xlink:href="#glyph-0-5" x="45" y="24.641602"/>
<use xlink:href="#glyph-0-4" x="48" y="24.641602"/>
<use xlink:href="#glyph-0-6" x="51" y="24.641602"/>
<use xlink:href="#glyph-0-7" x="54" y="24.641602"/>
<use xlink:href="#glyph-0-8" x="57" y="24.641602"/>
<use xlink:href="#glyph-0-9" x="60" y="24.641602"/>
<use xlink:href="#glyph-0-10" x="63" y="24.641602"/>
</g>
</svg>
