<?xml version="1.0" encoding="UTF-8"?>
<svg xmlns="http://www.w3.org/2000/svg" xmlns:xlink="http://www.w3.org/1999/xlink" width="1920" height="1080" viewBox="0 0 1920 1080">
<defs>
<g>
<g id="glyph-0-0">
<path d="M 3.296875 -0.359375 C 3.128906 -0.210938 2.945312 -0.0976562 2.75 -0.015625 C 2.550781 0.0546875 2.332031 0.09375 2.09375 0.09375 C 1.53125 0.09375 1.085938 -0.109375 0.765625 -0.515625 C 0.453125 -0.921875 0.296875 -1.488281 0.296875 -2.21875 C 0.296875 -2.945312 0.457031 -3.515625 0.78125 -3.921875 C 1.101562 -4.328125 1.546875 -4.53125 2.109375 -4.53125 C 2.296875 -4.53125 2.472656 -4.503906 2.640625 -4.453125 C 2.816406 -4.398438 2.984375 -4.320312 3.140625 -4.21875 L 3.140625 -3.59375 C 2.984375 -3.75 2.816406 -3.863281 2.640625 -3.9375 C 2.472656 -4.007812 2.296875 -4.046875 2.109375 -4.046875 C 1.710938 -4.046875 1.414062 -3.894531 1.21875 -3.59375 C 1.03125 -3.289062 0.9375 -2.832031 0.9375 -2.21875 C 0.9375 -1.601562 1.03125 -1.144531 1.21875 -0.84375 C 1.40625 -0.550781 1.695312 -0.40625 2.09375 -0.40625 C 2.226562 -0.40625 2.34375 -0.421875 2.4375 -0.453125 C 2.539062 -0.484375 2.632812 -0.53125 2.71875 -0.59375 L 2.71875 -1.796875 L 2.0625 -1.796875 L 2.0625 -2.28125 L 3.296875 -2.28125 Z "/>
</g>
<g id="glyph-0-1">
<path d="M 3.453125 -2.65625 C 3.328125 -2.75 3.203125 -2.816406 3.078125 -2.859375 C 2.960938 -2.898438 2.832031 -2.921875 2.6875 -2.921875 C 2.34375 -2.921875 2.078125 -2.8125 1.890625 -2.59375 C 1.710938 -2.375 1.625 -2.0625 1.625 -1.65625 L 1.625 0 L 1.078125 0 L 1.078125 -3.34375 L 1.625 -3.34375 L 1.625 -2.6875 C 1.71875 -2.925781 1.859375 -3.109375 2.046875 -3.234375 C 2.242188 -3.359375 2.472656 -3.421875 2.734375 -3.421875 C 2.867188 -3.421875 2.992188 -3.398438 3.109375 -3.359375 C 3.222656 -3.328125 3.335938 -3.28125 3.453125 -3.21875 Z "/>
</g>
<g id="glyph-0-2">
<path d="M 0.578125 -1.265625 L 0.578125 -3.328125 L 1.125 -3.328125 L 1.125 -1.265625 C 1.125 -0.960938 1.175781 -0.738281 1.28125 -0.59375 C 1.394531 -0.457031 1.5625 -0.390625 1.78125 -0.390625 C 2.039062 -0.390625 2.238281 -0.476562 2.375 -0.65625 C 2.507812 -0.84375 2.578125 -1.109375 2.578125 -1.453125 L 2.578125 -3.328125 L 3.140625 -3.328125 L 3.140625 0 L 2.578125 0 L 2.578125 -0.5 C 2.484375 -0.3125 2.351562 -0.164062 2.1875 -0.0625 C 2.019531 0.0390625 1.820312 0.09375 1.59375 0.09375 C 1.25 0.09375 0.992188 -0.015625 0.828125 -0.234375 C 0.660156 -0.460938 0.578125 -0.804688 0.578125 -1.265625 Z M 0.953125 -4.625 L 1.5625 -4.625 L 1.5625 -4.03125 L 0.953125 -4.03125 Z M 2.125 -4.625 L 2.71875 -4.625 L 2.71875 -4.03125 L 2.125 -4.03125 Z "/>
</g>
<g id="glyph-0-3">
<path d="M 3.140625 -2.0625 L 3.140625 0 L 2.578125 0 L 2.578125 -2.0625 C 2.578125 -2.363281 2.523438 -2.582031 2.421875 -2.71875 C 2.316406 -2.863281 2.15625 -2.9375 1.9375 -2.9375 C 1.675781 -2.9375 1.472656 -2.84375 1.328125 -2.65625 C 1.191406 -2.476562 1.125 -2.222656 1.125 -1.890625 L 1.125 0 L 0.578125 0 L 0.578125 -3.34375 L 1.125 -3.34375 L 1.125 -2.84375 C 1.226562 -3.03125 1.363281 -3.171875 1.53125 -3.265625 C 1.695312 -3.367188 1.894531 -3.421875 2.125 -3.421875 C 2.457031 -3.421875 2.707031 -3.304688 2.875 -3.078125 C 3.050781 -2.859375 3.140625 -2.519531 3.140625 -2.0625 Z "/>
</g>
</g>
</defs>
<g fill="rgb(50.588235%, 100%, 0%)" fill-opacity="1">
<use xlink:href="#glyph-0-0" x="30" y="25.671875"/>
<use xlink:href="#glyph-0-1" x="34" y="25.671875"/>
<use xlink:href="#glyph-0-2" x="38" y="25.671875"/>
<use xlink:href="#glyph-0-3" x="42" y="25.671875"/>
</g>
</svg>
