<?xml version="1.0" encoding="UTF-8"?>
<svg xmlns="http://www.w3.org/2000/svg" xmlns:xlink="http://www.w3.org/1999/xlink" width="1920" height="1080" viewBox="0 0 1920 1080">
<defs>
<g>
<g id="glyph-0-0">
<path d="M 2.84375 -5.640625 L 2.203125 -2.8125 L 3.484375 -2.8125 Z M 2.015625 -6.875 L 3.671875 -6.875 L 5.53125 0 L 4.171875 0 L 3.75 -1.703125 L 1.921875 -1.703125 L 1.515625 0 L 0.15625 0 Z "/>
</g>
<g id="glyph-0-1">
<path d="M 3.921875 -2.5625 C 3.921875 -3.0625 3.835938 -3.453125 3.671875 -3.734375 C 3.503906 -4.015625 3.273438 -4.15625 2.984375 -4.15625 C 2.691406 -4.15625 2.457031 -4.015625 2.28125 -3.734375 C 2.113281 -3.453125 2.03125 -3.0625 2.03125 -2.5625 C 2.03125 -2.0625 2.113281 -1.671875 2.28125 -1.390625 C 2.457031 -1.109375 2.691406 -0.96875 2.984375 -0.96875 C 3.273438 -0.96875 3.503906 -1.109375 3.671875 -1.390625 C 3.835938 -1.671875 3.921875 -2.0625 3.921875 -2.5625 Z M 2.03125 -4.421875 C 2.195312 -4.710938 2.390625 -4.925781 2.609375 -5.0625 C 2.828125 -5.207031 3.078125 -5.28125 3.359375 -5.28125 C 3.972656 -5.28125 4.441406 -5.046875 4.765625 -4.578125 C 5.097656 -4.117188 5.265625 -3.453125 5.265625 -2.578125 C 5.265625 -1.710938 5.101562 -1.039062 4.78125 -0.5625 C 4.457031 -0.09375 4 0.140625 3.40625 0.140625 C 3.09375 0.140625 2.820312 0.0664062 2.59375 -0.078125 C 2.363281 -0.234375 2.175781 -0.460938 2.03125 -0.765625 L 2.03125 0 L 0.6875 0 L 0.6875 -7.171875 L 2.03125 -7.171875 Z "/>
</g>
<g id="glyph-0-2">
<path d="M 1.78125 -2.15625 L 1.78125 -6.140625 L 0.421875 -6.140625 L 0.421875 -7.171875 L 3.140625 -7.171875 L 3.140625 -2.15625 C 3.140625 -1.75 3.203125 -1.457031 3.328125 -1.28125 C 3.453125 -1.113281 3.664062 -1.03125 3.96875 -1.03125 L 5.046875 -1.03125 L 5.046875 0 L 3.578125 0 C 2.941406 0 2.484375 -0.164062 2.203125 -0.5 C 1.921875 -0.832031 1.78125 -1.382812 1.78125 -2.15625 Z "/>
</g>
<g id="glyph-0-3">
<path d="M 5.078125 -0.25 C 4.765625 -0.125 4.441406 -0.03125 4.109375 0.03125 C 3.785156 0.101562 3.445312 0.140625 3.09375 0.140625 C 2.226562 0.140625 1.566406 -0.0859375 1.109375 -0.546875 C 0.648438 -1.015625 0.421875 -1.6875 0.421875 -2.5625 C 0.421875 -3.394531 0.640625 -4.054688 1.078125 -4.546875 C 1.515625 -5.035156 2.113281 -5.28125 2.875 -5.28125 C 3.644531 -5.28125 4.238281 -5.050781 4.65625 -4.59375 C 5.082031 -4.144531 5.296875 -3.507812 5.296875 -2.6875 L 5.296875 -2.140625 L 1.796875 -2.140625 C 1.796875 -1.734375 1.914062 -1.429688 2.15625 -1.234375 C 2.394531 -1.035156 2.75 -0.9375 3.21875 -0.9375 C 3.53125 -0.9375 3.832031 -0.976562 4.125 -1.0625 C 4.425781 -1.15625 4.742188 -1.300781 5.078125 -1.5 Z M 3.9375 -3.15625 C 3.925781 -3.507812 3.832031 -3.773438 3.65625 -3.953125 C 3.476562 -4.140625 3.21875 -4.234375 2.875 -4.234375 C 2.570312 -4.234375 2.328125 -4.140625 2.140625 -3.953125 C 1.953125 -3.765625 1.84375 -3.5 1.8125 -3.15625 Z "/>
</g>
<g id="glyph-0-4">
<path d="M 4.9375 -3.34375 L 4.9375 0 L 3.59375 0 L 3.59375 -3.140625 C 3.59375 -3.515625 3.539062 -3.78125 3.4375 -3.9375 C 3.332031 -4.101562 3.160156 -4.1875 2.921875 -4.1875 C 2.671875 -4.1875 2.476562 -4.078125 2.34375 -3.859375 C 2.207031 -3.640625 2.140625 -3.335938 2.140625 -2.953125 L 2.140625 0 L 0.796875 0 L 0.796875 -5.15625 L 2.140625 -5.15625 L 2.140625 -4.390625 C 2.234375 -4.671875 2.394531 -4.890625 2.625 -5.046875 C 2.851562 -5.203125 3.128906 -5.28125 3.453125 -5.28125 C 3.941406 -5.28125 4.3125 -5.117188 4.5625 -4.796875 C 4.8125 -4.472656 4.9375 -3.988281 4.9375 -3.34375 Z "/>
</g>
<g id="glyph-0-5">
<path d="M 0.796875 -7.171875 L 2.15625 -7.171875 L 2.15625 -3.40625 L 3.78125 -5.15625 L 5.40625 -5.15625 L 3.453125 -3.234375 L 5.515625 0 L 4.03125 0 L 2.609375 -2.421875 L 2.15625 -1.96875 L 2.15625 0 L 0.796875 0 Z "/>
</g>
<g id="glyph-0-6">
<path d="M 0 -5.15625 L 1.125 -5.15625 L 1.734375 -1.203125 L 2.296875 -3.8125 L 3.390625 -3.8125 L 3.9375 -1.203125 L 4.5625 -5.15625 L 5.6875 -5.15625 L 4.75 0 L 3.46875 0 L 2.84375 -2.6875 L 2.21875 0 L 0.9375 0 Z "/>
</g>
<g id="glyph-0-7">
<path d="M 1.015625 -5.15625 L 3.6875 -5.15625 L 3.6875 -1.03125 L 5.375 -1.03125 L 5.375 0 L 0.65625 0 L 0.65625 -1.03125 L 2.34375 -1.03125 L 2.34375 -4.125 L 1.015625 -4.125 Z M 2.34375 -7.671875 L 3.6875 -7.671875 L 3.6875 -6.09375 L 2.34375 -6.09375 Z "/>
</g>
<g id="glyph-0-8">
</g>
<g id="glyph-0-9">
<path d="M 3.40625 -5.609375 L 3.40625 -5.15625 L 4.984375 -5.15625 L 4.984375 -4.125 L 3.40625 -4.125 L 3.40625 0 L 2.0625 0 L 2.0625 -4.125 L 0.796875 -4.125 L 0.796875 -5.15625 L 2.0625 -5.15625 L 2.0625 -5.515625 C 2.0625 -6.140625 2.1875 -6.570312 2.4375 -6.8125 C 2.695312 -7.050781 3.175781 -7.171875 3.875 -7.171875 L 4.984375 -7.171875 L 4.984375 -6.140625 L 3.9375 -6.140625 C 3.726562 -6.140625 3.585938 -6.097656 3.515625 -6.015625 C 3.453125 -5.941406 3.414062 -5.804688 3.40625 -5.609375 Z "/>
</g>
<g id="glyph-0-10">
<path d="M 0.734375 -1.796875 L 0.734375 -5.15625 L 2.09375 -5.15625 L 2.09375 -2.015625 C 2.09375 -1.640625 2.144531 -1.367188 2.25 -1.203125 C 2.351562 -1.046875 2.523438 -0.96875 2.765625 -0.96875 C 3.003906 -0.96875 3.191406 -1.078125 3.328125 -1.296875 C 3.472656 -1.515625 3.546875 -1.816406 3.546875 -2.203125 L 3.546875 -5.15625 L 4.890625 -5.15625 L 4.890625 0 L 3.546875 0 L 3.546875 -0.765625 C 3.441406 -0.484375 3.273438 -0.257812 3.046875 -0.09375 C 2.816406 0.0625 2.539062 0.140625 2.21875 0.140625 C 1.726562 0.140625 1.359375 -0.0195312 1.109375 -0.34375 C 0.859375 -0.675781 0.734375 -1.160156 0.734375 -1.796875 Z M 3.203125 -7.296875 L 4.296875 -7.296875 L 4.296875 -6.171875 L 3.203125 -6.171875 Z M 1.390625 -7.296875 L 2.46875 -7.296875 L 2.46875 -6.171875 L 1.390625 -6.171875 Z "/>
</g>
<g id="glyph-0-11">
<path d="M 5.296875 -3.734375 C 5.148438 -3.867188 4.976562 -3.96875 4.78125 -4.03125 C 4.582031 -4.101562 4.367188 -4.140625 4.140625 -4.140625 C 3.847656 -4.140625 3.59375 -4.085938 3.375 -3.984375 C 3.164062 -3.890625 3.003906 -3.75 2.890625 -3.5625 C 2.816406 -3.4375 2.765625 -3.289062 2.734375 -3.125 C 2.703125 -2.96875 2.6875 -2.71875 2.6875 -2.375 L 2.6875 0 L 1.34375 0 L 1.34375 -5.15625 L 2.6875 -5.15625 L 2.6875 -4.359375 C 2.820312 -4.648438 3.023438 -4.875 3.296875 -5.03125 C 3.566406 -5.195312 3.890625 -5.28125 4.265625 -5.28125 C 4.441406 -5.28125 4.617188 -5.257812 4.796875 -5.21875 C 4.972656 -5.175781 5.140625 -5.109375 5.296875 -5.015625 Z "/>
</g>
<g id="glyph-0-12">
<path d="M 0.859375 -5.15625 L 4.984375 -5.15625 L 4.984375 -4.109375 L 2.265625 -1.015625 L 4.984375 -1.015625 L 4.984375 0 L 0.75 0 L 0.75 -1.0625 L 3.46875 -4.15625 L 0.859375 -4.15625 Z "/>
</g>
<g id="glyph-0-13">
<path d="M 5.125 -5.6875 L 2.203125 -5.6875 L 2.203125 -4.203125 L 4.859375 -4.203125 L 4.859375 -3 L 2.203125 -3 L 2.203125 0 L 0.84375 0 L 0.84375 -6.875 L 5.125 -6.875 Z "/>
</g>
<g id="glyph-0-14">
<path d="M 3.21875 -2.421875 C 2.71875 -2.421875 2.367188 -2.351562 2.171875 -2.21875 C 1.972656 -2.09375 1.875 -1.875 1.875 -1.5625 C 1.875 -1.332031 1.941406 -1.144531 2.078125 -1 C 2.210938 -0.863281 2.398438 -0.796875 2.640625 -0.796875 C 2.992188 -0.796875 3.269531 -0.929688 3.46875 -1.203125 C 3.664062 -1.472656 3.765625 -1.847656 3.765625 -2.328125 L 3.765625 -2.421875 Z M 5.109375 -2.9375 L 5.109375 0 L 3.765625 0 L 3.765625 -0.578125 C 3.597656 -0.347656 3.382812 -0.171875 3.125 -0.046875 C 2.875 0.078125 2.597656 0.140625 2.296875 0.140625 C 1.710938 0.140625 1.253906 -0.015625 0.921875 -0.328125 C 0.597656 -0.640625 0.4375 -1.070312 0.4375 -1.625 C 0.4375 -2.226562 0.628906 -2.671875 1.015625 -2.953125 C 1.410156 -3.242188 2.015625 -3.390625 2.828125 -3.390625 L 3.765625 -3.390625 L 3.765625 -3.625 C 3.765625 -3.84375 3.6875 -4.003906 3.53125 -4.109375 C 3.375 -4.222656 3.140625 -4.28125 2.828125 -4.28125 C 2.503906 -4.28125 2.191406 -4.238281 1.890625 -4.15625 C 1.585938 -4.082031 1.269531 -3.957031 0.9375 -3.78125 L 0.9375 -4.921875 C 1.238281 -5.046875 1.539062 -5.132812 1.84375 -5.1875 C 2.15625 -5.25 2.484375 -5.28125 2.828125 -5.28125 C 3.671875 -5.28125 4.257812 -5.109375 4.59375 -4.765625 C 4.9375 -4.429688 5.109375 -3.820312 5.109375 -2.9375 Z "/>
</g>
</g>
</defs>
<g fill="rgb(89.803922%, 90.588235%, 92.156863%)" fill-opacity="1">
<use xlink:href="#glyph-0-0" x="30" y="28.766602"/>
<use xlink:href="#glyph-0-1" x="36" y="28.766602"/>
<use xlink:href="#glyph-0-2" x="42" y="28.766602"/>
<use xlink:href="#glyph-0-3" x="48" y="28.766602"/>
<use xlink:href="#glyph-0-4" x="54" y="28.766602"/>
<use xlink:href="#glyph-0-5" x="60" y="28.766602"/>
<use xlink:href="#glyph-0-6" x="66" y="28.766602"/>
<use xlink:href="#glyph-0-7" x="72" y="28.766602"/>
<use xlink:href="#glyph-0-4" x="78" y="28.766602"/>
<use xlink:href="#glyph-0-5" x="84" y="28.766602"/>
<use xlink:href="#glyph-0-3" x="90" y="28.766602"/>
<use xlink:href="#glyph-0-2" x="96" y="28.766602"/>
<use xlink:href="#glyph-0-8" x="102" y="28.766602"/>
<use xlink:href="#glyph-0-9" x="108" y="28.766602"/>
<use xlink:href="#glyph-0-10" x="114" y="28.766602"/>
<use xlink:href="#glyph-0-11" x="120" y="28.766602"/>
<use xlink:href="#glyph-0-8" x="126" y="28.766602"/>
<use xlink:href="#glyph-0-3" x="132" y="28.766602"/>
<use xlink:href="#glyph-0-7" x="138" y="28.766602"/>
<use xlink:href="#glyph-0-4" x="144" y="28.766602"/>
<use xlink:href="#glyph-0-12" x="150" y="28.766602"/>
<use xlink:href="#glyph-0-3" x="156" y="28.766602"/>
<use xlink:href="#glyph-0-2" x="162" y="28.766602"/>
<use xlink:href="#glyph-0-4" x="168" y="28.766602"/>
<use xlink:href="#glyph-0-3" x="174" y="28.766602"/>
<use xlink:href="#glyph-0-8" x="180" y="28.766602"/>
<use xlink:href="#glyph-0-13" x="186" y="28.766602"/>
<use xlink:href="#glyph-0-14" x="192" y="28.766602"/>
<use xlink:href="#glyph-0-11" x="198" y="28.766602"/>
<use xlink:href="#glyph-0-1" x="204" y="28.766602"/>
<use xlink:href="#glyph-0-3" x="210" y="28.766602"/>
<use xlink:href="#glyph-0-4" x="216" y="28.766602"/>
</g>
</svg>
