<?xml version="1.0" encoding="UTF-8"?>
<svg xmlns="http://www.w3.org/2000/svg" xmlns:xlink="http://www.w3.org/1999/xlink" width="1920" height="1080" viewBox="0 0 1920 1080">
<defs>
<g>
<g id="glyph-0-0">
<path d="M 5.0625 0 L 0.78125 0 L 0.78125 -6.875 L 5.0625 -6.875 L 5.0625 -5.6875 L 2.140625 -5.6875 L 2.140625 -4.203125 L 4.78125 -4.203125 L 4.78125 -3 L 2.140625 -3 L 2.140625 -1.203125 L 5.0625 -1.203125 Z "/>
</g>
<g id="glyph-0-1">
<path d="M 1.015625 -5.15625 L 3.6875 -5.15625 L 3.6875 -1.03125 L 5.375 -1.03125 L 5.375 0 L 0.65625 0 L 0.65625 -1.03125 L 2.34375 -1.03125 L 2.34375 -4.125 L 1.015625 -4.125 Z M 2.34375 -7.671875 L 3.6875 -7.671875 L 3.6875 -6.09375 L 2.34375 -6.09375 Z "/>
</g>
<g id="glyph-0-2">
<path d="M 4.9375 -3.34375 L 4.9375 0 L 3.59375 0 L 3.59375 -3.140625 C 3.59375 -3.515625 3.539062 -3.78125 3.4375 -3.9375 C 3.332031 -4.101562 3.160156 -4.1875 2.921875 -4.1875 C 2.671875 -4.1875 2.476562 -4.078125 2.34375 -3.859375 C 2.207031 -3.640625 2.140625 -3.335938 2.140625 -2.953125 L 2.140625 0 L 0.796875 0 L 0.796875 -5.15625 L 2.140625 -5.15625 L 2.140625 -4.390625 C 2.234375 -4.671875 2.394531 -4.890625 2.625 -5.046875 C 2.851562 -5.203125 3.128906 -5.28125 3.453125 -5.28125 C 3.941406 -5.28125 4.3125 -5.117188 4.5625 -4.796875 C 4.8125 -4.472656 4.9375 -3.988281 4.9375 -3.34375 Z "/>
</g>
<g id="glyph-0-3">
<path d="M 4.5625 -5 L 4.5625 -3.8125 C 4.3125 -3.976562 4.050781 -4.097656 3.78125 -4.171875 C 3.519531 -4.253906 3.253906 -4.296875 2.984375 -4.296875 C 2.679688 -4.296875 2.453125 -4.253906 2.296875 -4.171875 C 2.140625 -4.085938 2.0625 -3.957031 2.0625 -3.78125 C 2.0625 -3.539062 2.394531 -3.34375 3.0625 -3.1875 L 3.109375 -3.171875 L 3.5 -3.078125 C 3.988281 -2.960938 4.347656 -2.773438 4.578125 -2.515625 C 4.804688 -2.253906 4.921875 -1.898438 4.921875 -1.453125 C 4.921875 -0.921875 4.742188 -0.519531 4.390625 -0.25 C 4.046875 0.0078125 3.519531 0.140625 2.8125 0.140625 C 2.507812 0.140625 2.191406 0.109375 1.859375 0.046875 C 1.535156 -0.00390625 1.207031 -0.0820312 0.875 -0.1875 L 0.875 -1.375 C 1.175781 -1.195312 1.476562 -1.0625 1.78125 -0.96875 C 2.09375 -0.882812 2.394531 -0.84375 2.6875 -0.84375 C 3 -0.84375 3.234375 -0.890625 3.390625 -0.984375 C 3.554688 -1.078125 3.640625 -1.210938 3.640625 -1.390625 C 3.640625 -1.554688 3.582031 -1.6875 3.46875 -1.78125 C 3.351562 -1.875 3.082031 -1.972656 2.65625 -2.078125 L 2.28125 -2.15625 C 1.757812 -2.28125 1.378906 -2.460938 1.140625 -2.703125 C 0.910156 -2.953125 0.796875 -3.285156 0.796875 -3.703125 C 0.796875 -4.203125 0.972656 -4.585938 1.328125 -4.859375 C 1.691406 -5.140625 2.195312 -5.28125 2.84375 -5.28125 C 3.132812 -5.28125 3.425781 -5.253906 3.71875 -5.203125 C 4.007812 -5.160156 4.289062 -5.09375 4.5625 -5 Z "/>
</g>
<g id="glyph-0-4">
<path d="M 3.171875 -6.625 L 3.171875 -5.15625 L 4.9375 -5.15625 L 4.9375 -4.125 L 3.171875 -4.125 L 3.171875 -1.6875 C 3.171875 -1.457031 3.226562 -1.289062 3.34375 -1.1875 C 3.457031 -1.082031 3.644531 -1.03125 3.90625 -1.03125 L 4.9375 -1.03125 L 4.9375 0 L 3.8125 0 C 3.039062 0 2.515625 -0.117188 2.234375 -0.359375 C 1.960938 -0.609375 1.828125 -1.070312 1.828125 -1.75 L 1.828125 -4.125 L 0.515625 -4.125 L 0.515625 -5.15625 L 1.828125 -5.15625 L 1.828125 -6.625 Z "/>
</g>
<g id="glyph-0-5">
<path d="M 5.078125 -0.25 C 4.765625 -0.125 4.441406 -0.03125 4.109375 0.03125 C 3.785156 0.101562 3.445312 0.140625 3.09375 0.140625 C 2.226562 0.140625 1.566406 -0.0859375 1.109375 -0.546875 C 0.648438 -1.015625 0.421875 -1.6875 0.421875 -2.5625 C 0.421875 -3.394531 0.640625 -4.054688 1.078125 -4.546875 C 1.515625 -5.035156 2.113281 -5.28125 2.875 -5.28125 C 3.644531 -5.28125 4.238281 -5.050781 4.65625 -4.59375 C 5.082031 -4.144531 5.296875 -3.507812 5.296875 -2.6875 L 5.296875 -2.140625 L 1.796875 -2.140625 C 1.796875 -1.734375 1.914062 -1.429688 2.15625 -1.234375 C 2.394531 -1.035156 2.75 -0.9375 3.21875 -0.9375 C 3.53125 -0.9375 3.832031 -0.976562 4.125 -1.0625 C 4.425781 -1.15625 4.742188 -1.300781 5.078125 -1.5 Z M 3.9375 -3.15625 C 3.925781 -3.507812 3.832031 -3.773438 3.65625 -3.953125 C 3.476562 -4.140625 3.21875 -4.234375 2.875 -4.234375 C 2.570312 -4.234375 2.328125 -4.140625 2.140625 -3.953125 C 1.953125 -3.765625 1.84375 -3.5 1.8125 -3.15625 Z "/>
</g>
<g id="glyph-0-6">
<path d="M 3.703125 -2.65625 C 3.703125 -3.125 3.613281 -3.492188 3.4375 -3.765625 C 3.257812 -4.046875 3.03125 -4.1875 2.75 -4.1875 C 2.46875 -4.1875 2.238281 -4.046875 2.0625 -3.765625 C 1.882812 -3.492188 1.796875 -3.125 1.796875 -2.65625 C 1.796875 -2.195312 1.882812 -1.828125 2.0625 -1.546875 C 2.238281 -1.273438 2.46875 -1.140625 2.75 -1.140625 C 3.03125 -1.140625 3.257812 -1.273438 3.4375 -1.546875 C 3.613281 -1.828125 3.703125 -2.195312 3.703125 -2.65625 Z M 5.046875 -0.390625 C 5.046875 0.441406 4.859375 1.039062 4.484375 1.40625 C 4.117188 1.769531 3.515625 1.953125 2.671875 1.953125 C 2.390625 1.953125 2.109375 1.929688 1.828125 1.890625 C 1.554688 1.847656 1.273438 1.785156 0.984375 1.703125 L 0.984375 0.453125 C 1.242188 0.597656 1.503906 0.703125 1.765625 0.765625 C 2.035156 0.835938 2.304688 0.875 2.578125 0.875 C 2.960938 0.875 3.242188 0.785156 3.421875 0.609375 C 3.609375 0.429688 3.703125 0.148438 3.703125 -0.234375 L 3.703125 -0.796875 C 3.566406 -0.546875 3.390625 -0.359375 3.171875 -0.234375 C 2.953125 -0.117188 2.6875 -0.0625 2.375 -0.0625 C 1.789062 -0.0625 1.320312 -0.289062 0.96875 -0.75 C 0.625 -1.21875 0.453125 -1.84375 0.453125 -2.625 C 0.453125 -3.445312 0.625 -4.097656 0.96875 -4.578125 C 1.320312 -5.054688 1.789062 -5.296875 2.375 -5.296875 C 2.664062 -5.296875 2.925781 -5.222656 3.15625 -5.078125 C 3.382812 -4.941406 3.566406 -4.75 3.703125 -4.5 L 3.703125 -5.15625 L 5.046875 -5.15625 Z "/>
</g>
<g id="glyph-0-7">
<path d="M 2.0625 -4.90625 L 3.609375 -4.90625 L 3.609375 -3.21875 L 2.0625 -3.21875 Z M 2.0625 -1.6875 L 3.609375 -1.6875 L 3.609375 0 L 2.0625 0 Z "/>
</g>
<g id="glyph-0-8">
</g>
<g id="glyph-0-9">
<path d="M 1.984375 -5.65625 L 1.984375 -1.21875 L 2.359375 -1.21875 C 2.890625 -1.21875 3.269531 -1.382812 3.5 -1.71875 C 3.726562 -2.0625 3.84375 -2.640625 3.84375 -3.453125 C 3.84375 -4.253906 3.726562 -4.820312 3.5 -5.15625 C 3.269531 -5.488281 2.890625 -5.65625 2.359375 -5.65625 Z M 0.625 -6.875 L 2.09375 -6.875 C 3.21875 -6.875 4.023438 -6.601562 4.515625 -6.0625 C 5.015625 -5.53125 5.265625 -4.660156 5.265625 -3.453125 C 5.265625 -2.234375 5.015625 -1.351562 4.515625 -0.8125 C 4.023438 -0.269531 3.21875 0 2.09375 0 L 0.625 0 Z "/>
</g>
<g id="glyph-0-10">
<path d="M 1.03125 0 L 1.03125 -6.875 L 2.390625 -6.875 L 2.390625 -1.203125 L 5.296875 -1.203125 L 5.296875 0 Z "/>
</g>
<g id="glyph-0-11">
<path d="M 3.40625 -5.609375 L 3.40625 -5.15625 L 4.984375 -5.15625 L 4.984375 -4.125 L 3.40625 -4.125 L 3.40625 0 L 2.0625 0 L 2.0625 -4.125 L 0.796875 -4.125 L 0.796875 -5.15625 L 2.0625 -5.15625 L 2.0625 -5.515625 C 2.0625 -6.140625 2.1875 -6.570312 2.4375 -6.8125 C 2.695312 -7.050781 3.175781 -7.171875 3.875 -7.171875 L 4.984375 -7.171875 L 4.984375 -6.140625 L 3.9375 -6.140625 C 3.726562 -6.140625 3.585938 -6.097656 3.515625 -6.015625 C 3.453125 -5.941406 3.414062 -5.804688 3.40625 -5.609375 Z "/>
</g>
<g id="glyph-0-12">
<path d="M 5.296875 -3.734375 C 5.148438 -3.867188 4.976562 -3.96875 4.78125 -4.03125 C 4.582031 -4.101562 4.367188 -4.140625 4.140625 -4.140625 C 3.847656 -4.140625 3.59375 -4.085938 3.375 -3.984375 C 3.164062 -3.890625 3.003906 -3.75 2.890625 -3.5625 C 2.816406 -3.4375 2.765625 -3.289062 2.734375 -3.125 C 2.703125 -2.96875 2.6875 -2.71875 2.6875 -2.375 L 2.6875 0 L 1.34375 0 L 1.34375 -5.15625 L 2.6875 -5.15625 L 2.6875 -4.359375 C 2.820312 -4.648438 3.023438 -4.875 3.296875 -5.03125 C 3.566406 -5.195312 3.890625 -5.28125 4.265625 -5.28125 C 4.441406 -5.28125 4.617188 -5.257812 4.796875 -5.21875 C 4.972656 -5.175781 5.140625 -5.109375 5.296875 -5.015625 Z "/>
</g>
<g id="glyph-0-13">
<path d="M 3.21875 -2.421875 C 2.71875 -2.421875 2.367188 -2.351562 2.171875 -2.21875 C 1.972656 -2.09375 1.875 -1.875 1.875 -1.5625 C 1.875 -1.332031 1.941406 -1.144531 2.078125 -1 C 2.210938 -0.863281 2.398438 -0.796875 2.640625 -0.796875 C 2.992188 -0.796875 3.269531 -0.929688 3.46875 -1.203125 C 3.664062 -1.472656 3.765625 -1.847656 3.765625 -2.328125 L 3.765625 -2.421875 Z M 5.109375 -2.9375 L 5.109375 0 L 3.765625 0 L 3.765625 -0.578125 C 3.597656 -0.347656 3.382812 -0.171875 3.125 -0.046875 C 2.875 0.078125 2.597656 0.140625 2.296875 0.140625 C 1.710938 0.140625 1.253906 -0.015625 0.921875 -0.328125 C 0.597656 -0.640625 0.4375 -1.070312 0.4375 -1.625 C 0.4375 -2.226562 0.628906 -2.671875 1.015625 -2.953125 C 1.410156 -3.242188 2.015625 -3.390625 2.828125 -3.390625 L 3.765625 -3.390625 L 3.765625 -3.625 C 3.765625 -3.84375 3.6875 -4.003906 3.53125 -4.109375 C 3.375 -4.222656 3.140625 -4.28125 2.828125 -4.28125 C 2.503906 -4.28125 2.191406 -4.238281 1.890625 -4.15625 C 1.585938 -4.082031 1.269531 -3.957031 0.9375 -3.78125 L 0.9375 -4.921875 C 1.238281 -5.046875 1.539062 -5.132812 1.84375 -5.1875 C 2.15625 -5.25 2.484375 -5.28125 2.828125 -5.28125 C 3.671875 -5.28125 4.257812 -5.109375 4.59375 -4.765625 C 4.9375 -4.429688 5.109375 -3.820312 5.109375 -2.9375 Z "/>
</g>
</g>
</defs>
<g fill="rgb(96.862745%, 98.431373%, 100%)" fill-opacity="1">
<use xlink:href="#glyph-0-0" x="30" y="28.766602"/>
<use xlink:href="#glyph-0-1" x="36" y="28.766602"/>
<use xlink:href="#glyph-0-2" x="42" y="28.766602"/>
<use xlink:href="#glyph-0-3" x="48" y="28.766602"/>
<use xlink:href="#glyph-0-4" x="54" y="28.766602"/>
<use xlink:href="#glyph-0-1" x="60" y="28.766602"/>
<use xlink:href="#glyph-0-5" x="66" y="28.766602"/>
<use xlink:href="#glyph-0-6" x="72" y="28.766602"/>
<use xlink:href="#glyph-0-7" x="78" y="28.766602"/>
<use xlink:href="#glyph-0-8" x="84" y="28.766602"/>
<use xlink:href="#glyph-0-9" x="90" y="28.766602"/>
<use xlink:href="#glyph-0-1" x="96" y="28.766602"/>
<use xlink:href="#glyph-0-5" x="102" y="28.766602"/>
<use xlink:href="#glyph-0-8" x="108" y="28.766602"/>
<use xlink:href="#glyph-0-10" x="114" y="28.766602"/>
<use xlink:href="#glyph-0-5" x="120" y="28.766602"/>
<use xlink:href="#glyph-0-1" x="126" y="28.766602"/>
<use xlink:href="#glyph-0-4" x="132" y="28.766602"/>
<use xlink:href="#glyph-0-11" x="138" y="28.766602"/>
<use xlink:href="#glyph-0-12" x="144" y="28.766602"/>
<use xlink:href="#glyph-0-13" x="150" y="28.766602"/>
<use xlink:href="#glyph-0-6" x="156" y="28.766602"/>
<use xlink:href="#glyph-0-5" x="162" y="28.766602"/>
</g>
</svg>
